{"glyphs":{"0":{"ha":928,"x_min":97,"x_max":831,"o":"m 464 -17 q 285 28 356 -17 q 173 146 214 72 q 115 308 132 219 q 97 486 97 397 q 108 635 97 562 q 145 772 119 708 q 213 885 170 836 q 317 961 255 933 q 464 989 379 989 q 643 945 572 989 q 755 830 714 902 q 813 668 796 757 q 831 486 831 578 q 819 338 831 411 q 783 201 808 265 q 715 88 757 138 q 610 11 672 39 q 464 -17 549 -17 m 464 190 q 534 214 506 190 q 581 280 563 238 q 606 374 598 321 q 614 486 614 427 q 606 594 614 542 q 582 690 599 647 q 536 757 565 732 q 464 782 507 782 q 393 758 422 782 q 347 693 365 734 q 320 598 328 651 q 313 486 313 545 q 320 378 313 431 q 345 283 328 325 q 392 215 363 240 q 464 190 421 190 z "},"1":{"ha":581,"x_min":43,"x_max":403,"o":"m 183 0 l 183 693 l 43 693 l 43 874 q 125 883 89 874 q 186 913 161 892 q 224 972 211 935 l 403 972 l 403 0 l 183 0 z "},"2":{"ha":849,"x_min":85,"x_max":760,"o":"m 85 0 q 109 200 85 114 q 178 352 134 287 q 283 468 223 418 q 415 557 344 517 q 474 593 446 574 q 519 637 501 613 q 536 693 536 661 q 509 759 536 737 q 439 782 483 782 q 356 757 393 782 q 294 688 319 733 l 100 776 q 238 933 146 876 q 433 989 329 989 q 606 950 535 989 q 714 845 677 910 q 751 701 751 780 q 726 562 751 617 q 655 467 700 506 q 551 393 610 428 q 445 326 486 354 q 381 271 405 298 q 340 210 356 244 l 760 210 l 760 0 l 85 0 z "},"3":{"ha":831,"x_min":63,"x_max":746,"o":"m 415 -17 q 199 44 292 -17 q 63 214 106 105 l 257 293 q 415 190 317 190 q 500 217 469 190 q 531 290 531 244 q 496 355 531 330 q 408 381 462 381 l 299 381 l 299 590 l 408 590 q 476 617 452 590 q 500 690 500 644 q 474 756 500 730 q 406 782 447 782 q 340 764 369 782 q 288 708 310 745 l 92 785 q 224 936 142 883 q 408 989 306 989 q 569 954 500 989 q 677 856 638 919 q 715 708 715 792 q 686 586 715 642 q 603 493 657 531 q 707 403 667 467 q 746 257 746 338 q 703 115 746 177 q 586 18 661 53 q 415 -17 512 -17 z "},"4":{"ha":913,"x_min":15,"x_max":836,"o":"m 511 0 l 511 175 l 15 175 l 15 314 l 513 972 l 724 972 l 724 379 l 836 379 l 836 175 l 724 175 l 724 0 l 511 0 m 299 379 l 511 379 l 511 671 l 299 379 z "},"5":{"ha":839,"x_min":78,"x_max":757,"o":"m 382 -17 q 255 -2 312 -17 q 153 34 197 12 q 78 79 109 56 l 190 251 q 244 222 215 236 q 309 199 274 208 q 382 190 343 190 q 465 206 429 190 q 520 252 501 221 q 540 329 540 283 q 529 390 540 363 q 494 432 517 417 q 435 447 471 447 q 353 429 385 447 q 292 378 321 411 l 106 478 l 124 972 l 696 972 l 696 761 l 326 761 l 322 638 q 378 650 353 645 q 433 654 403 654 q 612 611 540 654 q 720 493 684 567 q 757 326 757 419 q 708 142 757 219 q 574 24 658 65 q 382 -17 489 -17 z "},"6":{"ha":869,"x_min":85,"x_max":807,"o":"m 451 -17 q 294 11 363 -17 q 179 90 226 40 q 109 209 133 141 q 85 357 85 277 q 145 642 85 510 q 336 865 205 774 q 682 989 468 956 l 682 782 q 552 750 618 772 q 431 688 485 728 q 346 588 376 649 q 403 611 371 602 q 476 621 436 621 q 646 580 572 621 q 764 468 721 540 q 807 301 807 396 q 761 135 807 207 q 635 24 715 64 q 451 -17 555 -17 m 451 190 q 523 203 491 190 q 572 241 554 217 q 590 301 590 266 q 551 383 590 353 q 451 414 511 414 q 378 399 410 414 q 328 359 347 385 q 310 301 310 334 q 328 241 310 266 q 378 203 347 217 q 451 190 410 190 z "},"7":{"ha":758,"x_min":29,"x_max":708,"o":"m 218 0 q 244 289 218 156 q 320 539 269 422 q 449 763 372 656 l 29 763 l 29 972 l 708 972 l 708 801 q 584 615 636 722 q 499 395 532 509 q 450 178 466 282 q 435 0 435 75 l 218 0 z "},"8":{"ha":890,"x_min":85,"x_max":807,"o":"m 444 -17 q 251 22 332 -17 q 128 132 171 61 q 85 300 85 203 q 127 440 85 381 q 244 532 169 499 q 189 572 218 545 q 141 638 160 598 q 121 731 121 677 q 159 866 121 808 q 269 957 197 924 q 444 989 341 989 q 620 957 548 989 q 731 866 693 924 q 769 731 769 808 q 749 640 769 679 q 699 574 728 600 q 644 535 670 547 q 762 441 717 503 q 807 300 807 378 q 764 132 807 203 q 640 22 721 61 q 444 -17 558 -17 m 444 176 q 520 193 487 176 q 572 237 553 209 q 590 301 590 265 q 572 368 590 340 q 520 410 553 396 q 444 425 487 425 q 368 410 401 425 q 318 368 335 396 q 300 301 300 340 q 318 237 300 265 q 368 193 335 209 q 444 176 401 176 m 444 622 q 524 648 494 622 q 554 714 554 674 q 524 776 554 751 q 444 801 494 801 q 364 776 392 801 q 336 714 336 751 q 364 648 336 674 q 444 622 392 622 z "},"9":{"ha":869,"x_min":64,"x_max":796,"o":"m 214 -17 l 214 185 q 345 203 279 185 q 464 268 410 222 q 547 400 518 315 q 482 371 518 381 q 403 361 446 361 q 228 398 304 361 q 108 504 151 434 q 64 676 64 574 q 110 843 64 773 q 238 951 156 913 q 425 989 319 989 q 635 941 553 989 q 756 807 717 892 q 796 613 796 722 q 733 281 796 421 q 541 64 670 141 q 214 -17 413 -13 m 424 563 q 493 575 463 563 q 540 613 524 588 q 557 678 557 638 q 540 738 557 712 q 494 778 524 764 q 425 793 464 793 q 344 778 377 793 q 294 738 311 764 q 276 679 276 713 q 294 614 276 640 q 345 575 312 588 q 424 563 378 563 z "},"A":{"ha":1031,"x_min":22,"x_max":1008,"o":"m 22 0 l 410 972 l 619 972 l 1008 0 l 768 0 l 696 185 l 333 185 l 263 0 l 22 0 m 407 388 l 621 388 l 542 582 q 532 604 538 592 q 522 629 527 616 q 514 653 517 642 q 506 629 510 642 q 495 604 501 616 q 486 582 490 592 l 407 388 z "},"Á":{"ha":1031,"x_min":22,"x_max":1008,"o":"m 22 0 l 410 972 l 619 972 l 1008 0 l 768 0 l 696 185 l 333 185 l 263 0 l 22 0 m 407 388 l 621 388 l 542 582 q 532 604 538 592 q 522 629 527 616 q 514 653 517 642 q 506 629 510 642 q 495 604 501 616 q 486 582 490 592 l 407 388 m 344 1063 l 542 1279 l 788 1279 l 540 1063 l 344 1063 z "},"Ă":{"ha":1031,"x_min":22,"x_max":1008,"o":"m 22 0 l 410 972 l 619 972 l 1008 0 l 768 0 l 696 185 l 333 185 l 263 0 l 22 0 m 407 388 l 621 388 l 542 582 q 532 604 538 592 q 522 629 527 616 q 514 653 517 642 q 506 629 510 642 q 495 604 501 616 q 486 582 490 592 l 407 388 m 515 1053 q 373 1086 429 1053 q 288 1174 316 1119 q 259 1293 259 1229 l 410 1293 q 418 1249 410 1272 q 448 1210 426 1226 q 515 1194 470 1194 q 582 1210 559 1194 q 612 1249 604 1226 q 620 1293 620 1272 l 772 1293 q 743 1174 772 1229 q 657 1086 714 1119 q 515 1053 600 1053 z "},"Ắ":{"ha":1031,"x_min":22,"x_max":1008,"o":"m 22 0 l 410 972 l 619 972 l 1008 0 l 768 0 l 696 185 l 333 185 l 263 0 l 22 0 m 407 388 l 621 388 l 542 582 q 532 604 538 592 q 522 629 527 616 q 514 653 517 642 q 506 629 510 642 q 495 604 501 616 q 486 582 490 592 l 407 388 m 515 1053 q 373 1086 429 1053 q 288 1174 316 1119 q 259 1293 259 1229 l 410 1293 q 418 1249 410 1272 q 448 1210 426 1226 q 515 1194 470 1194 q 582 1210 559 1194 q 612 1249 604 1226 q 620 1293 620 1272 l 772 1293 q 743 1174 772 1229 q 657 1086 714 1119 q 515 1053 600 1053 m 415 1319 l 612 1536 l 858 1536 l 610 1319 l 415 1319 z "},"Ặ":{"ha":1031,"x_min":22,"x_max":1008,"o":"m 22 0 l 410 972 l 619 972 l 1008 0 l 768 0 l 696 185 l 333 185 l 263 0 l 22 0 m 407 388 l 621 388 l 542 582 q 532 604 538 592 q 522 629 527 616 q 514 653 517 642 q 506 629 510 642 q 495 604 501 616 q 486 582 490 592 l 407 388 m 516 -311 q 435 -279 467 -311 q 403 -199 403 -247 q 435 -118 403 -149 q 516 -87 467 -87 q 595 -118 563 -87 q 627 -199 627 -149 q 595 -279 627 -247 q 516 -311 563 -311 m 515 1053 q 373 1086 429 1053 q 288 1174 316 1119 q 259 1293 259 1229 l 410 1293 q 418 1249 410 1272 q 448 1210 426 1226 q 515 1194 470 1194 q 582 1210 559 1194 q 612 1249 604 1226 q 620 1293 620 1272 l 772 1293 q 743 1174 772 1229 q 657 1086 714 1119 q 515 1053 600 1053 z "},"Ằ":{"ha":1031,"x_min":22,"x_max":1008,"o":"m 22 0 l 410 972 l 619 972 l 1008 0 l 768 0 l 696 185 l 333 185 l 263 0 l 22 0 m 407 388 l 621 388 l 542 582 q 532 604 538 592 q 522 629 527 616 q 514 653 517 642 q 506 629 510 642 q 495 604 501 616 q 486 582 490 592 l 407 388 m 515 1053 q 373 1086 429 1053 q 288 1174 316 1119 q 259 1293 259 1229 l 410 1293 q 418 1249 410 1272 q 448 1210 426 1226 q 515 1194 470 1194 q 582 1210 559 1194 q 612 1249 604 1226 q 620 1293 620 1272 l 772 1293 q 743 1174 772 1229 q 657 1086 714 1119 q 515 1053 600 1053 m 422 1319 l 174 1536 l 420 1536 l 617 1319 l 422 1319 z "},"Ẳ":{"ha":1031,"x_min":22,"x_max":1008,"o":"m 22 0 l 410 972 l 619 972 l 1008 0 l 768 0 l 696 185 l 333 185 l 263 0 l 22 0 m 407 388 l 621 388 l 542 582 q 532 604 538 592 q 522 629 527 616 q 514 653 517 642 q 506 629 510 642 q 495 604 501 616 q 486 582 490 592 l 407 388 m 515 1053 q 373 1086 429 1053 q 288 1174 316 1119 q 259 1293 259 1229 l 410 1293 q 418 1249 410 1272 q 448 1210 426 1226 q 515 1194 470 1194 q 582 1210 559 1194 q 612 1249 604 1226 q 620 1293 620 1272 l 772 1293 q 743 1174 772 1229 q 657 1086 714 1119 q 515 1053 600 1053 m 449 1292 q 461 1353 449 1327 q 502 1403 472 1380 q 522 1420 516 1413 q 528 1433 528 1426 q 512 1449 528 1449 q 465 1413 488 1449 l 378 1467 q 432 1539 393 1512 q 520 1567 472 1567 q 616 1532 578 1567 q 653 1443 653 1497 q 639 1380 653 1401 q 608 1342 624 1358 q 586 1316 593 1327 q 580 1292 580 1304 l 449 1292 z "},"Ẵ":{"ha":1031,"x_min":22,"x_max":1008,"o":"m 22 0 l 410 972 l 619 972 l 1008 0 l 768 0 l 696 185 l 333 185 l 263 0 l 22 0 m 407 388 l 621 388 l 542 582 q 532 604 538 592 q 522 629 527 616 q 514 653 517 642 q 506 629 510 642 q 495 604 501 616 q 486 582 490 592 l 407 388 m 515 1053 q 373 1086 429 1053 q 288 1174 316 1119 q 259 1293 259 1229 l 410 1293 q 418 1249 410 1272 q 448 1210 426 1226 q 515 1194 470 1194 q 582 1210 559 1194 q 612 1249 604 1226 q 620 1293 620 1272 l 772 1293 q 743 1174 772 1229 q 657 1086 714 1119 q 515 1053 600 1053 m 626 1361 q 554 1372 586 1361 q 493 1396 522 1383 q 445 1415 469 1407 q 397 1424 422 1424 q 351 1412 371 1424 q 331 1367 331 1400 l 235 1367 q 251 1468 235 1422 q 305 1540 267 1513 q 406 1567 342 1567 q 477 1557 445 1567 q 536 1534 508 1547 q 585 1514 560 1523 q 635 1506 610 1506 q 681 1517 662 1506 q 701 1561 701 1528 l 795 1561 q 780 1461 795 1507 q 727 1389 764 1416 q 626 1361 690 1361 z "},"Ǎ":{"ha":1031,"x_min":22,"x_max":1008,"o":"m 22 0 l 410 972 l 619 972 l 1008 0 l 768 0 l 696 185 l 333 185 l 263 0 l 22 0 m 407 388 l 621 388 l 542 582 q 532 604 538 592 q 522 629 527 616 q 514 653 517 642 q 506 629 510 642 q 495 604 501 616 q 486 582 490 592 l 407 388 m 417 1063 l 221 1279 l 408 1279 l 515 1194 l 621 1279 l 808 1279 l 611 1063 l 417 1063 z "},"Â":{"ha":1031,"x_min":22,"x_max":1008,"o":"m 22 0 l 410 972 l 619 972 l 1008 0 l 768 0 l 696 185 l 333 185 l 263 0 l 22 0 m 407 388 l 621 388 l 542 582 q 532 604 538 592 q 522 629 527 616 q 514 653 517 642 q 506 629 510 642 q 495 604 501 616 q 486 582 490 592 l 407 388 m 223 1063 l 420 1279 l 615 1279 l 810 1063 l 623 1063 l 517 1149 l 410 1063 l 223 1063 z "},"Ấ":{"ha":1031,"x_min":22,"x_max":1128,"o":"m 22 0 l 410 972 l 619 972 l 1008 0 l 768 0 l 696 185 l 333 185 l 263 0 l 22 0 m 407 388 l 621 388 l 542 582 q 532 604 538 592 q 522 629 527 616 q 514 653 517 642 q 506 629 510 642 q 495 604 501 616 q 486 582 490 592 l 407 388 m 223 1063 l 420 1279 l 615 1279 l 810 1063 l 623 1063 l 517 1149 l 410 1063 l 223 1063 m 685 1257 l 883 1474 l 1128 1474 l 881 1257 l 685 1257 z "},"Ậ":{"ha":1031,"x_min":22,"x_max":1008,"o":"m 22 0 l 410 972 l 619 972 l 1008 0 l 768 0 l 696 185 l 333 185 l 263 0 l 22 0 m 407 388 l 621 388 l 542 582 q 532 604 538 592 q 522 629 527 616 q 514 653 517 642 q 506 629 510 642 q 495 604 501 616 q 486 582 490 592 l 407 388 m 516 -311 q 435 -279 467 -311 q 403 -199 403 -247 q 435 -118 403 -149 q 516 -87 467 -87 q 595 -118 563 -87 q 627 -199 627 -149 q 595 -279 627 -247 q 516 -311 563 -311 m 223 1063 l 420 1279 l 615 1279 l 810 1063 l 623 1063 l 517 1149 l 410 1063 l 223 1063 z "},"Ầ":{"ha":1031,"x_min":22,"x_max":1008,"o":"m 22 0 l 410 972 l 619 972 l 1008 0 l 768 0 l 696 185 l 333 185 l 263 0 l 22 0 m 407 388 l 621 388 l 542 582 q 532 604 538 592 q 522 629 527 616 q 514 653 517 642 q 506 629 510 642 q 495 604 501 616 q 486 582 490 592 l 407 388 m 223 1063 l 420 1279 l 615 1279 l 810 1063 l 623 1063 l 517 1149 l 410 1063 l 223 1063 m 741 1257 l 494 1474 l 740 1474 l 937 1257 l 741 1257 z "},"Ẩ":{"ha":1031,"x_min":22,"x_max":1008,"o":"m 22 0 l 410 972 l 619 972 l 1008 0 l 768 0 l 696 185 l 333 185 l 263 0 l 22 0 m 407 388 l 621 388 l 542 582 q 532 604 538 592 q 522 629 527 616 q 514 653 517 642 q 506 629 510 642 q 495 604 501 616 q 486 582 490 592 l 407 388 m 223 1063 l 420 1279 l 615 1279 l 810 1063 l 623 1063 l 517 1149 l 410 1063 l 223 1063 m 449 1333 q 460 1395 449 1369 q 501 1444 472 1422 q 522 1461 515 1455 q 528 1475 528 1468 q 511 1490 528 1490 q 464 1454 488 1490 l 378 1508 q 432 1581 392 1553 q 519 1608 471 1608 q 615 1574 577 1608 q 653 1485 653 1539 q 638 1421 653 1443 q 607 1383 623 1399 q 586 1357 592 1369 q 579 1333 579 1346 l 449 1333 z "},"Ẫ":{"ha":1031,"x_min":22,"x_max":1008,"o":"m 22 0 l 410 972 l 619 972 l 1008 0 l 768 0 l 696 185 l 333 185 l 263 0 l 22 0 m 407 388 l 621 388 l 542 582 q 532 604 538 592 q 522 629 527 616 q 514 653 517 642 q 506 629 510 642 q 495 604 501 616 q 486 582 490 592 l 407 388 m 223 1063 l 420 1279 l 615 1279 l 810 1063 l 623 1063 l 517 1149 l 410 1063 l 223 1063 m 626 1347 q 554 1358 586 1347 q 493 1382 522 1369 q 445 1401 469 1393 q 397 1410 422 1410 q 351 1398 371 1410 q 331 1353 331 1386 l 235 1353 q 251 1454 235 1408 q 305 1526 267 1499 q 406 1553 342 1553 q 477 1543 445 1553 q 536 1520 508 1533 q 585 1500 560 1509 q 635 1492 610 1492 q 681 1503 662 1492 q 701 1547 701 1514 l 795 1547 q 780 1448 795 1493 q 727 1375 764 1402 q 626 1347 690 1347 z "},"Ȁ":{"ha":1031,"x_min":14,"x_max":1008,"o":"m 22 0 l 410 972 l 619 972 l 1008 0 l 768 0 l 696 185 l 333 185 l 263 0 l 22 0 m 407 388 l 621 388 l 542 582 q 532 604 538 592 q 522 629 527 616 q 514 653 517 642 q 506 629 510 642 q 495 604 501 616 q 486 582 490 592 l 407 388 m 261 1063 l 14 1279 l 260 1279 l 457 1063 l 261 1063 m 578 1063 l 331 1279 l 576 1279 l 774 1063 l 578 1063 z "},"Ä":{"ha":1031,"x_min":22,"x_max":1008,"o":"m 22 0 l 410 972 l 619 972 l 1008 0 l 768 0 l 696 185 l 333 185 l 263 0 l 22 0 m 407 388 l 621 388 l 542 582 q 532 604 538 592 q 522 629 527 616 q 514 653 517 642 q 506 629 510 642 q 495 604 501 616 q 486 582 490 592 l 407 388 m 661 1060 q 580 1091 611 1060 q 549 1171 549 1122 q 580 1250 549 1219 q 661 1282 611 1282 q 740 1250 708 1282 q 772 1171 772 1219 q 740 1091 772 1122 q 661 1060 708 1060 m 368 1060 q 288 1091 319 1060 q 257 1171 257 1122 q 288 1250 257 1219 q 368 1282 319 1282 q 448 1250 416 1282 q 481 1171 481 1219 q 448 1091 481 1122 q 368 1060 416 1060 z "},"Ǟ":{"ha":1031,"x_min":22,"x_max":1008,"o":"m 22 0 l 410 972 l 619 972 l 1008 0 l 768 0 l 696 185 l 333 185 l 263 0 l 22 0 m 407 388 l 621 388 l 542 582 q 532 604 538 592 q 522 629 527 616 q 514 653 517 642 q 506 629 510 642 q 495 604 501 616 q 486 582 490 592 l 407 388 m 661 1060 q 580 1091 611 1060 q 549 1171 549 1122 q 580 1250 549 1219 q 661 1282 611 1282 q 740 1250 708 1282 q 772 1171 772 1219 q 740 1091 772 1122 q 661 1060 708 1060 m 368 1060 q 288 1091 319 1060 q 257 1171 257 1122 q 288 1250 257 1219 q 368 1282 319 1282 q 448 1250 416 1282 q 481 1171 481 1219 q 448 1091 481 1122 q 368 1060 416 1060 m 286 1378 l 286 1546 l 744 1546 l 744 1378 l 286 1378 z "},"Ȧ":{"ha":1031,"x_min":22,"x_max":1008,"o":"m 22 0 l 410 972 l 619 972 l 1008 0 l 768 0 l 696 185 l 333 185 l 263 0 l 22 0 m 407 388 l 621 388 l 542 582 q 532 604 538 592 q 522 629 527 616 q 514 653 517 642 q 506 629 510 642 q 495 604 501 616 q 486 582 490 592 l 407 388 m 516 1047 q 432 1083 467 1047 q 397 1167 397 1118 q 432 1250 397 1216 q 516 1283 467 1283 q 601 1250 567 1283 q 635 1167 635 1216 q 601 1083 635 1118 q 516 1047 567 1047 z "},"Ạ":{"ha":1031,"x_min":22,"x_max":1008,"o":"m 22 0 l 410 972 l 619 972 l 1008 0 l 768 0 l 696 185 l 333 185 l 263 0 l 22 0 m 407 388 l 621 388 l 542 582 q 532 604 538 592 q 522 629 527 616 q 514 653 517 642 q 506 629 510 642 q 495 604 501 616 q 486 582 490 592 l 407 388 m 516 -311 q 435 -279 467 -311 q 403 -199 403 -247 q 435 -118 403 -149 q 516 -87 467 -87 q 595 -118 563 -87 q 627 -199 627 -149 q 595 -279 627 -247 q 516 -311 563 -311 z "},"Ǡ":{"ha":1031,"x_min":22,"x_max":1008,"o":"m 22 0 l 410 972 l 619 972 l 1008 0 l 768 0 l 696 185 l 333 185 l 263 0 l 22 0 m 407 388 l 621 388 l 542 582 q 532 604 538 592 q 522 629 527 616 q 514 653 517 642 q 506 629 510 642 q 495 604 501 616 q 486 582 490 592 l 407 388 m 516 1047 q 432 1083 467 1047 q 397 1167 397 1118 q 432 1250 397 1216 q 516 1283 467 1283 q 601 1250 567 1283 q 635 1167 635 1216 q 601 1083 635 1118 q 516 1047 567 1047 m 287 1379 l 287 1547 l 745 1547 l 745 1379 l 287 1379 z "},"À":{"ha":1031,"x_min":22,"x_max":1008,"o":"m 22 0 l 410 972 l 619 972 l 1008 0 l 768 0 l 696 185 l 333 185 l 263 0 l 22 0 m 407 388 l 621 388 l 542 582 q 532 604 538 592 q 522 629 527 616 q 514 653 517 642 q 506 629 510 642 q 495 604 501 616 q 486 582 490 592 l 407 388 m 451 1063 l 204 1279 l 450 1279 l 647 1063 l 451 1063 z "},"Ả":{"ha":1031,"x_min":22,"x_max":1008,"o":"m 22 0 l 410 972 l 619 972 l 1008 0 l 768 0 l 696 185 l 333 185 l 263 0 l 22 0 m 407 388 l 621 388 l 542 582 q 532 604 538 592 q 522 629 527 616 q 514 653 517 642 q 506 629 510 642 q 495 604 501 616 q 486 582 490 592 l 407 388 m 449 1026 q 460 1088 449 1062 q 501 1138 472 1115 q 522 1155 515 1148 q 528 1168 528 1161 q 511 1183 528 1183 q 464 1147 488 1183 l 378 1201 q 432 1274 392 1247 q 519 1301 471 1301 q 615 1267 577 1301 q 653 1178 653 1232 q 638 1114 653 1136 q 607 1076 623 1092 q 586 1050 592 1062 q 579 1026 579 1039 l 449 1026 z "},"Ȃ":{"ha":1031,"x_min":22,"x_max":1008,"o":"m 22 0 l 410 972 l 619 972 l 1008 0 l 768 0 l 696 185 l 333 185 l 263 0 l 22 0 m 407 388 l 621 388 l 542 582 q 532 604 538 592 q 522 629 527 616 q 514 653 517 642 q 506 629 510 642 q 495 604 501 616 q 486 582 490 592 l 407 388 m 259 1053 q 288 1172 259 1117 q 373 1260 316 1226 q 516 1293 431 1293 q 649 1263 597 1293 q 731 1184 702 1233 q 770 1078 760 1135 q 772 1065 772 1072 q 772 1053 772 1059 l 620 1053 q 620 1065 620 1059 q 617 1078 619 1072 q 587 1128 608 1105 q 516 1151 566 1151 q 452 1135 475 1151 q 420 1097 429 1119 q 410 1053 410 1074 l 259 1053 z "},"Ɑ":{"ha":1008,"x_min":67,"x_max":907,"o":"m 485 -17 q 293 27 372 -17 q 163 145 213 72 q 90 307 113 218 q 67 486 67 396 q 90 665 67 576 q 163 827 113 754 q 293 945 213 901 q 485 989 372 989 q 608 967 555 989 q 688 906 660 944 l 688 972 l 907 972 l 907 0 l 688 0 l 688 66 q 606 5 656 26 q 485 -17 556 -17 m 513 196 q 580 202 548 196 q 639 221 611 208 q 688 253 666 234 l 688 719 q 643 750 669 737 q 586 770 617 763 q 519 778 556 778 q 410 750 453 778 q 341 679 366 723 q 305 584 315 635 q 294 486 294 533 q 305 386 294 438 q 341 292 316 335 q 408 222 366 249 q 513 196 450 196 z "},"Ā":{"ha":1031,"x_min":22,"x_max":1008,"o":"m 22 0 l 410 972 l 619 972 l 1008 0 l 768 0 l 696 185 l 333 185 l 263 0 l 22 0 m 407 388 l 621 388 l 542 582 q 532 604 538 592 q 522 629 527 616 q 514 653 517 642 q 506 629 510 642 q 495 604 501 616 q 486 582 490 592 l 407 388 m 286 1068 l 286 1236 l 744 1236 l 744 1068 l 286 1068 z "},"Ą":{"ha":1031,"x_min":22,"x_max":1008,"o":"m 801 -344 q 673 -300 720 -344 q 625 -189 625 -256 q 664 -78 625 -127 q 768 0 703 -30 l 694 185 l 333 185 l 261 0 l 22 0 l 410 972 l 619 972 l 1008 0 q 892 -26 940 0 q 818 -93 844 -53 q 793 -172 793 -133 q 806 -213 793 -201 q 833 -225 819 -225 q 864 -217 850 -225 q 886 -199 878 -210 l 979 -264 q 944 -298 966 -279 q 888 -331 922 -317 q 801 -344 853 -344 m 407 388 l 621 388 l 542 582 q 532 604 538 592 q 522 629 527 616 q 514 653 517 642 q 506 629 510 642 q 495 604 501 616 q 486 582 490 592 l 407 388 z "},"Å":{"ha":1031,"x_min":22,"x_max":1008,"o":"m 22 0 l 386 908 q 344 968 360 933 q 328 1042 328 1003 q 353 1135 328 1093 q 421 1202 378 1177 q 515 1226 464 1226 q 608 1202 565 1226 q 677 1135 651 1177 q 703 1042 703 1093 q 688 968 703 1003 q 644 907 673 932 l 1008 0 l 768 0 l 696 185 l 333 185 l 263 0 l 22 0 m 407 388 l 622 388 l 543 582 q 533 608 538 594 q 522 635 527 622 q 514 661 517 649 q 507 635 511 649 q 497 608 502 622 q 486 582 491 594 l 407 388 m 515 993 q 548 1007 534 993 q 563 1042 563 1021 q 548 1076 563 1063 q 515 1090 534 1090 q 480 1076 492 1090 q 467 1042 467 1063 q 480 1007 467 1021 q 515 993 492 993 z "},"Ǻ":{"ha":1031,"x_min":22,"x_max":1008,"o":"m 22 0 l 386 908 q 344 968 360 933 q 328 1042 328 1003 q 353 1135 328 1093 q 421 1202 378 1177 q 515 1226 464 1226 q 608 1202 565 1226 q 677 1135 651 1177 q 703 1042 703 1093 q 688 968 703 1003 q 644 907 673 932 l 1008 0 l 768 0 l 696 185 l 333 185 l 263 0 l 22 0 m 407 388 l 622 388 l 543 582 q 533 608 538 594 q 522 635 527 622 q 514 661 517 649 q 507 635 511 649 q 497 608 502 622 q 486 582 491 594 l 407 388 m 515 993 q 548 1007 534 993 q 563 1042 563 1021 q 548 1076 563 1063 q 515 1090 534 1090 q 480 1076 492 1090 q 467 1042 467 1063 q 480 1007 467 1021 q 515 993 492 993 m 418 1258 l 615 1475 l 861 1475 l 614 1258 l 418 1258 z "},"Ã":{"ha":1031,"x_min":22,"x_max":1008,"o":"m 22 0 l 410 972 l 619 972 l 1008 0 l 768 0 l 696 185 l 333 185 l 263 0 l 22 0 m 407 388 l 621 388 l 542 582 q 532 604 538 592 q 522 629 527 616 q 514 653 517 642 q 506 629 510 642 q 495 604 501 616 q 486 582 490 592 l 407 388 m 626 1068 q 554 1079 586 1068 q 493 1103 522 1090 q 445 1122 469 1114 q 397 1131 422 1131 q 351 1119 371 1131 q 331 1074 331 1107 l 235 1074 q 251 1175 235 1129 q 305 1247 267 1220 q 406 1274 342 1274 q 477 1264 445 1274 q 536 1241 508 1253 q 585 1221 560 1230 q 635 1213 610 1213 q 681 1224 662 1213 q 701 1268 701 1235 l 795 1268 q 780 1168 795 1214 q 727 1095 764 1123 q 626 1068 690 1068 z "},"Æ":{"ha":1303,"x_min":-36,"x_max":1251,"o":"m -36 0 l 528 972 l 1224 972 l 1224 764 l 779 764 l 779 606 l 1003 606 l 1003 397 l 779 397 l 779 210 l 1251 210 l 1251 0 l 560 0 l 560 185 l 304 185 l 200 0 l -36 0 m 424 388 l 560 388 l 560 635 q 548 606 558 626 q 526 565 538 587 q 506 529 514 544 l 424 388 z "},"Ǽ":{"ha":1303,"x_min":-36,"x_max":1251,"o":"m -36 0 l 528 972 l 1224 972 l 1224 764 l 779 764 l 779 606 l 1003 606 l 1003 397 l 779 397 l 779 210 l 1251 210 l 1251 0 l 560 0 l 560 185 l 304 185 l 200 0 l -36 0 m 424 388 l 560 388 l 560 635 q 548 606 558 626 q 526 565 538 587 q 506 529 514 544 l 424 388 m 590 1063 l 788 1279 l 1033 1279 l 786 1063 l 590 1063 z "},"Ǣ":{"ha":1303,"x_min":-36,"x_max":1251,"o":"m -36 0 l 528 972 l 1224 972 l 1224 764 l 779 764 l 779 606 l 1003 606 l 1003 397 l 779 397 l 779 210 l 1251 210 l 1251 0 l 560 0 l 560 185 l 304 185 l 200 0 l -36 0 m 424 388 l 560 388 l 560 635 q 548 606 558 626 q 526 565 538 587 q 506 529 514 544 l 424 388 m 532 1068 l 532 1236 l 990 1236 l 990 1068 l 532 1068 z "},"B":{"ha":990,"x_min":101,"x_max":925,"o":"m 101 0 l 101 972 l 571 972 q 762 934 692 972 q 863 835 833 895 q 893 708 893 774 q 870 590 893 644 q 786 507 848 535 q 867 451 837 488 q 911 373 898 415 q 925 292 925 330 q 907 187 925 239 q 850 93 889 135 q 746 25 810 51 q 589 0 682 0 l 101 0 m 321 207 l 599 207 q 661 222 638 207 q 693 257 684 236 q 703 297 703 278 q 692 345 703 322 q 651 383 681 368 q 561 399 620 399 l 321 399 l 321 207 m 321 596 l 550 596 q 641 619 613 596 q 669 682 669 642 q 663 722 669 702 q 635 754 656 741 q 572 767 614 767 l 321 767 l 321 596 z "},"Ḅ":{"ha":990,"x_min":101,"x_max":925,"o":"m 101 0 l 101 972 l 571 972 q 762 934 692 972 q 863 835 833 895 q 893 708 893 774 q 870 590 893 644 q 786 507 848 535 q 867 451 837 488 q 911 373 898 415 q 925 292 925 330 q 907 187 925 239 q 850 93 889 135 q 746 25 810 51 q 589 0 682 0 l 101 0 m 321 207 l 599 207 q 661 222 638 207 q 693 257 684 236 q 703 297 703 278 q 692 345 703 322 q 651 383 681 368 q 561 399 620 399 l 321 399 l 321 207 m 321 596 l 550 596 q 641 619 613 596 q 669 682 669 642 q 663 722 669 702 q 635 754 656 741 q 572 767 614 767 l 321 767 l 321 596 m 498 -311 q 417 -279 449 -311 q 385 -199 385 -247 q 417 -118 385 -149 q 498 -87 449 -87 q 577 -118 545 -87 q 609 -199 609 -149 q 577 -279 609 -247 q 498 -311 545 -311 z "},"Ɓ":{"ha":1271,"x_min":-10,"x_max":1206,"o":"m 195 567 l -10 672 q 41 833 3 766 q 152 936 79 901 q 345 972 226 972 l 588 972 l 588 767 l 357 767 q 240 719 273 767 q 195 567 207 671 m 382 0 l 382 972 l 851 972 q 1043 934 972 972 q 1143 835 1113 895 q 1174 708 1174 774 q 1151 590 1174 644 q 1067 507 1128 535 q 1148 451 1117 488 q 1192 373 1178 415 q 1206 292 1206 330 q 1188 187 1206 239 q 1130 93 1169 135 q 1027 25 1091 51 q 869 0 963 0 l 382 0 m 601 207 l 879 207 q 942 222 919 207 q 974 257 965 236 q 983 297 983 278 q 973 345 983 322 q 931 383 962 368 q 842 399 901 399 l 601 399 l 601 207 m 601 596 l 831 596 q 922 619 893 596 q 950 682 950 642 q 943 722 950 702 q 915 754 936 741 q 853 767 894 767 l 601 767 l 601 596 z "},"Ƀ":{"ha":1004,"x_min":6,"x_max":939,"o":"m 6 252 l 6 353 l 486 353 l 486 252 l 6 252 m 115 0 l 115 972 l 585 972 q 776 934 706 972 q 877 835 847 895 q 907 708 907 774 q 884 590 907 644 q 800 507 862 535 q 881 451 851 488 q 925 373 912 415 q 939 292 939 330 q 921 187 939 239 q 864 93 903 135 q 760 25 824 51 q 603 0 696 0 l 115 0 m 335 207 l 613 207 q 675 222 652 207 q 707 257 698 236 q 717 297 717 278 q 706 345 717 322 q 665 383 695 368 q 575 399 634 399 l 335 399 l 335 207 m 335 596 l 564 596 q 655 619 626 596 q 683 682 683 642 q 676 722 683 702 q 649 754 669 741 q 586 767 628 767 l 335 767 l 335 596 z "},"C":{"ha":879,"x_min":67,"x_max":839,"o":"m 478 -14 q 284 30 363 -14 q 157 146 205 74 q 88 307 109 219 q 67 486 67 396 q 88 657 67 569 q 158 820 110 745 q 285 942 206 896 q 478 989 364 989 q 643 955 572 989 q 764 865 715 920 q 838 750 813 810 l 642 663 q 594 725 617 699 q 542 764 570 751 q 478 778 515 778 q 390 751 426 778 q 334 681 355 724 q 304 586 313 637 q 294 486 294 535 q 305 385 294 436 q 338 292 315 334 q 394 223 360 249 q 478 197 429 197 q 567 232 528 197 q 639 322 606 267 l 839 247 q 753 112 803 171 q 635 19 703 53 q 478 -14 567 -14 z "},"Ć":{"ha":879,"x_min":67,"x_max":839,"o":"m 478 -14 q 284 30 363 -14 q 157 146 205 74 q 88 307 109 219 q 67 486 67 396 q 88 657 67 569 q 158 820 110 745 q 285 942 206 896 q 478 989 364 989 q 643 955 572 989 q 764 865 715 920 q 838 750 813 810 l 642 663 q 594 725 617 699 q 542 764 570 751 q 478 778 515 778 q 390 751 426 778 q 334 681 355 724 q 304 586 313 637 q 294 486 294 535 q 305 385 294 436 q 338 292 315 334 q 394 223 360 249 q 478 197 429 197 q 567 232 528 197 q 639 322 606 267 l 839 247 q 753 112 803 171 q 635 19 703 53 q 478 -14 567 -14 m 310 1063 l 507 1279 l 753 1279 l 506 1063 l 310 1063 z "},"Č":{"ha":879,"x_min":67,"x_max":839,"o":"m 478 -14 q 284 30 363 -14 q 157 146 205 74 q 88 307 109 219 q 67 486 67 396 q 88 657 67 569 q 158 820 110 745 q 285 942 206 896 q 478 989 364 989 q 643 955 572 989 q 764 865 715 920 q 838 750 813 810 l 642 663 q 594 725 617 699 q 542 764 570 751 q 478 778 515 778 q 390 751 426 778 q 334 681 355 724 q 304 586 313 637 q 294 486 294 535 q 305 385 294 436 q 338 292 315 334 q 394 223 360 249 q 478 197 429 197 q 567 232 528 197 q 639 322 606 267 l 839 247 q 753 112 803 171 q 635 19 703 53 q 478 -14 567 -14 m 382 1063 l 186 1279 l 374 1279 l 481 1194 l 586 1279 l 774 1279 l 576 1063 l 382 1063 z "},"Ç":{"ha":879,"x_min":67,"x_max":839,"o":"m 478 -14 q 284 30 363 -14 q 157 146 205 74 q 88 307 109 219 q 67 486 67 396 q 88 657 67 569 q 158 820 110 745 q 285 942 206 896 q 478 989 364 989 q 643 955 572 989 q 764 865 715 920 q 838 750 813 810 l 642 663 q 594 725 617 699 q 542 764 570 751 q 478 778 515 778 q 390 751 426 778 q 334 681 355 724 q 304 586 313 637 q 294 486 294 535 q 305 385 294 436 q 338 292 315 334 q 394 223 360 249 q 478 197 429 197 q 567 232 528 197 q 639 322 606 267 l 839 247 q 753 112 803 171 q 635 19 703 53 q 478 -14 567 -14 m 461 -344 q 357 -323 397 -344 q 297 -269 318 -301 l 381 -206 q 405 -227 389 -218 q 440 -236 421 -236 q 489 -224 473 -236 q 504 -187 504 -211 q 489 -150 504 -163 q 442 -137 474 -137 q 409 -144 425 -137 q 379 -161 394 -151 l 333 -107 l 419 0 l 533 0 l 500 -60 q 620 -95 581 -60 q 660 -189 660 -131 q 609 -300 660 -256 q 461 -344 559 -344 z "},"Ĉ":{"ha":879,"x_min":67,"x_max":839,"o":"m 478 -14 q 284 30 363 -14 q 157 146 205 74 q 88 307 109 219 q 67 486 67 396 q 88 657 67 569 q 158 820 110 745 q 285 942 206 896 q 478 989 364 989 q 643 955 572 989 q 764 865 715 920 q 838 750 813 810 l 642 663 q 594 725 617 699 q 542 764 570 751 q 478 778 515 778 q 390 751 426 778 q 334 681 355 724 q 304 586 313 637 q 294 486 294 535 q 305 385 294 436 q 338 292 315 334 q 394 223 360 249 q 478 197 429 197 q 567 232 528 197 q 639 322 606 267 l 839 247 q 753 112 803 171 q 635 19 703 53 q 478 -14 567 -14 m 188 1063 l 385 1279 l 580 1279 l 776 1063 l 588 1063 l 483 1149 l 376 1063 l 188 1063 z "},"Ċ":{"ha":879,"x_min":67,"x_max":839,"o":"m 478 -14 q 284 30 363 -14 q 157 146 205 74 q 88 307 109 219 q 67 486 67 396 q 88 657 67 569 q 158 820 110 745 q 285 942 206 896 q 478 989 364 989 q 643 955 572 989 q 764 865 715 920 q 838 750 813 810 l 642 663 q 594 725 617 699 q 542 764 570 751 q 478 778 515 778 q 390 751 426 778 q 334 681 355 724 q 304 586 313 637 q 294 486 294 535 q 305 385 294 436 q 338 292 315 334 q 394 223 360 249 q 478 197 429 197 q 567 232 528 197 q 639 322 606 267 l 839 247 q 753 112 803 171 q 635 19 703 53 q 478 -14 567 -14 m 481 1047 q 397 1083 433 1047 q 362 1167 362 1118 q 397 1250 362 1216 q 481 1283 433 1283 q 567 1250 533 1283 q 601 1167 601 1216 q 567 1083 601 1118 q 481 1047 533 1047 z "},"Ƈ":{"ha":1040,"x_min":67,"x_max":1040,"o":"m 618 750 l 618 771 q 700 1002 618 924 q 932 1111 781 1080 l 1040 942 q 922 905 966 924 q 857 855 877 886 q 838 769 838 824 l 838 750 l 618 750 m 478 -14 q 284 30 363 -14 q 157 146 205 74 q 88 307 109 219 q 67 486 67 396 q 88 657 67 569 q 158 820 110 745 q 285 942 206 896 q 478 989 364 989 q 643 955 572 989 q 764 865 715 920 q 838 750 813 810 l 642 663 q 594 725 617 699 q 542 764 570 751 q 478 778 515 778 q 390 751 426 778 q 334 681 355 724 q 304 586 313 637 q 294 486 294 535 q 305 385 294 436 q 338 292 315 334 q 394 223 360 249 q 478 197 429 197 q 567 232 528 197 q 639 322 606 267 l 839 247 q 753 112 803 171 q 635 19 703 53 q 478 -14 567 -14 z "},"D":{"ha":1013,"x_min":101,"x_max":946,"o":"m 101 0 l 101 972 l 471 972 q 689 931 599 972 q 836 820 779 890 q 919 664 893 751 q 946 486 946 577 q 920 318 946 403 q 839 160 895 233 q 691 44 783 88 q 465 0 599 0 l 101 0 m 321 210 l 486 210 q 593 234 549 210 q 665 300 638 259 q 705 390 692 341 q 718 486 718 438 q 705 585 718 536 q 666 675 692 635 q 599 740 640 715 q 501 764 558 764 l 321 764 l 321 210 z "},"Ǳ":{"ha":1843,"x_min":101,"x_max":1778,"o":"m 101 0 l 101 972 l 471 972 q 689 931 599 972 q 836 820 779 890 q 919 664 893 751 q 946 486 946 577 q 920 318 946 403 q 839 160 895 233 q 691 44 783 88 q 465 0 599 0 l 101 0 m 321 210 l 486 210 q 593 234 549 210 q 665 300 638 259 q 705 390 692 341 q 718 486 718 438 q 705 585 718 536 q 666 675 692 635 q 599 740 640 715 q 501 764 558 764 l 321 764 l 321 210 m 1018 0 l 1018 163 l 1486 765 l 1047 765 l 1047 972 l 1778 972 l 1778 810 l 1303 207 l 1778 207 l 1778 0 l 1018 0 z "},"Ǆ":{"ha":1843,"x_min":101,"x_max":1778,"o":"m 101 0 l 101 972 l 471 972 q 689 931 599 972 q 836 820 779 890 q 919 664 893 751 q 946 486 946 577 q 920 318 946 403 q 839 160 895 233 q 691 44 783 88 q 465 0 599 0 l 101 0 m 321 210 l 486 210 q 593 234 549 210 q 665 300 638 259 q 705 390 692 341 q 718 486 718 438 q 705 585 718 536 q 666 675 692 635 q 599 740 640 715 q 501 764 558 764 l 321 764 l 321 210 m 1018 0 l 1018 163 l 1486 765 l 1047 765 l 1047 972 l 1778 972 l 1778 810 l 1303 207 l 1778 207 l 1778 0 l 1018 0 m 1331 1063 l 1135 1279 l 1322 1279 l 1429 1194 l 1535 1279 l 1722 1279 l 1525 1063 l 1331 1063 z "},"Ð":{"ha":1013,"x_min":-8,"x_max":946,"o":"m -8 383 l -8 589 l 513 589 l 513 383 l -8 383 m 101 0 l 101 972 l 471 972 q 689 931 599 972 q 836 820 779 890 q 919 664 893 751 q 946 486 946 577 q 920 318 946 403 q 839 160 895 233 q 691 44 783 88 q 465 0 599 0 l 101 0 m 321 210 l 486 210 q 593 234 549 210 q 665 300 638 259 q 705 390 692 341 q 718 486 718 438 q 705 585 718 536 q 666 675 692 635 q 599 740 640 715 q 501 764 558 764 l 321 764 l 321 210 z "},"Ď":{"ha":1013,"x_min":101,"x_max":946,"o":"m 101 0 l 101 972 l 471 972 q 689 931 599 972 q 836 820 779 890 q 919 664 893 751 q 946 486 946 577 q 920 318 946 403 q 839 160 895 233 q 691 44 783 88 q 465 0 599 0 l 101 0 m 321 210 l 486 210 q 593 234 549 210 q 665 300 638 259 q 705 390 692 341 q 718 486 718 438 q 705 585 718 536 q 666 675 692 635 q 599 740 640 715 q 501 764 558 764 l 321 764 l 321 210 m 360 1063 l 164 1279 l 351 1279 l 458 1194 l 564 1279 l 751 1279 l 554 1063 l 360 1063 z "},"Ḓ":{"ha":1013,"x_min":101,"x_max":946,"o":"m 101 0 l 101 972 l 471 972 q 689 931 599 972 q 836 820 779 890 q 919 664 893 751 q 946 486 946 577 q 920 318 946 403 q 839 160 895 233 q 691 44 783 88 q 465 0 599 0 l 101 0 m 321 210 l 486 210 q 593 234 549 210 q 665 300 638 259 q 705 390 692 341 q 718 486 718 438 q 705 585 718 536 q 666 675 692 635 q 599 740 640 715 q 501 764 558 764 l 321 764 l 321 210 m 211 -318 l 408 -101 l 603 -101 l 799 -318 l 611 -318 l 506 -232 l 399 -318 l 211 -318 z "},"Đ":{"ha":1013,"x_min":-8,"x_max":946,"o":"m -8 383 l -8 589 l 513 589 l 513 383 l -8 383 m 101 0 l 101 972 l 471 972 q 689 931 599 972 q 836 820 779 890 q 919 664 893 751 q 946 486 946 577 q 920 318 946 403 q 839 160 895 233 q 691 44 783 88 q 465 0 599 0 l 101 0 m 321 210 l 486 210 q 593 234 549 210 q 665 300 638 259 q 705 390 692 341 q 718 486 718 438 q 705 585 718 536 q 666 675 692 635 q 599 740 640 715 q 501 764 558 764 l 321 764 l 321 210 z "},"Ḍ":{"ha":1013,"x_min":101,"x_max":946,"o":"m 101 0 l 101 972 l 471 972 q 689 931 599 972 q 836 820 779 890 q 919 664 893 751 q 946 486 946 577 q 920 318 946 403 q 839 160 895 233 q 691 44 783 88 q 465 0 599 0 l 101 0 m 321 210 l 486 210 q 593 234 549 210 q 665 300 638 259 q 705 390 692 341 q 718 486 718 438 q 705 585 718 536 q 666 675 692 635 q 599 740 640 715 q 501 764 558 764 l 321 764 l 321 210 m 506 -311 q 426 -279 458 -311 q 394 -199 394 -247 q 426 -118 394 -149 q 506 -87 458 -87 q 585 -118 553 -87 q 617 -199 617 -149 q 585 -279 617 -247 q 506 -311 553 -311 z "},"Ɗ":{"ha":1293,"x_min":-10,"x_max":1226,"o":"m 195 567 l -10 672 q 41 833 3 766 q 152 936 79 901 q 345 972 226 972 l 588 972 l 588 767 l 357 767 q 240 719 273 767 q 195 567 207 671 m 382 0 l 382 972 l 751 972 q 969 931 879 972 q 1117 820 1060 890 q 1200 664 1174 751 q 1226 486 1226 577 q 1201 318 1226 403 q 1120 160 1176 233 q 972 44 1064 88 q 746 0 880 0 l 382 0 m 601 210 l 767 210 q 874 234 830 210 q 945 300 918 259 q 986 390 973 341 q 999 486 999 438 q 986 585 999 536 q 947 675 973 635 q 879 740 920 715 q 782 764 838 764 l 601 764 l 601 210 z "},"Ḏ":{"ha":1013,"x_min":101,"x_max":946,"o":"m 101 0 l 101 972 l 471 972 q 689 931 599 972 q 836 820 779 890 q 919 664 893 751 q 946 486 946 577 q 920 318 946 403 q 839 160 895 233 q 691 44 783 88 q 465 0 599 0 l 101 0 m 321 210 l 486 210 q 593 234 549 210 q 665 300 638 259 q 705 390 692 341 q 718 486 718 438 q 705 585 718 536 q 666 675 692 635 q 599 740 640 715 q 501 764 558 764 l 321 764 l 321 210 m 276 -258 l 276 -90 l 735 -90 l 735 -258 l 276 -258 z "},"Ɖ":{"ha":1013,"x_min":-8,"x_max":946,"o":"m -8 383 l -8 589 l 513 589 l 513 383 l -8 383 m 101 0 l 101 972 l 471 972 q 689 931 599 972 q 836 820 779 890 q 919 664 893 751 q 946 486 946 577 q 920 318 946 403 q 839 160 895 233 q 691 44 783 88 q 465 0 599 0 l 101 0 m 321 210 l 486 210 q 593 234 549 210 q 665 300 638 259 q 705 390 692 341 q 718 486 718 438 q 705 585 718 536 q 666 675 692 635 q 599 740 640 715 q 501 764 558 764 l 321 764 l 321 210 z "},"ǲ":{"ha":1778,"x_min":101,"x_max":1694,"o":"m 101 0 l 101 972 l 471 972 q 689 931 599 972 q 836 820 779 890 q 919 664 893 751 q 946 486 946 577 q 920 318 946 403 q 839 160 895 233 q 691 44 783 88 q 465 0 599 0 l 101 0 m 321 210 l 486 210 q 593 234 549 210 q 665 300 638 259 q 705 390 692 341 q 718 486 718 438 q 705 585 718 536 q 666 675 692 635 q 599 740 640 715 q 501 764 558 764 l 321 764 l 321 210 m 1064 0 l 1064 160 l 1424 524 l 1089 524 l 1089 710 l 1694 710 l 1694 554 l 1338 186 l 1693 186 l 1693 0 l 1064 0 z "},"ǅ":{"ha":1803,"x_min":101,"x_max":1720,"o":"m 101 0 l 101 972 l 471 972 q 689 931 599 972 q 836 820 779 890 q 919 664 893 751 q 946 486 946 577 q 920 318 946 403 q 839 160 895 233 q 691 44 783 88 q 465 0 599 0 l 101 0 m 321 210 l 486 210 q 593 234 549 210 q 665 300 638 259 q 705 390 692 341 q 718 486 718 438 q 705 585 718 536 q 666 675 692 635 q 599 740 640 715 q 501 764 558 764 l 321 764 l 321 210 m 1089 0 l 1089 160 l 1449 524 l 1114 524 l 1114 710 l 1719 710 l 1719 554 l 1363 186 l 1718 186 l 1718 0 l 1089 0 m 1328 800 l 1133 1017 l 1320 1017 l 1427 932 l 1533 1017 l 1720 1017 l 1523 800 l 1328 800 z "},"E":{"ha":890,"x_min":101,"x_max":839,"o":"m 101 0 l 101 972 l 811 972 l 811 764 l 321 764 l 321 606 l 590 606 l 590 397 l 321 397 l 321 210 l 839 210 l 839 0 l 101 0 z "},"É":{"ha":890,"x_min":101,"x_max":839,"o":"m 101 0 l 101 972 l 811 972 l 811 764 l 321 764 l 321 606 l 590 606 l 590 397 l 321 397 l 321 210 l 839 210 l 839 0 l 101 0 m 294 1063 l 492 1279 l 738 1279 l 490 1063 l 294 1063 z "},"Ĕ":{"ha":890,"x_min":101,"x_max":839,"o":"m 101 0 l 101 972 l 811 972 l 811 764 l 321 764 l 321 606 l 590 606 l 590 397 l 321 397 l 321 210 l 839 210 l 839 0 l 101 0 m 465 1053 q 323 1086 379 1053 q 238 1174 266 1119 q 209 1293 209 1229 l 360 1293 q 368 1249 360 1272 q 398 1210 376 1226 q 465 1194 420 1194 q 532 1210 509 1194 q 562 1249 554 1226 q 570 1293 570 1272 l 722 1293 q 693 1174 722 1229 q 607 1086 664 1119 q 465 1053 550 1053 z "},"Ě":{"ha":890,"x_min":101,"x_max":839,"o":"m 101 0 l 101 972 l 811 972 l 811 764 l 321 764 l 321 606 l 590 606 l 590 397 l 321 397 l 321 210 l 839 210 l 839 0 l 101 0 m 367 1063 l 171 1279 l 358 1279 l 465 1194 l 571 1279 l 758 1279 l 561 1063 l 367 1063 z "},"Ȩ":{"ha":890,"x_min":101,"x_max":839,"o":"m 101 0 l 101 972 l 811 972 l 811 764 l 321 764 l 321 606 l 590 606 l 590 397 l 321 397 l 321 210 l 839 210 l 839 0 l 101 0 m 428 -344 q 324 -323 363 -344 q 264 -269 285 -301 l 347 -206 q 372 -227 356 -218 q 407 -236 388 -236 q 455 -224 440 -236 q 471 -187 471 -211 q 456 -150 471 -163 q 408 -137 441 -137 q 376 -144 392 -137 q 346 -161 360 -151 l 300 -107 l 386 0 l 500 0 l 467 -60 q 587 -95 548 -60 q 626 -189 626 -131 q 576 -300 626 -256 q 428 -344 526 -344 z "},"Ê":{"ha":890,"x_min":101,"x_max":839,"o":"m 101 0 l 101 972 l 811 972 l 811 764 l 321 764 l 321 606 l 590 606 l 590 397 l 321 397 l 321 210 l 839 210 l 839 0 l 101 0 m 173 1063 l 370 1279 l 565 1279 l 760 1063 l 573 1063 l 467 1149 l 360 1063 l 173 1063 z "},"Ế":{"ha":890,"x_min":101,"x_max":1078,"o":"m 101 0 l 101 972 l 811 972 l 811 764 l 321 764 l 321 606 l 590 606 l 590 397 l 321 397 l 321 210 l 839 210 l 839 0 l 101 0 m 173 1063 l 370 1279 l 565 1279 l 760 1063 l 573 1063 l 467 1149 l 360 1063 l 173 1063 m 635 1257 l 833 1474 l 1078 1474 l 831 1257 l 635 1257 z "},"Ệ":{"ha":890,"x_min":101,"x_max":839,"o":"m 101 0 l 101 972 l 811 972 l 811 764 l 321 764 l 321 606 l 590 606 l 590 397 l 321 397 l 321 210 l 839 210 l 839 0 l 101 0 m 445 -311 q 365 -279 397 -311 q 333 -199 333 -247 q 365 -118 333 -149 q 445 -87 397 -87 q 524 -118 492 -87 q 556 -199 556 -149 q 524 -279 556 -247 q 445 -311 492 -311 m 173 1063 l 370 1279 l 565 1279 l 760 1063 l 573 1063 l 467 1149 l 360 1063 l 173 1063 z "},"Ề":{"ha":890,"x_min":101,"x_max":887,"o":"m 101 0 l 101 972 l 811 972 l 811 764 l 321 764 l 321 606 l 590 606 l 590 397 l 321 397 l 321 210 l 839 210 l 839 0 l 101 0 m 173 1063 l 370 1279 l 565 1279 l 760 1063 l 573 1063 l 467 1149 l 360 1063 l 173 1063 m 691 1257 l 444 1474 l 690 1474 l 887 1257 l 691 1257 z "},"Ể":{"ha":890,"x_min":101,"x_max":839,"o":"m 101 0 l 101 972 l 811 972 l 811 764 l 321 764 l 321 606 l 590 606 l 590 397 l 321 397 l 321 210 l 839 210 l 839 0 l 101 0 m 173 1063 l 370 1279 l 565 1279 l 760 1063 l 573 1063 l 467 1149 l 360 1063 l 173 1063 m 399 1333 q 410 1395 399 1369 q 451 1444 422 1422 q 472 1461 465 1455 q 478 1475 478 1468 q 461 1490 478 1490 q 414 1454 438 1490 l 328 1508 q 382 1581 342 1553 q 469 1608 421 1608 q 565 1574 527 1608 q 603 1485 603 1539 q 588 1421 603 1443 q 557 1383 573 1399 q 536 1357 542 1369 q 529 1333 529 1346 l 399 1333 z "},"Ễ":{"ha":890,"x_min":101,"x_max":839,"o":"m 101 0 l 101 972 l 811 972 l 811 764 l 321 764 l 321 606 l 590 606 l 590 397 l 321 397 l 321 210 l 839 210 l 839 0 l 101 0 m 173 1063 l 370 1279 l 565 1279 l 760 1063 l 573 1063 l 467 1149 l 360 1063 l 173 1063 m 576 1347 q 504 1358 536 1347 q 443 1382 472 1369 q 395 1401 419 1393 q 347 1410 372 1410 q 301 1398 321 1410 q 281 1353 281 1386 l 185 1353 q 201 1454 185 1408 q 255 1526 217 1499 q 356 1553 292 1553 q 427 1543 395 1553 q 486 1520 458 1533 q 535 1500 510 1509 q 585 1492 560 1492 q 631 1503 612 1492 q 651 1547 651 1514 l 745 1547 q 730 1448 745 1493 q 677 1375 714 1402 q 576 1347 640 1347 z "},"Ȅ":{"ha":890,"x_min":-36,"x_max":839,"o":"m 101 0 l 101 972 l 811 972 l 811 764 l 321 764 l 321 606 l 590 606 l 590 397 l 321 397 l 321 210 l 839 210 l 839 0 l 101 0 m 211 1063 l -36 1279 l 210 1279 l 407 1063 l 211 1063 m 528 1063 l 281 1279 l 526 1279 l 724 1063 l 528 1063 z "},"Ë":{"ha":890,"x_min":101,"x_max":839,"o":"m 101 0 l 101 972 l 811 972 l 811 764 l 321 764 l 321 606 l 590 606 l 590 397 l 321 397 l 321 210 l 839 210 l 839 0 l 101 0 m 611 1060 q 530 1091 561 1060 q 499 1171 499 1122 q 530 1250 499 1219 q 611 1282 561 1282 q 690 1250 658 1282 q 722 1171 722 1219 q 690 1091 722 1122 q 611 1060 658 1060 m 318 1060 q 238 1091 269 1060 q 207 1171 207 1122 q 238 1250 207 1219 q 318 1282 269 1282 q 398 1250 366 1282 q 431 1171 431 1219 q 398 1091 431 1122 q 318 1060 366 1060 z "},"Ė":{"ha":890,"x_min":101,"x_max":839,"o":"m 101 0 l 101 972 l 811 972 l 811 764 l 321 764 l 321 606 l 590 606 l 590 397 l 321 397 l 321 210 l 839 210 l 839 0 l 101 0 m 466 1047 q 382 1083 417 1047 q 347 1167 347 1118 q 382 1250 347 1216 q 466 1283 417 1283 q 551 1250 517 1283 q 585 1167 585 1216 q 551 1083 585 1118 q 466 1047 517 1047 z "},"Ẹ":{"ha":890,"x_min":101,"x_max":839,"o":"m 101 0 l 101 972 l 811 972 l 811 764 l 321 764 l 321 606 l 590 606 l 590 397 l 321 397 l 321 210 l 839 210 l 839 0 l 101 0 m 445 -311 q 365 -279 397 -311 q 333 -199 333 -247 q 365 -118 333 -149 q 445 -87 397 -87 q 524 -118 492 -87 q 556 -199 556 -149 q 524 -279 556 -247 q 445 -311 492 -311 z "},"È":{"ha":890,"x_min":101,"x_max":839,"o":"m 101 0 l 101 972 l 811 972 l 811 764 l 321 764 l 321 606 l 590 606 l 590 397 l 321 397 l 321 210 l 839 210 l 839 0 l 101 0 m 401 1063 l 154 1279 l 400 1279 l 597 1063 l 401 1063 z "},"Ẻ":{"ha":890,"x_min":101,"x_max":839,"o":"m 101 0 l 101 972 l 811 972 l 811 764 l 321 764 l 321 606 l 590 606 l 590 397 l 321 397 l 321 210 l 839 210 l 839 0 l 101 0 m 399 1026 q 410 1088 399 1062 q 451 1138 422 1115 q 472 1155 465 1148 q 478 1168 478 1161 q 461 1183 478 1183 q 414 1147 438 1183 l 328 1201 q 382 1274 342 1247 q 469 1301 421 1301 q 565 1267 527 1301 q 603 1178 603 1232 q 588 1114 603 1136 q 557 1076 573 1092 q 536 1050 542 1062 q 529 1026 529 1039 l 399 1026 z "},"Ȇ":{"ha":890,"x_min":101,"x_max":839,"o":"m 101 0 l 101 972 l 811 972 l 811 764 l 321 764 l 321 606 l 590 606 l 590 397 l 321 397 l 321 210 l 839 210 l 839 0 l 101 0 m 209 1053 q 238 1172 209 1117 q 323 1260 266 1226 q 466 1293 381 1293 q 599 1263 547 1293 q 681 1184 652 1233 q 720 1078 710 1135 q 722 1065 722 1072 q 722 1053 722 1059 l 570 1053 q 570 1065 570 1059 q 567 1078 569 1072 q 537 1128 558 1105 q 466 1151 516 1151 q 402 1135 425 1151 q 370 1097 379 1119 q 360 1053 360 1074 l 209 1053 z "},"Ē":{"ha":890,"x_min":101,"x_max":839,"o":"m 101 0 l 101 972 l 811 972 l 811 764 l 321 764 l 321 606 l 590 606 l 590 397 l 321 397 l 321 210 l 839 210 l 839 0 l 101 0 m 236 1068 l 236 1236 l 694 1236 l 694 1068 l 236 1068 z "},"Ę":{"ha":890,"x_min":101,"x_max":839,"o":"m 101 0 l 101 972 l 811 972 l 811 764 l 321 764 l 321 606 l 590 606 l 590 397 l 321 397 l 321 210 l 839 210 l 839 0 l 101 0 m 590 -358 q 463 -314 510 -358 q 415 -203 415 -270 q 466 -81 415 -132 q 606 0 517 -29 l 746 0 q 647 -59 682 -26 q 597 -125 611 -92 q 583 -186 583 -159 q 595 -227 583 -215 q 624 -239 607 -239 q 653 -231 640 -239 q 675 -212 667 -224 l 768 -278 q 708 -330 749 -301 q 590 -358 667 -358 z "},"Ɛ":{"ha":802,"x_min":28,"x_max":788,"o":"m 387 -17 q 200 20 281 -17 q 74 123 119 57 q 28 274 28 188 q 74 424 28 367 q 202 504 119 481 q 100 583 142 525 q 59 717 59 641 q 101 858 59 797 q 220 954 143 919 q 401 989 297 989 q 620 929 528 989 q 759 774 713 869 l 563 697 q 501 759 542 736 q 403 782 460 782 q 315 757 347 782 q 284 688 284 733 q 315 617 284 644 q 406 590 345 590 l 562 590 l 562 383 l 406 383 q 288 357 322 383 q 253 286 253 331 q 291 215 253 240 q 394 190 328 190 q 513 218 465 190 q 594 304 560 245 l 788 225 q 641 50 747 116 q 387 -17 536 -17 z "},"Ǝ":{"ha":890,"x_min":51,"x_max":789,"o":"m 51 0 l 51 210 l 569 210 l 569 397 l 300 397 l 300 606 l 569 606 l 569 764 l 79 764 l 79 972 l 789 972 l 789 0 l 51 0 z "},"Ʃ":{"ha":924,"x_min":75,"x_max":849,"o":"m 75 0 l 75 163 l 338 501 l 95 810 l 95 972 l 828 972 l 828 765 l 387 765 l 592 501 l 360 207 l 849 207 l 849 0 l 75 0 z "},"Ẽ":{"ha":890,"x_min":101,"x_max":839,"o":"m 101 0 l 101 972 l 811 972 l 811 764 l 321 764 l 321 606 l 590 606 l 590 397 l 321 397 l 321 210 l 839 210 l 839 0 l 101 0 m 576 1068 q 504 1079 536 1068 q 443 1103 472 1090 q 395 1122 419 1114 q 347 1131 372 1131 q 301 1119 321 1131 q 281 1074 281 1107 l 185 1074 q 201 1175 185 1129 q 255 1247 217 1220 q 356 1274 292 1274 q 427 1264 395 1274 q 486 1241 458 1253 q 535 1221 510 1230 q 585 1213 560 1213 q 631 1224 612 1213 q 651 1268 651 1235 l 745 1268 q 730 1168 745 1214 q 677 1095 714 1123 q 576 1068 640 1068 z "},"Ʒ":{"ha":857,"x_min":56,"x_max":774,"o":"m 438 -17 q 260 17 337 -17 q 133 106 184 50 q 56 228 81 161 l 250 307 q 329 218 283 249 q 433 188 375 188 q 528 220 498 188 q 558 297 558 253 q 520 376 558 347 q 407 413 481 406 l 274 528 l 481 767 l 96 767 l 96 972 l 753 972 l 753 804 l 532 554 q 713 462 652 531 q 774 285 774 393 q 730 124 774 191 q 611 20 687 56 q 438 -17 535 -17 z "},"Ǯ":{"ha":857,"x_min":56,"x_max":774,"o":"m 438 -17 q 260 17 337 -17 q 133 106 184 50 q 56 228 81 161 l 250 307 q 329 218 283 249 q 433 188 375 188 q 528 220 498 188 q 558 297 558 253 q 520 376 558 347 q 407 413 481 406 l 274 528 l 481 767 l 96 767 l 96 972 l 753 972 l 753 804 l 532 554 q 713 462 652 531 q 774 285 774 393 q 730 124 774 191 q 611 20 687 56 q 438 -17 535 -17 m 336 1063 l 140 1279 l 328 1279 l 435 1194 l 540 1279 l 728 1279 l 531 1063 l 336 1063 z "},"F":{"ha":810,"x_min":101,"x_max":789,"o":"m 101 0 l 101 972 l 789 972 l 789 764 l 321 764 l 321 606 l 614 606 l 614 397 l 321 397 l 321 0 l 101 0 z "},"Ƒ":{"ha":810,"x_min":-101,"x_max":789,"o":"m 101 0 l 101 972 l 789 972 l 789 764 l 321 764 l 321 606 l 614 606 l 614 397 l 321 397 l 321 0 l 101 0 m 7 -347 l -101 -178 q 17 -141 -27 -160 q 82 -91 62 -122 q 101 -6 101 -60 l 101 14 l 321 14 l 321 -7 q 240 -238 321 -160 q 7 -347 158 -316 z "},"G":{"ha":940,"x_min":67,"x_max":864,"o":"m 497 -17 q 303 25 385 -17 q 169 139 222 67 q 92 301 117 211 q 67 486 67 391 q 92 663 67 574 q 171 825 118 751 q 305 944 224 899 q 497 989 386 989 q 660 956 592 989 q 775 872 727 924 q 858 763 822 820 l 667 654 q 594 742 635 704 q 497 779 553 779 q 400 752 439 779 q 338 681 360 724 q 305 585 315 637 q 294 486 294 534 q 306 379 294 431 q 341 284 317 326 q 403 218 365 242 q 497 193 442 193 q 566 210 534 193 q 619 255 599 227 q 639 314 639 282 l 639 318 l 482 318 l 482 528 l 864 528 l 864 372 q 815 160 864 247 q 684 28 767 73 q 497 -17 601 -17 z "},"Ǵ":{"ha":940,"x_min":67,"x_max":864,"o":"m 497 -17 q 303 25 385 -17 q 169 139 222 67 q 92 301 117 211 q 67 486 67 391 q 92 663 67 574 q 171 825 118 751 q 305 944 224 899 q 497 989 386 989 q 660 956 592 989 q 775 872 727 924 q 858 763 822 820 l 667 654 q 594 742 635 704 q 497 779 553 779 q 400 752 439 779 q 338 681 360 724 q 305 585 315 637 q 294 486 294 534 q 306 379 294 431 q 341 284 317 326 q 403 218 365 242 q 497 193 442 193 q 566 210 534 193 q 619 255 599 227 q 639 314 639 282 l 639 318 l 482 318 l 482 528 l 864 528 l 864 372 q 815 160 864 247 q 684 28 767 73 q 497 -17 601 -17 m 326 1063 l 524 1279 l 769 1279 l 522 1063 l 326 1063 z "},"Ğ":{"ha":940,"x_min":67,"x_max":864,"o":"m 497 -17 q 303 25 385 -17 q 169 139 222 67 q 92 301 117 211 q 67 486 67 391 q 92 663 67 574 q 171 825 118 751 q 305 944 224 899 q 497 989 386 989 q 660 956 592 989 q 775 872 727 924 q 858 763 822 820 l 667 654 q 594 742 635 704 q 497 779 553 779 q 400 752 439 779 q 338 681 360 724 q 305 585 315 637 q 294 486 294 534 q 306 379 294 431 q 341 284 317 326 q 403 218 365 242 q 497 193 442 193 q 566 210 534 193 q 619 255 599 227 q 639 314 639 282 l 639 318 l 482 318 l 482 528 l 864 528 l 864 372 q 815 160 864 247 q 684 28 767 73 q 497 -17 601 -17 m 497 1053 q 355 1086 411 1053 q 269 1174 298 1119 q 241 1293 241 1229 l 392 1293 q 400 1249 392 1272 q 430 1210 408 1226 q 497 1194 452 1194 q 564 1210 541 1194 q 594 1249 586 1226 q 602 1293 602 1272 l 753 1293 q 725 1174 753 1229 q 639 1086 696 1119 q 497 1053 582 1053 z "},"Ǧ":{"ha":940,"x_min":67,"x_max":864,"o":"m 497 -17 q 303 25 385 -17 q 169 139 222 67 q 92 301 117 211 q 67 486 67 391 q 92 663 67 574 q 171 825 118 751 q 305 944 224 899 q 497 989 386 989 q 660 956 592 989 q 775 872 727 924 q 858 763 822 820 l 667 654 q 594 742 635 704 q 497 779 553 779 q 400 752 439 779 q 338 681 360 724 q 305 585 315 637 q 294 486 294 534 q 306 379 294 431 q 341 284 317 326 q 403 218 365 242 q 497 193 442 193 q 566 210 534 193 q 619 255 599 227 q 639 314 639 282 l 639 318 l 482 318 l 482 528 l 864 528 l 864 372 q 815 160 864 247 q 684 28 767 73 q 497 -17 601 -17 m 399 1063 l 203 1279 l 390 1279 l 497 1194 l 603 1279 l 790 1279 l 593 1063 l 399 1063 z "},"Ĝ":{"ha":940,"x_min":67,"x_max":864,"o":"m 497 -17 q 303 25 385 -17 q 169 139 222 67 q 92 301 117 211 q 67 486 67 391 q 92 663 67 574 q 171 825 118 751 q 305 944 224 899 q 497 989 386 989 q 660 956 592 989 q 775 872 727 924 q 858 763 822 820 l 667 654 q 594 742 635 704 q 497 779 553 779 q 400 752 439 779 q 338 681 360 724 q 305 585 315 637 q 294 486 294 534 q 306 379 294 431 q 341 284 317 326 q 403 218 365 242 q 497 193 442 193 q 566 210 534 193 q 619 255 599 227 q 639 314 639 282 l 639 318 l 482 318 l 482 528 l 864 528 l 864 372 q 815 160 864 247 q 684 28 767 73 q 497 -17 601 -17 m 205 1063 l 402 1279 l 597 1279 l 792 1063 l 605 1063 l 499 1149 l 392 1063 l 205 1063 z "},"Ģ":{"ha":940,"x_min":67,"x_max":864,"o":"m 497 -17 q 303 25 385 -17 q 169 139 222 67 q 92 301 117 211 q 67 486 67 391 q 92 663 67 574 q 171 825 118 751 q 305 944 224 899 q 497 989 386 989 q 660 956 592 989 q 775 872 727 924 q 858 763 822 820 l 667 654 q 594 742 635 704 q 497 779 553 779 q 400 752 439 779 q 338 681 360 724 q 305 585 315 637 q 294 486 294 534 q 306 379 294 431 q 341 284 317 326 q 403 218 365 242 q 497 193 442 193 q 566 210 534 193 q 619 255 599 227 q 639 314 639 282 l 639 318 l 482 318 l 482 528 l 864 528 l 864 372 q 815 160 864 247 q 684 28 767 73 q 497 -17 601 -17 m 464 -425 l 390 -378 q 435 -323 419 -347 q 460 -271 451 -300 q 398 -241 426 -267 q 369 -167 369 -215 q 401 -88 369 -121 q 488 -56 433 -56 q 568 -87 537 -56 q 600 -179 600 -119 q 563 -308 600 -244 q 464 -425 526 -373 z "},"Ġ":{"ha":940,"x_min":67,"x_max":864,"o":"m 497 -17 q 303 25 385 -17 q 169 139 222 67 q 92 301 117 211 q 67 486 67 391 q 92 663 67 574 q 171 825 118 751 q 305 944 224 899 q 497 989 386 989 q 660 956 592 989 q 775 872 727 924 q 858 763 822 820 l 667 654 q 594 742 635 704 q 497 779 553 779 q 400 752 439 779 q 338 681 360 724 q 305 585 315 637 q 294 486 294 534 q 306 379 294 431 q 341 284 317 326 q 403 218 365 242 q 497 193 442 193 q 566 210 534 193 q 619 255 599 227 q 639 314 639 282 l 639 318 l 482 318 l 482 528 l 864 528 l 864 372 q 815 160 864 247 q 684 28 767 73 q 497 -17 601 -17 m 498 1047 q 414 1083 449 1047 q 378 1167 378 1118 q 414 1250 378 1216 q 498 1283 449 1283 q 583 1250 549 1283 q 617 1167 617 1216 q 583 1083 617 1118 q 498 1047 549 1047 z "},"Ɠ":{"ha":1061,"x_min":67,"x_max":1061,"o":"m 639 763 l 639 783 q 720 1015 639 937 q 953 1124 802 1092 l 1061 954 q 942 918 987 937 q 878 867 898 899 q 858 782 858 836 l 858 763 l 639 763 m 497 -17 q 303 25 385 -17 q 169 139 222 67 q 92 301 117 211 q 67 486 67 391 q 92 663 67 574 q 171 825 118 751 q 305 944 224 899 q 497 989 386 989 q 660 956 592 989 q 775 872 727 924 q 858 763 822 820 l 667 654 q 594 742 635 704 q 497 779 553 779 q 400 752 439 779 q 338 681 360 724 q 305 585 315 637 q 294 486 294 534 q 306 379 294 431 q 341 284 317 326 q 403 218 365 242 q 497 193 442 193 q 566 210 534 193 q 619 255 599 227 q 639 314 639 282 l 639 318 l 482 318 l 482 528 l 864 528 l 864 372 q 815 160 864 247 q 684 28 767 73 q 497 -17 601 -17 z "},"Ḡ":{"ha":940,"x_min":67,"x_max":864,"o":"m 497 -17 q 303 25 385 -17 q 169 139 222 67 q 92 301 117 211 q 67 486 67 391 q 92 663 67 574 q 171 825 118 751 q 305 944 224 899 q 497 989 386 989 q 660 956 592 989 q 775 872 727 924 q 858 763 822 820 l 667 654 q 594 742 635 704 q 497 779 553 779 q 400 752 439 779 q 338 681 360 724 q 305 585 315 637 q 294 486 294 534 q 306 379 294 431 q 341 284 317 326 q 403 218 365 242 q 497 193 442 193 q 566 210 534 193 q 619 255 599 227 q 639 314 639 282 l 639 318 l 482 318 l 482 528 l 864 528 l 864 372 q 815 160 864 247 q 684 28 767 73 q 497 -17 601 -17 m 268 1068 l 268 1236 l 726 1236 l 726 1068 l 268 1068 z "},"Ǥ":{"ha":1013,"x_min":67,"x_max":1006,"o":"m 494 -17 q 302 25 383 -17 q 169 139 222 67 q 92 301 117 211 q 67 486 67 391 q 92 663 67 574 q 171 825 118 751 q 304 944 224 899 q 494 989 385 989 q 650 961 585 989 q 761 888 715 933 q 842 788 808 842 l 649 681 q 584 752 622 724 q 494 779 546 779 q 399 752 438 779 q 337 681 360 724 q 305 585 315 637 q 294 486 294 534 q 306 379 294 431 q 340 284 317 326 q 402 218 364 242 q 494 193 440 193 q 598 224 557 193 q 639 314 639 256 l 639 576 l 864 576 l 864 344 q 815 152 864 233 q 683 27 767 71 q 494 -17 599 -17 m 508 257 l 508 465 l 1006 465 l 1006 257 l 508 257 z "},"H":{"ha":1021,"x_min":101,"x_max":919,"o":"m 101 0 l 101 972 l 321 972 l 321 604 l 700 604 l 700 972 l 919 972 l 919 0 l 700 0 l 700 394 l 321 394 l 321 0 l 101 0 z "},"Ħ":{"ha":1000,"x_min":-10,"x_max":1010,"o":"m 91 0 l 91 672 l -10 672 l -10 882 l 91 882 l 91 972 l 310 972 l 310 882 l 690 882 l 690 972 l 910 972 l 910 882 l 1010 882 l 1010 672 l 910 672 l 910 0 l 690 0 l 690 394 l 310 394 l 310 0 l 91 0 m 310 604 l 690 604 l 690 672 l 310 672 l 310 604 z "},"Ȟ":{"ha":1021,"x_min":101,"x_max":919,"o":"m 101 0 l 101 972 l 321 972 l 321 604 l 700 604 l 700 972 l 919 972 l 919 0 l 700 0 l 700 394 l 321 394 l 321 0 l 101 0 m 413 1063 l 217 1279 l 404 1279 l 511 1194 l 617 1279 l 804 1279 l 607 1063 l 413 1063 z "},"Ĥ":{"ha":1021,"x_min":101,"x_max":919,"o":"m 101 0 l 101 972 l 321 972 l 321 604 l 700 604 l 700 972 l 919 972 l 919 0 l 700 0 l 700 394 l 321 394 l 321 0 l 101 0 m 219 1063 l 416 1279 l 610 1279 l 806 1063 l 619 1063 l 513 1149 l 406 1063 l 219 1063 z "},"Ḥ":{"ha":1021,"x_min":101,"x_max":919,"o":"m 101 0 l 101 972 l 321 972 l 321 604 l 700 604 l 700 972 l 919 972 l 919 0 l 700 0 l 700 394 l 321 394 l 321 0 l 101 0 m 512 -311 q 431 -279 463 -311 q 399 -199 399 -247 q 431 -118 399 -149 q 512 -87 463 -87 q 591 -118 559 -87 q 623 -199 623 -149 q 591 -279 623 -247 q 512 -311 559 -311 z "},"Ɦ":{"ha":1301,"x_min":-10,"x_max":1200,"o":"m 195 567 l -10 672 q 41 833 3 766 q 152 936 79 901 q 345 972 226 972 l 588 972 l 588 767 l 357 767 q 240 719 273 767 q 195 567 207 671 m 382 0 l 382 972 l 601 972 l 601 604 l 981 604 l 981 972 l 1200 972 l 1200 0 l 981 0 l 981 394 l 601 394 l 601 0 l 382 0 z "},"Ɥ":{"ha":1017,"x_min":97,"x_max":915,"o":"m 696 0 l 696 406 q 645 350 676 376 q 567 309 614 324 q 453 293 519 293 q 261 342 341 293 q 140 482 182 390 q 97 703 97 574 l 97 972 l 317 972 l 317 746 q 336 607 317 660 q 398 528 356 553 q 507 503 440 503 q 590 517 554 503 q 649 560 625 531 q 684 636 672 590 q 696 746 696 682 l 696 972 l 915 972 l 915 0 l 696 0 z "},"I":{"ha":422,"x_min":101,"x_max":321,"o":"m 101 0 l 101 972 l 321 972 l 321 0 l 101 0 z "},"Ĳ":{"ha":1192,"x_min":101,"x_max":1099,"o":"m 101 0 l 101 972 l 321 972 l 321 0 l 101 0 m 757 -17 q 560 47 653 -17 q 418 221 468 110 l 611 308 q 675 226 640 256 q 757 196 710 196 q 802 203 781 196 q 841 228 824 210 q 868 279 858 247 q 878 361 878 311 l 878 972 l 1099 972 l 1099 346 q 1067 170 1099 240 q 985 59 1036 100 q 874 1 934 18 q 757 -17 815 -17 z "},"Í":{"ha":422,"x_min":42,"x_max":485,"o":"m 101 0 l 101 972 l 321 972 l 321 0 l 101 0 m 42 1063 l 239 1279 l 485 1279 l 238 1063 l 42 1063 z "},"Ĭ":{"ha":422,"x_min":-44,"x_max":469,"o":"m 101 0 l 101 972 l 321 972 l 321 0 l 101 0 m 212 1053 q 70 1086 126 1053 q -15 1174 13 1119 q -44 1293 -44 1229 l 108 1293 q 115 1249 108 1272 q 145 1210 123 1226 q 212 1194 167 1194 q 279 1210 256 1194 q 309 1249 301 1226 q 317 1293 317 1272 l 469 1293 q 440 1174 469 1229 q 354 1086 411 1119 q 212 1053 297 1053 z "},"Ǐ":{"ha":422,"x_min":-82,"x_max":506,"o":"m 101 0 l 101 972 l 321 972 l 321 0 l 101 0 m 114 1063 l -82 1279 l 106 1279 l 213 1194 l 318 1279 l 506 1279 l 308 1063 l 114 1063 z "},"Î":{"ha":422,"x_min":-80,"x_max":508,"o":"m 101 0 l 101 972 l 321 972 l 321 0 l 101 0 m -80 1063 l 117 1279 l 312 1279 l 508 1063 l 320 1063 l 215 1149 l 108 1063 l -80 1063 z "},"Ȉ":{"ha":422,"x_min":-289,"x_max":471,"o":"m 101 0 l 101 972 l 321 972 l 321 0 l 101 0 m -42 1063 l -289 1279 l -43 1279 l 154 1063 l -42 1063 m 275 1063 l 28 1279 l 274 1279 l 471 1063 l 275 1063 z "},"Ï":{"ha":422,"x_min":-46,"x_max":469,"o":"m 101 0 l 101 972 l 321 972 l 321 0 l 101 0 m 358 1060 q 277 1091 308 1060 q 246 1171 246 1122 q 277 1250 246 1219 q 358 1282 308 1282 q 438 1250 406 1282 q 469 1171 469 1219 q 438 1091 469 1122 q 358 1060 406 1060 m 65 1060 q -15 1091 17 1060 q -46 1171 -46 1122 q -15 1250 -46 1219 q 65 1282 17 1282 q 145 1250 113 1282 q 178 1171 178 1219 q 145 1091 178 1122 q 65 1060 113 1060 z "},"Ḯ":{"ha":422,"x_min":-46,"x_max":485,"o":"m 101 0 l 101 972 l 321 972 l 321 0 l 101 0 m 358 1060 q 277 1091 308 1060 q 246 1171 246 1122 q 277 1250 246 1219 q 358 1282 308 1282 q 438 1250 406 1282 q 469 1171 469 1219 q 438 1091 469 1122 q 358 1060 406 1060 m 65 1060 q -15 1091 17 1060 q -46 1171 -46 1122 q -15 1250 -46 1219 q 65 1282 17 1282 q 145 1250 113 1282 q 178 1171 178 1219 q 145 1091 178 1122 q 65 1060 113 1060 m 42 1372 l 239 1589 l 485 1589 l 238 1372 l 42 1372 z "},"İ":{"ha":422,"x_min":94,"x_max":333,"o":"m 101 0 l 101 972 l 321 972 l 321 0 l 101 0 m 213 1047 q 129 1083 165 1047 q 94 1167 94 1118 q 129 1250 94 1216 q 213 1283 165 1283 q 299 1250 265 1283 q 333 1167 333 1216 q 299 1083 333 1118 q 213 1047 265 1047 z "},"Ị":{"ha":422,"x_min":101,"x_max":324,"o":"m 101 0 l 101 972 l 321 972 l 321 0 l 101 0 m 213 -311 q 133 -279 165 -311 q 101 -199 101 -247 q 133 -118 101 -149 q 213 -87 165 -87 q 292 -118 260 -87 q 324 -199 324 -149 q 292 -279 324 -247 q 213 -311 260 -311 z "},"Ì":{"ha":422,"x_min":-99,"x_max":344,"o":"m 101 0 l 101 972 l 321 972 l 321 0 l 101 0 m 149 1063 l -99 1279 l 147 1279 l 344 1063 l 149 1063 z "},"Ỉ":{"ha":422,"x_min":75,"x_max":350,"o":"m 101 0 l 101 972 l 321 972 l 321 0 l 101 0 m 146 1026 q 157 1088 146 1062 q 199 1138 169 1115 q 219 1155 213 1148 q 225 1168 225 1161 q 208 1183 225 1183 q 161 1147 185 1183 l 75 1201 q 129 1274 90 1247 q 217 1301 168 1301 q 312 1267 274 1301 q 350 1178 350 1232 q 335 1114 350 1136 q 304 1076 320 1092 q 283 1050 290 1062 q 276 1026 276 1039 l 146 1026 z "},"Ȋ":{"ha":422,"x_min":-44,"x_max":469,"o":"m 101 0 l 101 972 l 321 972 l 321 0 l 101 0 m -44 1053 q -15 1172 -44 1117 q 70 1260 13 1226 q 213 1293 128 1293 q 347 1263 294 1293 q 428 1184 399 1233 q 467 1078 458 1135 q 469 1065 469 1072 q 469 1053 469 1059 l 317 1053 q 317 1065 317 1059 q 315 1078 317 1072 q 284 1128 306 1105 q 213 1151 263 1151 q 149 1135 172 1151 q 117 1097 126 1119 q 108 1053 108 1074 l -44 1053 z "},"Ī":{"ha":422,"x_min":-17,"x_max":442,"o":"m 101 0 l 101 972 l 321 972 l 321 0 l 101 0 m -17 1068 l -17 1236 l 442 1236 l 442 1068 l -17 1068 z "},"Į":{"ha":435,"x_min":-42,"x_max":328,"o":"m 133 -344 q 5 -300 51 -344 q -42 -189 -42 -256 q -2 -80 -42 -128 q 108 0 37 -31 l 108 972 l 328 972 l 328 0 q 237 -23 283 -3 q 158 -81 190 -44 q 126 -172 126 -119 q 138 -213 126 -201 q 167 -225 150 -225 q 198 -217 187 -225 q 218 -199 210 -210 l 311 -264 q 276 -297 299 -278 q 218 -330 253 -316 q 133 -344 183 -344 z "},"Ɩ":{"ha":489,"x_min":101,"x_max":482,"o":"m 292 -17 q 148 33 194 -17 q 101 179 101 83 l 101 972 l 321 972 l 321 197 q 331 172 321 182 q 357 161 342 161 q 417 168 386 161 q 482 189 449 174 l 458 15 q 383 -9 424 -1 q 292 -17 342 -17 z "},"Ɨ":{"ha":599,"x_min":39,"x_max":560,"o":"m 39 383 l 39 589 l 560 589 l 560 383 l 39 383 m 190 0 l 190 972 l 409 972 l 409 0 l 190 0 z "},"Ĩ":{"ha":422,"x_min":-67,"x_max":492,"o":"m 101 0 l 101 972 l 321 972 l 321 0 l 101 0 m 323 1068 q 251 1079 283 1068 q 190 1103 219 1090 q 142 1122 166 1114 q 94 1131 119 1131 q 48 1119 68 1131 q 28 1074 28 1107 l -67 1074 q -51 1175 -67 1129 q 2 1247 -35 1220 q 103 1274 40 1274 q 174 1264 142 1274 q 233 1241 206 1253 q 282 1221 258 1230 q 333 1213 307 1213 q 378 1224 359 1213 q 398 1268 398 1235 l 492 1268 q 477 1168 492 1214 q 424 1095 461 1123 q 323 1068 387 1068 z "},"J":{"ha":785,"x_min":11,"x_max":692,"o":"m 350 -17 q 153 47 246 -17 q 11 221 61 110 l 204 308 q 268 226 233 256 q 350 196 303 196 q 395 203 374 196 q 434 228 417 210 q 461 279 451 247 q 471 361 471 311 l 471 972 l 692 972 l 692 346 q 660 170 692 240 q 578 59 629 100 q 467 1 527 18 q 350 -17 408 -17 z "},"Ĵ":{"ha":785,"x_min":11,"x_max":877,"o":"m 350 -17 q 153 47 246 -17 q 11 221 61 110 l 204 308 q 268 226 233 256 q 350 196 303 196 q 395 203 374 196 q 434 228 417 210 q 461 279 451 247 q 471 361 471 311 l 471 972 l 692 972 l 692 346 q 660 170 692 240 q 578 59 629 100 q 467 1 527 18 q 350 -17 408 -17 m 290 1063 l 487 1279 l 681 1279 l 877 1063 l 690 1063 l 584 1149 l 477 1063 l 290 1063 z "},"K":{"ha":1028,"x_min":101,"x_max":997,"o":"m 101 0 l 101 972 l 321 972 l 321 514 l 683 972 l 947 972 l 656 618 l 997 0 l 740 0 l 507 433 l 321 200 l 321 0 l 101 0 z "},"Ǩ":{"ha":1028,"x_min":101,"x_max":997,"o":"m 101 0 l 101 972 l 321 972 l 321 514 l 683 972 l 947 972 l 656 618 l 997 0 l 740 0 l 507 433 l 321 200 l 321 0 l 101 0 m 417 1063 l 221 1279 l 408 1279 l 515 1194 l 621 1279 l 808 1279 l 611 1063 l 417 1063 z "},"Ķ":{"ha":1028,"x_min":101,"x_max":997,"o":"m 101 0 l 101 972 l 321 972 l 321 514 l 683 972 l 947 972 l 656 618 l 997 0 l 740 0 l 507 433 l 321 200 l 321 0 l 101 0 m 500 -425 l 426 -378 q 472 -323 456 -347 q 496 -271 488 -300 q 434 -241 462 -267 q 406 -167 406 -215 q 438 -88 406 -121 q 524 -56 469 -56 q 605 -87 573 -56 q 636 -179 636 -119 q 599 -308 636 -244 q 500 -425 563 -373 z "},"Ƙ":{"ha":1028,"x_min":101,"x_max":1022,"o":"m 101 0 l 101 972 l 321 972 l 321 514 l 562 819 q 663 922 615 885 q 769 973 712 958 q 906 989 827 988 l 1022 803 q 883 796 935 803 q 796 768 831 789 q 728 706 762 747 l 656 618 l 997 0 l 740 0 l 507 433 l 321 200 l 321 0 l 101 0 z "},"L":{"ha":793,"x_min":101,"x_max":786,"o":"m 101 0 l 101 972 l 321 972 l 321 213 l 786 213 l 786 0 l 101 0 z "},"Ǉ":{"ha":1642,"x_min":101,"x_max":1549,"o":"m 101 0 l 101 972 l 321 972 l 321 213 l 786 213 l 786 0 l 101 0 m 1207 -17 q 1010 47 1103 -17 q 868 221 918 110 l 1061 308 q 1125 226 1090 256 q 1207 196 1160 196 q 1252 203 1231 196 q 1291 228 1274 210 q 1318 279 1308 247 q 1328 361 1328 311 l 1328 972 l 1549 972 l 1549 346 q 1517 170 1549 240 q 1435 59 1486 100 q 1324 1 1384 18 q 1207 -17 1265 -17 z "},"Ĺ":{"ha":793,"x_min":38,"x_max":786,"o":"m 101 0 l 101 972 l 321 972 l 321 213 l 786 213 l 786 0 l 101 0 m 38 1063 l 235 1279 l 481 1279 l 233 1063 l 38 1063 z "},"Ľ":{"ha":793,"x_min":101,"x_max":786,"o":"m 101 0 l 101 972 l 321 972 l 321 213 l 786 213 l 786 0 l 101 0 m 492 599 l 424 651 q 446 724 436 676 q 462 837 456 773 q 468 972 468 901 l 657 972 l 657 961 q 609 749 657 834 q 492 599 562 663 z "},"Ḽ":{"ha":793,"x_min":101,"x_max":786,"o":"m 101 0 l 101 972 l 321 972 l 321 213 l 786 213 l 786 0 l 101 0 m 143 -318 l 340 -101 l 535 -101 l 731 -318 l 543 -318 l 438 -232 l 331 -318 l 143 -318 z "},"Ļ":{"ha":793,"x_min":101,"x_max":786,"o":"m 101 0 l 101 972 l 321 972 l 321 213 l 786 213 l 786 0 l 101 0 m 414 -425 l 340 -378 q 385 -323 369 -347 q 410 -271 401 -300 q 348 -241 376 -267 q 319 -167 319 -215 q 351 -88 319 -121 q 438 -56 383 -56 q 518 -87 487 -56 q 550 -179 550 -119 q 513 -308 550 -244 q 414 -425 476 -373 z "},"Ŀ":{"ha":793,"x_min":101,"x_max":786,"o":"m 101 0 l 101 972 l 321 972 l 321 213 l 786 213 l 786 0 l 101 0 m 607 361 q 517 398 553 361 q 481 485 481 434 q 517 573 481 536 q 607 610 553 610 q 698 573 661 610 q 735 485 735 536 q 698 398 735 434 q 607 361 661 361 z "},"Ḷ":{"ha":793,"x_min":101,"x_max":786,"o":"m 101 0 l 101 972 l 321 972 l 321 213 l 786 213 l 786 0 l 101 0 m 438 -311 q 358 -279 390 -311 q 326 -199 326 -247 q 358 -118 326 -149 q 438 -87 390 -87 q 517 -118 485 -87 q 549 -199 549 -149 q 517 -279 549 -247 q 438 -311 485 -311 z "},"ǈ":{"ha":1213,"x_min":101,"x_max":1122,"o":"m 101 0 l 101 972 l 321 972 l 321 213 l 786 213 l 786 0 l 101 0 m 804 -297 l 696 -128 q 856 -73 813 -101 q 899 1 899 -45 l 899 710 l 1107 710 l 1107 43 q 1033 -184 1107 -107 q 804 -297 960 -262 m 1003 772 q 919 808 954 772 q 883 892 883 843 q 918 974 883 940 q 1003 1008 953 1008 q 1088 975 1054 1008 q 1122 892 1122 941 q 1088 807 1122 842 q 1003 772 1053 772 z "},"Ł":{"ha":793,"x_min":14,"x_max":786,"o":"m 101 0 l 101 260 l 14 192 l 14 432 l 101 497 l 101 972 l 321 972 l 321 660 l 536 824 l 536 586 l 321 425 l 321 213 l 786 213 l 786 0 l 101 0 z "},"M":{"ha":1129,"x_min":101,"x_max":1028,"o":"m 565 -17 l 326 476 q 324 482 326 478 q 321 493 323 486 q 321 482 321 487 q 321 475 321 477 l 321 0 l 101 0 l 101 972 l 325 972 l 547 489 q 560 460 555 474 q 571 431 566 447 q 582 461 576 447 q 593 489 587 476 l 824 972 l 1028 972 l 1028 0 l 808 0 l 808 476 q 808 485 808 481 q 808 493 808 490 q 805 485 806 489 q 801 479 803 481 l 565 -17 z "},"Ḿ":{"ha":1129,"x_min":101,"x_max":1028,"o":"m 565 -17 l 326 476 q 324 482 326 478 q 321 493 323 486 q 321 482 321 487 q 321 475 321 477 l 321 0 l 101 0 l 101 972 l 325 972 l 547 489 q 560 460 555 474 q 571 431 566 447 q 582 461 576 447 q 593 489 587 476 l 824 972 l 1028 972 l 1028 0 l 808 0 l 808 476 q 808 485 808 481 q 808 493 808 490 q 805 485 806 489 q 801 479 803 481 l 565 -17 m 394 1063 l 592 1279 l 838 1279 l 590 1063 l 394 1063 z "},"N":{"ha":1007,"x_min":101,"x_max":906,"o":"m 101 0 l 101 972 l 300 972 l 651 479 q 672 447 658 470 q 692 407 685 423 q 689 445 690 421 q 688 481 688 470 l 688 972 l 906 972 l 906 0 l 715 0 l 356 497 q 335 531 349 507 q 314 572 322 556 q 318 532 317 553 q 318 497 318 511 l 318 0 l 101 0 z "},"Ǌ":{"ha":1776,"x_min":101,"x_max":1683,"o":"m 101 0 l 101 972 l 300 972 l 651 479 q 672 447 658 470 q 692 407 685 423 q 689 445 690 421 q 688 481 688 470 l 688 972 l 906 972 l 906 0 l 715 0 l 356 497 q 335 531 349 507 q 314 572 322 556 q 318 532 317 553 q 318 497 318 511 l 318 0 l 101 0 m 1342 -17 q 1145 47 1238 -17 q 1003 221 1053 110 l 1196 308 q 1260 226 1225 256 q 1342 196 1295 196 q 1387 203 1365 196 q 1425 228 1408 210 q 1452 279 1442 247 q 1463 361 1463 311 l 1463 972 l 1683 972 l 1683 346 q 1652 170 1683 240 q 1570 59 1621 100 q 1459 1 1519 18 q 1342 -17 1399 -17 z "},"Ń":{"ha":1007,"x_min":101,"x_max":906,"o":"m 101 0 l 101 972 l 300 972 l 651 479 q 672 447 658 470 q 692 407 685 423 q 689 445 690 421 q 688 481 688 470 l 688 972 l 906 972 l 906 0 l 715 0 l 356 497 q 335 531 349 507 q 314 572 322 556 q 318 532 317 553 q 318 497 318 511 l 318 0 l 101 0 m 346 1063 l 543 1279 l 789 1279 l 542 1063 l 346 1063 z "},"Ň":{"ha":1007,"x_min":101,"x_max":906,"o":"m 101 0 l 101 972 l 300 972 l 651 479 q 672 447 658 470 q 692 407 685 423 q 689 445 690 421 q 688 481 688 470 l 688 972 l 906 972 l 906 0 l 715 0 l 356 497 q 335 531 349 507 q 314 572 322 556 q 318 532 317 553 q 318 497 318 511 l 318 0 l 101 0 m 418 1063 l 222 1279 l 410 1279 l 517 1194 l 622 1279 l 810 1279 l 613 1063 l 418 1063 z "},"Ṋ":{"ha":1007,"x_min":101,"x_max":906,"o":"m 101 0 l 101 972 l 300 972 l 651 479 q 672 447 658 470 q 692 407 685 423 q 689 445 690 421 q 688 481 688 470 l 688 972 l 906 972 l 906 0 l 715 0 l 356 497 q 335 531 349 507 q 314 572 322 556 q 318 532 317 553 q 318 497 318 511 l 318 0 l 101 0 m 208 -318 l 406 -101 l 600 -101 l 796 -318 l 608 -318 l 503 -232 l 396 -318 l 208 -318 z "},"Ņ":{"ha":1007,"x_min":101,"x_max":906,"o":"m 101 0 l 101 972 l 300 972 l 651 479 q 672 447 658 470 q 692 407 685 423 q 689 445 690 421 q 688 481 688 470 l 688 972 l 906 972 l 906 0 l 715 0 l 356 497 q 335 531 349 507 q 314 572 322 556 q 318 532 317 553 q 318 497 318 511 l 318 0 l 101 0 m 479 -425 l 406 -378 q 451 -323 435 -347 q 475 -271 467 -300 q 413 -241 441 -267 q 385 -167 385 -215 q 417 -88 385 -121 q 503 -56 449 -56 q 584 -87 552 -56 q 615 -179 615 -119 q 578 -308 615 -244 q 479 -425 542 -373 z "},"Ṅ":{"ha":1007,"x_min":101,"x_max":906,"o":"m 101 0 l 101 972 l 300 972 l 651 479 q 672 447 658 470 q 692 407 685 423 q 689 445 690 421 q 688 481 688 470 l 688 972 l 906 972 l 906 0 l 715 0 l 356 497 q 335 531 349 507 q 314 572 322 556 q 318 532 317 553 q 318 497 318 511 l 318 0 l 101 0 m 517 1047 q 433 1083 469 1047 q 398 1167 398 1118 q 433 1250 398 1216 q 517 1283 469 1283 q 603 1250 569 1283 q 637 1167 637 1216 q 603 1083 637 1118 q 517 1047 569 1047 z "},"Ṇ":{"ha":1007,"x_min":101,"x_max":906,"o":"m 101 0 l 101 972 l 300 972 l 651 479 q 672 447 658 470 q 692 407 685 423 q 689 445 690 421 q 688 481 688 470 l 688 972 l 906 972 l 906 0 l 715 0 l 356 497 q 335 531 349 507 q 314 572 322 556 q 318 532 317 553 q 318 497 318 511 l 318 0 l 101 0 m 503 -311 q 423 -279 455 -311 q 391 -199 391 -247 q 423 -118 391 -149 q 503 -87 455 -87 q 583 -118 551 -87 q 615 -199 615 -149 q 583 -279 615 -247 q 503 -311 551 -311 z "},"Ǹ":{"ha":1007,"x_min":101,"x_max":906,"o":"m 101 0 l 101 972 l 300 972 l 651 479 q 672 447 658 470 q 692 407 685 423 q 689 445 690 421 q 688 481 688 470 l 688 972 l 906 972 l 906 0 l 715 0 l 356 497 q 335 531 349 507 q 314 572 322 556 q 318 532 317 553 q 318 497 318 511 l 318 0 l 101 0 m 453 1063 l 206 1279 l 451 1279 l 649 1063 l 453 1063 z "},"Ɲ":{"ha":1007,"x_min":-101,"x_max":906,"o":"m 7 -347 l -101 -178 q 17 -141 -27 -160 q 82 -91 62 -122 q 101 -6 101 -60 l 101 972 l 300 972 l 651 479 q 672 447 658 470 q 692 407 685 423 q 689 445 690 421 q 688 481 688 470 l 688 972 l 906 972 l 906 0 l 715 0 l 356 497 q 335 531 349 507 q 314 572 322 556 q 318 532 317 553 q 318 497 318 511 l 318 -7 q 237 -238 318 -160 q 7 -347 156 -316 z "},"ǋ":{"ha":1426,"x_min":101,"x_max":1336,"o":"m 101 0 l 101 972 l 300 972 l 651 479 q 672 447 658 470 q 692 407 685 423 q 689 445 690 421 q 688 481 688 470 l 688 972 l 906 972 l 906 0 l 715 0 l 356 497 q 335 531 349 507 q 314 572 322 556 q 318 532 317 553 q 318 497 318 511 l 318 0 l 101 0 m 1018 -297 l 910 -128 q 1069 -73 1026 -101 q 1113 1 1113 -45 l 1113 710 l 1321 710 l 1321 43 q 1247 -184 1321 -107 q 1018 -297 1174 -262 m 1217 772 q 1133 808 1168 772 q 1097 892 1097 843 q 1132 974 1097 940 q 1217 1008 1167 1008 q 1302 975 1268 1008 q 1336 892 1336 941 q 1301 807 1336 842 q 1217 772 1267 772 z "},"Ñ":{"ha":1007,"x_min":101,"x_max":906,"o":"m 101 0 l 101 972 l 300 972 l 651 479 q 672 447 658 470 q 692 407 685 423 q 689 445 690 421 q 688 481 688 470 l 688 972 l 906 972 l 906 0 l 715 0 l 356 497 q 335 531 349 507 q 314 572 322 556 q 318 532 317 553 q 318 497 318 511 l 318 0 l 101 0 m 627 1068 q 555 1079 588 1068 q 494 1103 523 1090 q 447 1122 470 1114 q 398 1131 423 1131 q 352 1119 372 1131 q 333 1074 333 1107 l 237 1074 q 253 1175 237 1129 q 306 1247 269 1220 q 408 1274 344 1274 q 478 1264 447 1274 q 538 1241 510 1253 q 586 1221 562 1230 q 637 1213 611 1213 q 683 1224 663 1213 q 702 1268 702 1235 l 797 1268 q 781 1168 797 1214 q 728 1095 765 1123 q 627 1068 691 1068 z "},"Ŋ":{"ha":1007,"x_min":101,"x_max":906,"o":"m 592 -339 l 482 -164 q 649 -108 604 -137 q 694 -25 694 -78 l 694 32 l 357 494 q 334 534 348 508 q 314 572 320 560 q 318 534 317 561 q 318 497 318 507 l 318 0 l 101 0 l 101 972 l 300 972 l 651 479 q 672 447 658 470 q 692 407 685 423 q 689 445 690 421 q 688 481 688 470 l 688 972 l 906 972 l 906 11 q 893 -112 906 -53 q 835 -221 880 -172 q 720 -300 786 -274 q 592 -339 653 -326 z "},"O":{"ha":996,"x_min":67,"x_max":929,"o":"m 499 -17 q 299 27 381 -17 q 165 145 216 72 q 90 307 114 218 q 67 486 67 396 q 90 665 67 576 q 165 827 114 754 q 299 945 216 901 q 499 989 381 989 q 699 945 617 989 q 832 827 781 901 q 906 665 883 754 q 929 486 929 576 q 906 307 929 396 q 832 145 883 218 q 699 27 781 72 q 499 -17 617 -17 m 499 196 q 593 223 554 196 q 656 294 632 250 q 691 388 680 338 q 701 486 701 439 q 691 588 701 536 q 658 682 681 639 q 595 751 635 725 q 499 778 556 778 q 401 750 440 778 q 338 679 362 723 q 305 584 315 635 q 294 486 294 533 q 305 386 294 438 q 339 292 315 335 q 402 222 363 249 q 499 196 442 196 z "},"Ó":{"ha":996,"x_min":67,"x_max":929,"o":"m 499 -17 q 299 27 381 -17 q 165 145 216 72 q 90 307 114 218 q 67 486 67 396 q 90 665 67 576 q 165 827 114 754 q 299 945 216 901 q 499 989 381 989 q 699 945 617 989 q 832 827 781 901 q 906 665 883 754 q 929 486 929 576 q 906 307 929 396 q 832 145 883 218 q 699 27 781 72 q 499 -17 617 -17 m 499 196 q 593 223 554 196 q 656 294 632 250 q 691 388 680 338 q 701 486 701 439 q 691 588 701 536 q 658 682 681 639 q 595 751 635 725 q 499 778 556 778 q 401 750 440 778 q 338 679 362 723 q 305 584 315 635 q 294 486 294 533 q 305 386 294 438 q 339 292 315 335 q 402 222 363 249 q 499 196 442 196 m 328 1063 l 525 1279 l 771 1279 l 524 1063 l 328 1063 z "},"Ŏ":{"ha":996,"x_min":67,"x_max":929,"o":"m 499 -17 q 299 27 381 -17 q 165 145 216 72 q 90 307 114 218 q 67 486 67 396 q 90 665 67 576 q 165 827 114 754 q 299 945 216 901 q 499 989 381 989 q 699 945 617 989 q 832 827 781 901 q 906 665 883 754 q 929 486 929 576 q 906 307 929 396 q 832 145 883 218 q 699 27 781 72 q 499 -17 617 -17 m 499 196 q 593 223 554 196 q 656 294 632 250 q 691 388 680 338 q 701 486 701 439 q 691 588 701 536 q 658 682 681 639 q 595 751 635 725 q 499 778 556 778 q 401 750 440 778 q 338 679 362 723 q 305 584 315 635 q 294 486 294 533 q 305 386 294 438 q 339 292 315 335 q 402 222 363 249 q 499 196 442 196 m 498 1053 q 356 1086 413 1053 q 271 1174 299 1119 q 242 1293 242 1229 l 394 1293 q 401 1249 394 1272 q 431 1210 409 1226 q 498 1194 453 1194 q 565 1210 542 1194 q 595 1249 588 1226 q 603 1293 603 1272 l 755 1293 q 726 1174 755 1229 q 640 1086 697 1119 q 498 1053 583 1053 z "},"Ǒ":{"ha":996,"x_min":67,"x_max":929,"o":"m 499 -17 q 299 27 381 -17 q 165 145 216 72 q 90 307 114 218 q 67 486 67 396 q 90 665 67 576 q 165 827 114 754 q 299 945 216 901 q 499 989 381 989 q 699 945 617 989 q 832 827 781 901 q 906 665 883 754 q 929 486 929 576 q 906 307 929 396 q 832 145 883 218 q 699 27 781 72 q 499 -17 617 -17 m 499 196 q 593 223 554 196 q 656 294 632 250 q 691 388 680 338 q 701 486 701 439 q 691 588 701 536 q 658 682 681 639 q 595 751 635 725 q 499 778 556 778 q 401 750 440 778 q 338 679 362 723 q 305 584 315 635 q 294 486 294 533 q 305 386 294 438 q 339 292 315 335 q 402 222 363 249 q 499 196 442 196 m 400 1063 l 204 1279 l 392 1279 l 499 1194 l 604 1279 l 792 1279 l 594 1063 l 400 1063 z "},"Ô":{"ha":996,"x_min":67,"x_max":929,"o":"m 499 -17 q 299 27 381 -17 q 165 145 216 72 q 90 307 114 218 q 67 486 67 396 q 90 665 67 576 q 165 827 114 754 q 299 945 216 901 q 499 989 381 989 q 699 945 617 989 q 832 827 781 901 q 906 665 883 754 q 929 486 929 576 q 906 307 929 396 q 832 145 883 218 q 699 27 781 72 q 499 -17 617 -17 m 499 196 q 593 223 554 196 q 656 294 632 250 q 691 388 680 338 q 701 486 701 439 q 691 588 701 536 q 658 682 681 639 q 595 751 635 725 q 499 778 556 778 q 401 750 440 778 q 338 679 362 723 q 305 584 315 635 q 294 486 294 533 q 305 386 294 438 q 339 292 315 335 q 402 222 363 249 q 499 196 442 196 m 206 1063 l 403 1279 l 598 1279 l 794 1063 l 606 1063 l 501 1149 l 394 1063 l 206 1063 z "},"Ố":{"ha":996,"x_min":67,"x_max":1112,"o":"m 499 -17 q 299 27 381 -17 q 165 145 216 72 q 90 307 114 218 q 67 486 67 396 q 90 665 67 576 q 165 827 114 754 q 299 945 216 901 q 499 989 381 989 q 699 945 617 989 q 832 827 781 901 q 906 665 883 754 q 929 486 929 576 q 906 307 929 396 q 832 145 883 218 q 699 27 781 72 q 499 -17 617 -17 m 499 196 q 593 223 554 196 q 656 294 632 250 q 691 388 680 338 q 701 486 701 439 q 691 588 701 536 q 658 682 681 639 q 595 751 635 725 q 499 778 556 778 q 401 750 440 778 q 338 679 362 723 q 305 584 315 635 q 294 486 294 533 q 305 386 294 438 q 339 292 315 335 q 402 222 363 249 q 499 196 442 196 m 206 1063 l 403 1279 l 598 1279 l 794 1063 l 606 1063 l 501 1149 l 394 1063 l 206 1063 m 669 1257 l 866 1474 l 1112 1474 l 865 1257 l 669 1257 z "},"Ộ":{"ha":996,"x_min":67,"x_max":929,"o":"m 499 -17 q 299 27 381 -17 q 165 145 216 72 q 90 307 114 218 q 67 486 67 396 q 90 665 67 576 q 165 827 114 754 q 299 945 216 901 q 499 989 381 989 q 699 945 617 989 q 832 827 781 901 q 906 665 883 754 q 929 486 929 576 q 906 307 929 396 q 832 145 883 218 q 699 27 781 72 q 499 -17 617 -17 m 499 196 q 593 223 554 196 q 656 294 632 250 q 691 388 680 338 q 701 486 701 439 q 691 588 701 536 q 658 682 681 639 q 595 751 635 725 q 499 778 556 778 q 401 750 440 778 q 338 679 362 723 q 305 584 315 635 q 294 486 294 533 q 305 386 294 438 q 339 292 315 335 q 402 222 363 249 q 499 196 442 196 m 499 -311 q 419 -279 451 -311 q 387 -199 387 -247 q 419 -118 387 -149 q 499 -87 451 -87 q 578 -118 547 -87 q 610 -199 610 -149 q 578 -279 610 -247 q 499 -311 547 -311 m 206 1063 l 403 1279 l 598 1279 l 794 1063 l 606 1063 l 501 1149 l 394 1063 l 206 1063 z "},"Ồ":{"ha":996,"x_min":67,"x_max":929,"o":"m 499 -17 q 299 27 381 -17 q 165 145 216 72 q 90 307 114 218 q 67 486 67 396 q 90 665 67 576 q 165 827 114 754 q 299 945 216 901 q 499 989 381 989 q 699 945 617 989 q 832 827 781 901 q 906 665 883 754 q 929 486 929 576 q 906 307 929 396 q 832 145 883 218 q 699 27 781 72 q 499 -17 617 -17 m 499 196 q 593 223 554 196 q 656 294 632 250 q 691 388 680 338 q 701 486 701 439 q 691 588 701 536 q 658 682 681 639 q 595 751 635 725 q 499 778 556 778 q 401 750 440 778 q 338 679 362 723 q 305 584 315 635 q 294 486 294 533 q 305 386 294 438 q 339 292 315 335 q 402 222 363 249 q 499 196 442 196 m 206 1063 l 403 1279 l 598 1279 l 794 1063 l 606 1063 l 501 1149 l 394 1063 l 206 1063 m 724 1257 l 477 1474 l 723 1474 l 920 1257 l 724 1257 z "},"Ổ":{"ha":996,"x_min":67,"x_max":929,"o":"m 499 -17 q 299 27 381 -17 q 165 145 216 72 q 90 307 114 218 q 67 486 67 396 q 90 665 67 576 q 165 827 114 754 q 299 945 216 901 q 499 989 381 989 q 699 945 617 989 q 832 827 781 901 q 906 665 883 754 q 929 486 929 576 q 906 307 929 396 q 832 145 883 218 q 699 27 781 72 q 499 -17 617 -17 m 499 196 q 593 223 554 196 q 656 294 632 250 q 691 388 680 338 q 701 486 701 439 q 691 588 701 536 q 658 682 681 639 q 595 751 635 725 q 499 778 556 778 q 401 750 440 778 q 338 679 362 723 q 305 584 315 635 q 294 486 294 533 q 305 386 294 438 q 339 292 315 335 q 402 222 363 249 q 499 196 442 196 m 206 1063 l 403 1279 l 598 1279 l 794 1063 l 606 1063 l 501 1149 l 394 1063 l 206 1063 m 432 1333 q 443 1395 432 1369 q 485 1444 455 1422 q 505 1461 499 1455 q 511 1475 511 1468 q 494 1490 511 1490 q 447 1454 471 1490 l 361 1508 q 415 1581 376 1553 q 503 1608 454 1608 q 598 1574 560 1608 q 636 1485 636 1539 q 621 1421 636 1443 q 590 1383 606 1399 q 569 1357 576 1369 q 563 1333 563 1346 l 432 1333 z "},"Ỗ":{"ha":996,"x_min":67,"x_max":929,"o":"m 499 -17 q 299 27 381 -17 q 165 145 216 72 q 90 307 114 218 q 67 486 67 396 q 90 665 67 576 q 165 827 114 754 q 299 945 216 901 q 499 989 381 989 q 699 945 617 989 q 832 827 781 901 q 906 665 883 754 q 929 486 929 576 q 906 307 929 396 q 832 145 883 218 q 699 27 781 72 q 499 -17 617 -17 m 499 196 q 593 223 554 196 q 656 294 632 250 q 691 388 680 338 q 701 486 701 439 q 691 588 701 536 q 658 682 681 639 q 595 751 635 725 q 499 778 556 778 q 401 750 440 778 q 338 679 362 723 q 305 584 315 635 q 294 486 294 533 q 305 386 294 438 q 339 292 315 335 q 402 222 363 249 q 499 196 442 196 m 206 1063 l 403 1279 l 598 1279 l 794 1063 l 606 1063 l 501 1149 l 394 1063 l 206 1063 m 609 1347 q 537 1358 569 1347 q 476 1382 505 1369 q 428 1401 452 1393 q 380 1410 405 1410 q 334 1398 354 1410 q 315 1353 315 1386 l 219 1353 q 235 1454 219 1408 q 288 1526 251 1499 q 390 1553 326 1553 q 460 1543 428 1553 q 519 1520 492 1533 q 568 1500 544 1509 q 619 1492 593 1492 q 665 1503 645 1492 q 684 1547 684 1514 l 778 1547 q 763 1448 778 1493 q 710 1375 747 1402 q 609 1347 673 1347 z "},"Ȍ":{"ha":996,"x_min":-3,"x_max":929,"o":"m 499 -17 q 299 27 381 -17 q 165 145 216 72 q 90 307 114 218 q 67 486 67 396 q 90 665 67 576 q 165 827 114 754 q 299 945 216 901 q 499 989 381 989 q 699 945 617 989 q 832 827 781 901 q 906 665 883 754 q 929 486 929 576 q 906 307 929 396 q 832 145 883 218 q 699 27 781 72 q 499 -17 617 -17 m 499 196 q 593 223 554 196 q 656 294 632 250 q 691 388 680 338 q 701 486 701 439 q 691 588 701 536 q 658 682 681 639 q 595 751 635 725 q 499 778 556 778 q 401 750 440 778 q 338 679 362 723 q 305 584 315 635 q 294 486 294 533 q 305 386 294 438 q 339 292 315 335 q 402 222 363 249 q 499 196 442 196 m 244 1063 l -3 1279 l 243 1279 l 440 1063 l 244 1063 m 561 1063 l 314 1279 l 560 1279 l 757 1063 l 561 1063 z "},"Ö":{"ha":996,"x_min":67,"x_max":929,"o":"m 499 -17 q 299 27 381 -17 q 165 145 216 72 q 90 307 114 218 q 67 486 67 396 q 90 665 67 576 q 165 827 114 754 q 299 945 216 901 q 499 989 381 989 q 699 945 617 989 q 832 827 781 901 q 906 665 883 754 q 929 486 929 576 q 906 307 929 396 q 832 145 883 218 q 699 27 781 72 q 499 -17 617 -17 m 499 196 q 593 223 554 196 q 656 294 632 250 q 691 388 680 338 q 701 486 701 439 q 691 588 701 536 q 658 682 681 639 q 595 751 635 725 q 499 778 556 778 q 401 750 440 778 q 338 679 362 723 q 305 584 315 635 q 294 486 294 533 q 305 386 294 438 q 339 292 315 335 q 402 222 363 249 q 499 196 442 196 m 644 1060 q 563 1091 594 1060 q 532 1171 532 1122 q 563 1250 532 1219 q 644 1282 594 1282 q 724 1250 692 1282 q 756 1171 756 1219 q 724 1091 756 1122 q 644 1060 692 1060 m 351 1060 q 272 1091 303 1060 q 240 1171 240 1122 q 272 1250 240 1219 q 351 1282 303 1282 q 432 1250 399 1282 q 464 1171 464 1219 q 432 1091 464 1122 q 351 1060 399 1060 z "},"Ȫ":{"ha":996,"x_min":67,"x_max":929,"o":"m 499 -17 q 299 27 381 -17 q 165 145 216 72 q 90 307 114 218 q 67 486 67 396 q 90 665 67 576 q 165 827 114 754 q 299 945 216 901 q 499 989 381 989 q 699 945 617 989 q 832 827 781 901 q 906 665 883 754 q 929 486 929 576 q 906 307 929 396 q 832 145 883 218 q 699 27 781 72 q 499 -17 617 -17 m 499 196 q 593 223 554 196 q 656 294 632 250 q 691 388 680 338 q 701 486 701 439 q 691 588 701 536 q 658 682 681 639 q 595 751 635 725 q 499 778 556 778 q 401 750 440 778 q 338 679 362 723 q 305 584 315 635 q 294 486 294 533 q 305 386 294 438 q 339 292 315 335 q 402 222 363 249 q 499 196 442 196 m 636 1042 q 555 1073 586 1042 q 524 1153 524 1104 q 555 1233 524 1201 q 636 1265 586 1265 q 715 1233 683 1265 q 747 1153 747 1201 q 715 1073 747 1104 q 636 1042 683 1042 m 361 1042 q 281 1073 313 1042 q 250 1153 250 1104 q 281 1233 250 1201 q 361 1265 313 1265 q 441 1233 409 1265 q 474 1153 474 1201 q 441 1073 474 1104 q 361 1042 409 1042 m 269 1361 l 269 1529 l 728 1529 l 728 1361 l 269 1361 z "},"Ȯ":{"ha":996,"x_min":67,"x_max":929,"o":"m 499 -17 q 299 27 381 -17 q 165 145 216 72 q 90 307 114 218 q 67 486 67 396 q 90 665 67 576 q 165 827 114 754 q 299 945 216 901 q 499 989 381 989 q 699 945 617 989 q 832 827 781 901 q 906 665 883 754 q 929 486 929 576 q 906 307 929 396 q 832 145 883 218 q 699 27 781 72 q 499 -17 617 -17 m 499 196 q 593 223 554 196 q 656 294 632 250 q 691 388 680 338 q 701 486 701 439 q 691 588 701 536 q 658 682 681 639 q 595 751 635 725 q 499 778 556 778 q 401 750 440 778 q 338 679 362 723 q 305 584 315 635 q 294 486 294 533 q 305 386 294 438 q 339 292 315 335 q 402 222 363 249 q 499 196 442 196 m 499 1047 q 415 1083 451 1047 q 380 1167 380 1118 q 415 1250 380 1216 q 499 1283 451 1283 q 585 1250 551 1283 q 619 1167 619 1216 q 585 1083 619 1118 q 499 1047 551 1047 z "},"Ȱ":{"ha":996,"x_min":67,"x_max":929,"o":"m 499 -17 q 299 27 381 -17 q 165 145 216 72 q 90 307 114 218 q 67 486 67 396 q 90 665 67 576 q 165 827 114 754 q 299 945 216 901 q 499 989 381 989 q 699 945 617 989 q 832 827 781 901 q 906 665 883 754 q 929 486 929 576 q 906 307 929 396 q 832 145 883 218 q 699 27 781 72 q 499 -17 617 -17 m 499 196 q 593 223 554 196 q 656 294 632 250 q 691 388 680 338 q 701 486 701 439 q 691 588 701 536 q 658 682 681 639 q 595 751 635 725 q 499 778 556 778 q 401 750 440 778 q 338 679 362 723 q 305 584 315 635 q 294 486 294 533 q 305 386 294 438 q 339 292 315 335 q 402 222 363 249 q 499 196 442 196 m 499 1047 q 415 1083 451 1047 q 380 1167 380 1118 q 415 1250 380 1216 q 499 1283 451 1283 q 585 1250 551 1283 q 619 1167 619 1216 q 585 1083 619 1118 q 499 1047 551 1047 m 270 1379 l 270 1547 l 728 1547 l 728 1379 l 270 1379 z "},"Ọ":{"ha":996,"x_min":67,"x_max":929,"o":"m 499 -17 q 299 27 381 -17 q 165 145 216 72 q 90 307 114 218 q 67 486 67 396 q 90 665 67 576 q 165 827 114 754 q 299 945 216 901 q 499 989 381 989 q 699 945 617 989 q 832 827 781 901 q 906 665 883 754 q 929 486 929 576 q 906 307 929 396 q 832 145 883 218 q 699 27 781 72 q 499 -17 617 -17 m 499 196 q 593 223 554 196 q 656 294 632 250 q 691 388 680 338 q 701 486 701 439 q 691 588 701 536 q 658 682 681 639 q 595 751 635 725 q 499 778 556 778 q 401 750 440 778 q 338 679 362 723 q 305 584 315 635 q 294 486 294 533 q 305 386 294 438 q 339 292 315 335 q 402 222 363 249 q 499 196 442 196 m 499 -311 q 419 -279 451 -311 q 387 -199 387 -247 q 419 -118 387 -149 q 499 -87 451 -87 q 578 -118 547 -87 q 610 -199 610 -149 q 578 -279 610 -247 q 499 -311 547 -311 z "},"Ò":{"ha":996,"x_min":67,"x_max":929,"o":"m 499 -17 q 299 27 381 -17 q 165 145 216 72 q 90 307 114 218 q 67 486 67 396 q 90 665 67 576 q 165 827 114 754 q 299 945 216 901 q 499 989 381 989 q 699 945 617 989 q 832 827 781 901 q 906 665 883 754 q 929 486 929 576 q 906 307 929 396 q 832 145 883 218 q 699 27 781 72 q 499 -17 617 -17 m 499 196 q 593 223 554 196 q 656 294 632 250 q 691 388 680 338 q 701 486 701 439 q 691 588 701 536 q 658 682 681 639 q 595 751 635 725 q 499 778 556 778 q 401 750 440 778 q 338 679 362 723 q 305 584 315 635 q 294 486 294 533 q 305 386 294 438 q 339 292 315 335 q 402 222 363 249 q 499 196 442 196 m 435 1063 l 188 1279 l 433 1279 l 631 1063 l 435 1063 z "},"Ỏ":{"ha":996,"x_min":67,"x_max":929,"o":"m 499 -17 q 299 27 381 -17 q 165 145 216 72 q 90 307 114 218 q 67 486 67 396 q 90 665 67 576 q 165 827 114 754 q 299 945 216 901 q 499 989 381 989 q 699 945 617 989 q 832 827 781 901 q 906 665 883 754 q 929 486 929 576 q 906 307 929 396 q 832 145 883 218 q 699 27 781 72 q 499 -17 617 -17 m 499 196 q 593 223 554 196 q 656 294 632 250 q 691 388 680 338 q 701 486 701 439 q 691 588 701 536 q 658 682 681 639 q 595 751 635 725 q 499 778 556 778 q 401 750 440 778 q 338 679 362 723 q 305 584 315 635 q 294 486 294 533 q 305 386 294 438 q 339 292 315 335 q 402 222 363 249 q 499 196 442 196 m 432 1026 q 443 1088 432 1062 q 485 1138 455 1115 q 505 1155 499 1148 q 511 1168 511 1161 q 494 1183 511 1183 q 447 1147 471 1183 l 361 1201 q 415 1274 376 1247 q 503 1301 454 1301 q 598 1267 560 1301 q 636 1178 636 1232 q 621 1114 636 1136 q 590 1076 606 1092 q 569 1050 576 1062 q 563 1026 563 1039 l 432 1026 z "},"Ơ":{"ha":1206,"x_min":67,"x_max":1197,"o":"m 499 -17 q 299 27 381 -17 q 165 145 216 72 q 90 307 114 218 q 67 486 67 396 q 90 665 67 576 q 165 827 114 754 q 299 945 216 901 q 499 989 381 989 q 699 945 617 989 q 832 827 781 901 q 906 665 883 754 q 929 486 929 576 q 906 307 929 396 q 832 145 883 218 q 699 27 781 72 q 499 -17 617 -17 m 499 196 q 593 223 554 196 q 656 294 632 250 q 691 388 680 338 q 701 486 701 439 q 691 588 701 536 q 658 682 681 639 q 595 751 635 725 q 499 778 556 778 q 401 750 440 778 q 338 679 362 723 q 305 584 315 635 q 294 486 294 533 q 305 386 294 438 q 339 292 315 335 q 402 222 363 249 q 499 196 442 196 m 836 475 l 836 644 q 950 686 910 660 q 989 760 989 711 l 989 972 l 1197 972 l 1197 801 q 1184 682 1197 741 q 1125 576 1171 624 q 1003 500 1072 523 q 836 475 934 477 z "},"Ớ":{"ha":1206,"x_min":67,"x_max":1197,"o":"m 499 -17 q 299 27 381 -17 q 165 145 216 72 q 90 307 114 218 q 67 486 67 396 q 90 665 67 576 q 165 827 114 754 q 299 945 216 901 q 499 989 381 989 q 699 945 617 989 q 832 827 781 901 q 906 665 883 754 q 929 486 929 576 q 906 307 929 396 q 832 145 883 218 q 699 27 781 72 q 499 -17 617 -17 m 499 196 q 593 223 554 196 q 656 294 632 250 q 691 388 680 338 q 701 486 701 439 q 691 588 701 536 q 658 682 681 639 q 595 751 635 725 q 499 778 556 778 q 401 750 440 778 q 338 679 362 723 q 305 584 315 635 q 294 486 294 533 q 305 386 294 438 q 339 292 315 335 q 402 222 363 249 q 499 196 442 196 m 836 475 l 836 644 q 950 686 910 660 q 989 760 989 711 l 989 972 l 1197 972 l 1197 801 q 1184 682 1197 741 q 1125 576 1171 624 q 1003 500 1072 523 q 836 475 934 477 m 328 1063 l 525 1279 l 771 1279 l 524 1063 l 328 1063 z "},"Ợ":{"ha":1206,"x_min":67,"x_max":1197,"o":"m 499 -17 q 299 27 381 -17 q 165 145 216 72 q 90 307 114 218 q 67 486 67 396 q 90 665 67 576 q 165 827 114 754 q 299 945 216 901 q 499 989 381 989 q 699 945 617 989 q 832 827 781 901 q 906 665 883 754 q 929 486 929 576 q 906 307 929 396 q 832 145 883 218 q 699 27 781 72 q 499 -17 617 -17 m 499 196 q 593 223 554 196 q 656 294 632 250 q 691 388 680 338 q 701 486 701 439 q 691 588 701 536 q 658 682 681 639 q 595 751 635 725 q 499 778 556 778 q 401 750 440 778 q 338 679 362 723 q 305 584 315 635 q 294 486 294 533 q 305 386 294 438 q 339 292 315 335 q 402 222 363 249 q 499 196 442 196 m 836 475 l 836 644 q 950 686 910 660 q 989 760 989 711 l 989 972 l 1197 972 l 1197 801 q 1184 682 1197 741 q 1125 576 1171 624 q 1003 500 1072 523 q 836 475 934 477 m 499 -311 q 419 -279 451 -311 q 387 -199 387 -247 q 419 -118 387 -149 q 499 -87 451 -87 q 578 -118 547 -87 q 610 -199 610 -149 q 578 -279 610 -247 q 499 -311 547 -311 z "},"Ờ":{"ha":1206,"x_min":67,"x_max":1197,"o":"m 499 -17 q 299 27 381 -17 q 165 145 216 72 q 90 307 114 218 q 67 486 67 396 q 90 665 67 576 q 165 827 114 754 q 299 945 216 901 q 499 989 381 989 q 699 945 617 989 q 832 827 781 901 q 906 665 883 754 q 929 486 929 576 q 906 307 929 396 q 832 145 883 218 q 699 27 781 72 q 499 -17 617 -17 m 499 196 q 593 223 554 196 q 656 294 632 250 q 691 388 680 338 q 701 486 701 439 q 691 588 701 536 q 658 682 681 639 q 595 751 635 725 q 499 778 556 778 q 401 750 440 778 q 338 679 362 723 q 305 584 315 635 q 294 486 294 533 q 305 386 294 438 q 339 292 315 335 q 402 222 363 249 q 499 196 442 196 m 836 475 l 836 644 q 950 686 910 660 q 989 760 989 711 l 989 972 l 1197 972 l 1197 801 q 1184 682 1197 741 q 1125 576 1171 624 q 1003 500 1072 523 q 836 475 934 477 m 435 1063 l 188 1279 l 433 1279 l 631 1063 l 435 1063 z "},"Ở":{"ha":1206,"x_min":67,"x_max":1197,"o":"m 499 -17 q 299 27 381 -17 q 165 145 216 72 q 90 307 114 218 q 67 486 67 396 q 90 665 67 576 q 165 827 114 754 q 299 945 216 901 q 499 989 381 989 q 699 945 617 989 q 832 827 781 901 q 906 665 883 754 q 929 486 929 576 q 906 307 929 396 q 832 145 883 218 q 699 27 781 72 q 499 -17 617 -17 m 499 196 q 593 223 554 196 q 656 294 632 250 q 691 388 680 338 q 701 486 701 439 q 691 588 701 536 q 658 682 681 639 q 595 751 635 725 q 499 778 556 778 q 401 750 440 778 q 338 679 362 723 q 305 584 315 635 q 294 486 294 533 q 305 386 294 438 q 339 292 315 335 q 402 222 363 249 q 499 196 442 196 m 836 475 l 836 644 q 950 686 910 660 q 989 760 989 711 l 989 972 l 1197 972 l 1197 801 q 1184 682 1197 741 q 1125 576 1171 624 q 1003 500 1072 523 q 836 475 934 477 m 432 1026 q 443 1088 432 1062 q 485 1138 455 1115 q 505 1155 499 1148 q 511 1168 511 1161 q 494 1183 511 1183 q 447 1147 471 1183 l 361 1201 q 415 1274 376 1247 q 503 1301 454 1301 q 598 1267 560 1301 q 636 1178 636 1232 q 621 1114 636 1136 q 590 1076 606 1092 q 569 1050 576 1062 q 563 1026 563 1039 l 432 1026 z "},"Ỡ":{"ha":1206,"x_min":67,"x_max":1197,"o":"m 499 -17 q 299 27 381 -17 q 165 145 216 72 q 90 307 114 218 q 67 486 67 396 q 90 665 67 576 q 165 827 114 754 q 299 945 216 901 q 499 989 381 989 q 699 945 617 989 q 832 827 781 901 q 906 665 883 754 q 929 486 929 576 q 906 307 929 396 q 832 145 883 218 q 699 27 781 72 q 499 -17 617 -17 m 499 196 q 593 223 554 196 q 656 294 632 250 q 691 388 680 338 q 701 486 701 439 q 691 588 701 536 q 658 682 681 639 q 595 751 635 725 q 499 778 556 778 q 401 750 440 778 q 338 679 362 723 q 305 584 315 635 q 294 486 294 533 q 305 386 294 438 q 339 292 315 335 q 402 222 363 249 q 499 196 442 196 m 836 475 l 836 644 q 950 686 910 660 q 989 760 989 711 l 989 972 l 1197 972 l 1197 801 q 1184 682 1197 741 q 1125 576 1171 624 q 1003 500 1072 523 q 836 475 934 477 m 609 1068 q 537 1079 569 1068 q 476 1103 505 1090 q 428 1122 452 1114 q 380 1131 405 1131 q 334 1119 354 1131 q 315 1074 315 1107 l 219 1074 q 235 1175 219 1129 q 288 1247 251 1220 q 390 1274 326 1274 q 460 1264 428 1274 q 519 1241 492 1253 q 568 1221 544 1230 q 619 1213 593 1213 q 665 1224 645 1213 q 684 1268 684 1235 l 778 1268 q 763 1168 778 1214 q 710 1095 747 1123 q 609 1068 673 1068 z "},"Ő":{"ha":996,"x_min":67,"x_max":951,"o":"m 499 -17 q 299 27 381 -17 q 165 145 216 72 q 90 307 114 218 q 67 486 67 396 q 90 665 67 576 q 165 827 114 754 q 299 945 216 901 q 499 989 381 989 q 699 945 617 989 q 832 827 781 901 q 906 665 883 754 q 929 486 929 576 q 906 307 929 396 q 832 145 883 218 q 699 27 781 72 q 499 -17 617 -17 m 499 196 q 593 223 554 196 q 656 294 632 250 q 691 388 680 338 q 701 486 701 439 q 691 588 701 536 q 658 682 681 639 q 595 751 635 725 q 499 778 556 778 q 401 750 440 778 q 338 679 362 723 q 305 584 315 635 q 294 486 294 533 q 305 386 294 438 q 339 292 315 335 q 402 222 363 249 q 499 196 442 196 m 508 1063 l 706 1279 l 951 1279 l 704 1063 l 508 1063 m 193 1063 l 390 1279 l 636 1279 l 389 1063 l 193 1063 z "},"Ȏ":{"ha":996,"x_min":67,"x_max":929,"o":"m 499 -17 q 299 27 381 -17 q 165 145 216 72 q 90 307 114 218 q 67 486 67 396 q 90 665 67 576 q 165 827 114 754 q 299 945 216 901 q 499 989 381 989 q 699 945 617 989 q 832 827 781 901 q 906 665 883 754 q 929 486 929 576 q 906 307 929 396 q 832 145 883 218 q 699 27 781 72 q 499 -17 617 -17 m 499 196 q 593 223 554 196 q 656 294 632 250 q 691 388 680 338 q 701 486 701 439 q 691 588 701 536 q 658 682 681 639 q 595 751 635 725 q 499 778 556 778 q 401 750 440 778 q 338 679 362 723 q 305 584 315 635 q 294 486 294 533 q 305 386 294 438 q 339 292 315 335 q 402 222 363 249 q 499 196 442 196 m 242 1053 q 271 1172 242 1117 q 357 1260 299 1226 q 499 1293 414 1293 q 633 1263 580 1293 q 715 1184 685 1233 q 753 1078 744 1135 q 755 1065 755 1072 q 755 1053 755 1059 l 603 1053 q 603 1065 603 1059 q 601 1078 603 1072 q 570 1128 592 1105 q 499 1151 549 1151 q 435 1135 458 1151 q 403 1097 413 1119 q 394 1053 394 1074 l 242 1053 z "},"Ō":{"ha":996,"x_min":67,"x_max":929,"o":"m 499 -17 q 299 27 381 -17 q 165 145 216 72 q 90 307 114 218 q 67 486 67 396 q 90 665 67 576 q 165 827 114 754 q 299 945 216 901 q 499 989 381 989 q 699 945 617 989 q 832 827 781 901 q 906 665 883 754 q 929 486 929 576 q 906 307 929 396 q 832 145 883 218 q 699 27 781 72 q 499 -17 617 -17 m 499 196 q 593 223 554 196 q 656 294 632 250 q 691 388 680 338 q 701 486 701 439 q 691 588 701 536 q 658 682 681 639 q 595 751 635 725 q 499 778 556 778 q 401 750 440 778 q 338 679 362 723 q 305 584 315 635 q 294 486 294 533 q 305 386 294 438 q 339 292 315 335 q 402 222 363 249 q 499 196 442 196 m 269 1068 l 269 1236 l 728 1236 l 728 1068 l 269 1068 z "},"Ṓ":{"ha":996,"x_min":67,"x_max":929,"o":"m 499 -17 q 299 27 381 -17 q 165 145 216 72 q 90 307 114 218 q 67 486 67 396 q 90 665 67 576 q 165 827 114 754 q 299 945 216 901 q 499 989 381 989 q 699 945 617 989 q 832 827 781 901 q 906 665 883 754 q 929 486 929 576 q 906 307 929 396 q 832 145 883 218 q 699 27 781 72 q 499 -17 617 -17 m 499 196 q 593 223 554 196 q 656 294 632 250 q 691 388 680 338 q 701 486 701 439 q 691 588 701 536 q 658 682 681 639 q 595 751 635 725 q 499 778 556 778 q 401 750 440 778 q 338 679 362 723 q 305 584 315 635 q 294 486 294 533 q 305 386 294 438 q 339 292 315 335 q 402 222 363 249 q 499 196 442 196 m 269 1068 l 269 1236 l 728 1236 l 728 1068 l 269 1068 m 328 1326 l 525 1543 l 771 1543 l 524 1326 l 328 1326 z "},"Ṑ":{"ha":996,"x_min":67,"x_max":929,"o":"m 499 -17 q 299 27 381 -17 q 165 145 216 72 q 90 307 114 218 q 67 486 67 396 q 90 665 67 576 q 165 827 114 754 q 299 945 216 901 q 499 989 381 989 q 699 945 617 989 q 832 827 781 901 q 906 665 883 754 q 929 486 929 576 q 906 307 929 396 q 832 145 883 218 q 699 27 781 72 q 499 -17 617 -17 m 499 196 q 593 223 554 196 q 656 294 632 250 q 691 388 680 338 q 701 486 701 439 q 691 588 701 536 q 658 682 681 639 q 595 751 635 725 q 499 778 556 778 q 401 750 440 778 q 338 679 362 723 q 305 584 315 635 q 294 486 294 533 q 305 386 294 438 q 339 292 315 335 q 402 222 363 249 q 499 196 442 196 m 269 1068 l 269 1236 l 728 1236 l 728 1068 l 269 1068 m 435 1326 l 188 1543 l 433 1543 l 631 1326 l 435 1326 z "},"Ǫ":{"ha":996,"x_min":67,"x_max":929,"o":"m 499 -17 q 299 27 381 -17 q 165 145 216 72 q 90 307 114 218 q 67 486 67 396 q 90 665 67 576 q 165 827 114 754 q 299 945 216 901 q 499 989 381 989 q 699 945 617 989 q 832 827 781 901 q 906 665 883 754 q 929 486 929 576 q 906 307 929 396 q 832 145 883 218 q 699 27 781 72 q 499 -17 617 -17 m 499 196 q 593 223 554 196 q 656 294 632 250 q 691 388 680 338 q 701 486 701 439 q 691 588 701 536 q 658 682 681 639 q 595 751 635 725 q 499 778 556 778 q 401 750 440 778 q 338 679 362 723 q 305 584 315 635 q 294 486 294 533 q 305 386 294 438 q 339 292 315 335 q 402 222 363 249 q 499 196 442 196 m 511 -344 q 384 -300 431 -344 q 336 -189 336 -256 q 387 -67 336 -118 q 526 14 438 -15 l 667 14 q 567 -45 603 -12 q 518 -111 532 -78 q 504 -172 504 -145 q 516 -213 504 -201 q 544 -225 528 -225 q 574 -217 560 -225 q 596 -199 588 -210 l 689 -264 q 629 -316 670 -287 q 511 -344 588 -344 z "},"Ǭ":{"ha":996,"x_min":67,"x_max":929,"o":"m 499 -17 q 299 27 381 -17 q 165 145 216 72 q 90 307 114 218 q 67 486 67 396 q 90 665 67 576 q 165 827 114 754 q 299 945 216 901 q 499 989 381 989 q 699 945 617 989 q 832 827 781 901 q 906 665 883 754 q 929 486 929 576 q 906 307 929 396 q 832 145 883 218 q 699 27 781 72 q 499 -17 617 -17 m 499 196 q 593 223 554 196 q 656 294 632 250 q 691 388 680 338 q 701 486 701 439 q 691 588 701 536 q 658 682 681 639 q 595 751 635 725 q 499 778 556 778 q 401 750 440 778 q 338 679 362 723 q 305 584 315 635 q 294 486 294 533 q 305 386 294 438 q 339 292 315 335 q 402 222 363 249 q 499 196 442 196 m 511 -344 q 384 -300 431 -344 q 336 -189 336 -256 q 387 -67 336 -118 q 526 14 438 -15 l 667 14 q 567 -45 603 -12 q 518 -111 532 -78 q 504 -172 504 -145 q 516 -213 504 -201 q 544 -225 528 -225 q 574 -217 560 -225 q 596 -199 588 -210 l 689 -264 q 629 -316 670 -287 q 511 -344 588 -344 m 269 1068 l 269 1236 l 728 1236 l 728 1068 l 269 1068 z "},"Ɔ":{"ha":922,"x_min":40,"x_max":855,"o":"m 424 -17 q 252 17 327 -17 q 125 111 178 51 q 40 247 72 171 l 240 322 q 290 250 263 278 q 350 209 317 222 q 423 196 383 196 q 518 222 479 196 q 581 291 557 248 q 616 385 606 334 q 627 486 627 436 q 617 586 627 535 q 585 681 608 637 q 522 751 562 724 q 423 778 483 778 q 352 764 385 778 q 293 723 319 749 q 245 660 266 697 l 49 747 q 123 863 74 808 q 248 954 172 919 q 424 989 323 989 q 628 942 545 989 q 761 820 711 896 q 833 657 810 745 q 855 486 855 569 q 832 307 855 396 q 759 145 809 218 q 626 27 708 72 q 424 -17 543 -17 z "},"Ø":{"ha":996,"x_min":61,"x_max":935,"o":"m 61 -17 l 167 143 q 90 306 114 217 q 67 486 67 394 q 90 665 67 576 q 165 827 114 754 q 299 945 216 901 q 499 989 381 989 q 608 977 558 989 q 703 943 658 965 l 733 989 l 935 989 l 831 831 q 906 668 883 757 q 929 486 929 579 q 906 307 929 396 q 832 145 883 218 q 699 27 781 72 q 499 -17 617 -17 q 385 -5 436 -17 q 293 29 335 8 l 263 -17 l 61 -17 m 499 196 q 594 223 555 196 q 656 294 633 250 q 691 388 680 338 q 701 486 701 439 q 699 551 701 519 q 688 618 696 584 l 417 213 q 454 201 433 206 q 499 196 475 196 m 308 356 l 579 760 q 543 773 563 768 q 499 778 523 778 q 401 750 440 778 q 338 679 362 723 q 305 584 315 635 q 294 486 294 533 q 297 422 294 455 q 308 356 300 389 z "},"Ǿ":{"ha":996,"x_min":61,"x_max":935,"o":"m 61 -17 l 167 143 q 90 306 114 217 q 67 486 67 394 q 90 665 67 576 q 165 827 114 754 q 299 945 216 901 q 499 989 381 989 q 608 977 558 989 q 703 943 658 965 l 733 989 l 935 989 l 831 831 q 906 668 883 757 q 929 486 929 579 q 906 307 929 396 q 832 145 883 218 q 699 27 781 72 q 499 -17 617 -17 q 385 -5 436 -17 q 293 29 335 8 l 263 -17 l 61 -17 m 499 196 q 594 223 555 196 q 656 294 633 250 q 691 388 680 338 q 701 486 701 439 q 699 551 701 519 q 688 618 696 584 l 417 213 q 454 201 433 206 q 499 196 475 196 m 308 356 l 579 760 q 543 773 563 768 q 499 778 523 778 q 401 750 440 778 q 338 679 362 723 q 305 584 315 635 q 294 486 294 533 q 297 422 294 455 q 308 356 300 389 m 328 1063 l 525 1279 l 771 1279 l 524 1063 l 328 1063 z "},"Õ":{"ha":996,"x_min":67,"x_max":929,"o":"m 499 -17 q 299 27 381 -17 q 165 145 216 72 q 90 307 114 218 q 67 486 67 396 q 90 665 67 576 q 165 827 114 754 q 299 945 216 901 q 499 989 381 989 q 699 945 617 989 q 832 827 781 901 q 906 665 883 754 q 929 486 929 576 q 906 307 929 396 q 832 145 883 218 q 699 27 781 72 q 499 -17 617 -17 m 499 196 q 593 223 554 196 q 656 294 632 250 q 691 388 680 338 q 701 486 701 439 q 691 588 701 536 q 658 682 681 639 q 595 751 635 725 q 499 778 556 778 q 401 750 440 778 q 338 679 362 723 q 305 584 315 635 q 294 486 294 533 q 305 386 294 438 q 339 292 315 335 q 402 222 363 249 q 499 196 442 196 m 609 1068 q 537 1079 569 1068 q 476 1103 505 1090 q 428 1122 452 1114 q 380 1131 405 1131 q 334 1119 354 1131 q 315 1074 315 1107 l 219 1074 q 235 1175 219 1129 q 288 1247 251 1220 q 390 1274 326 1274 q 460 1264 428 1274 q 519 1241 492 1253 q 568 1221 544 1230 q 619 1213 593 1213 q 665 1224 645 1213 q 684 1268 684 1235 l 778 1268 q 763 1168 778 1214 q 710 1095 747 1123 q 609 1068 673 1068 z "},"Ṍ":{"ha":996,"x_min":67,"x_max":929,"o":"m 499 -17 q 299 27 381 -17 q 165 145 216 72 q 90 307 114 218 q 67 486 67 396 q 90 665 67 576 q 165 827 114 754 q 299 945 216 901 q 499 989 381 989 q 699 945 617 989 q 832 827 781 901 q 906 665 883 754 q 929 486 929 576 q 906 307 929 396 q 832 145 883 218 q 699 27 781 72 q 499 -17 617 -17 m 499 196 q 593 223 554 196 q 656 294 632 250 q 691 388 680 338 q 701 486 701 439 q 691 588 701 536 q 658 682 681 639 q 595 751 635 725 q 499 778 556 778 q 401 750 440 778 q 338 679 362 723 q 305 584 315 635 q 294 486 294 533 q 305 386 294 438 q 339 292 315 335 q 402 222 363 249 q 499 196 442 196 m 609 1068 q 537 1079 569 1068 q 476 1103 505 1090 q 428 1122 452 1114 q 380 1131 405 1131 q 334 1119 354 1131 q 315 1074 315 1107 l 219 1074 q 235 1175 219 1129 q 288 1247 251 1220 q 390 1274 326 1274 q 460 1264 428 1274 q 519 1241 492 1253 q 568 1221 544 1230 q 619 1213 593 1213 q 665 1224 645 1213 q 684 1268 684 1235 l 778 1268 q 763 1168 778 1214 q 710 1095 747 1123 q 609 1068 673 1068 m 328 1364 l 525 1581 l 771 1581 l 524 1364 l 328 1364 z "},"Ȭ":{"ha":996,"x_min":67,"x_max":929,"o":"m 499 -17 q 299 27 381 -17 q 165 145 216 72 q 90 307 114 218 q 67 486 67 396 q 90 665 67 576 q 165 827 114 754 q 299 945 216 901 q 499 989 381 989 q 699 945 617 989 q 832 827 781 901 q 906 665 883 754 q 929 486 929 576 q 906 307 929 396 q 832 145 883 218 q 699 27 781 72 q 499 -17 617 -17 m 499 196 q 593 223 554 196 q 656 294 632 250 q 691 388 680 338 q 701 486 701 439 q 691 588 701 536 q 658 682 681 639 q 595 751 635 725 q 499 778 556 778 q 401 750 440 778 q 338 679 362 723 q 305 584 315 635 q 294 486 294 533 q 305 386 294 438 q 339 292 315 335 q 402 222 363 249 q 499 196 442 196 m 609 1068 q 537 1079 569 1068 q 476 1103 505 1090 q 428 1122 452 1114 q 380 1131 405 1131 q 334 1119 354 1131 q 315 1074 315 1107 l 219 1074 q 235 1175 219 1129 q 288 1247 251 1220 q 390 1274 326 1274 q 460 1264 428 1274 q 519 1241 492 1253 q 568 1221 544 1230 q 619 1213 593 1213 q 665 1224 645 1213 q 684 1268 684 1235 l 778 1268 q 763 1168 778 1214 q 710 1095 747 1123 q 609 1068 673 1068 m 269 1369 l 269 1538 l 728 1538 l 728 1369 l 269 1369 z "},"Œ":{"ha":1399,"x_min":67,"x_max":1347,"o":"m 500 -17 q 299 27 382 -17 q 165 145 217 72 q 90 307 114 218 q 67 486 67 396 q 91 671 67 581 q 168 832 116 760 q 302 947 219 904 q 500 989 385 989 q 580 982 542 989 q 647 965 617 976 l 647 972 l 1319 972 l 1319 764 l 868 764 l 868 606 l 1099 606 l 1099 397 l 868 397 l 868 210 l 1347 210 l 1347 0 l 647 0 l 647 7 q 565 -12 597 -8 q 500 -17 533 -17 m 500 196 q 584 215 546 196 q 647 268 622 234 l 647 708 q 585 759 620 741 q 500 778 550 778 q 402 751 442 778 q 339 681 363 724 q 305 586 315 637 q 294 486 294 535 q 305 385 294 436 q 339 291 315 334 q 403 222 363 248 q 500 196 442 196 z "},"P":{"ha":894,"x_min":101,"x_max":878,"o":"m 101 0 l 101 972 l 538 972 q 738 926 663 972 q 845 808 813 880 q 878 658 878 736 q 859 548 878 603 q 799 447 840 493 q 693 373 758 401 q 538 344 628 344 l 321 344 l 321 0 l 101 0 m 321 551 l 546 551 q 606 567 583 551 q 640 608 629 583 q 650 658 650 633 q 641 706 650 681 q 608 748 631 731 q 546 765 585 765 l 321 765 l 321 551 z "},"Ƥ":{"ha":1175,"x_min":-10,"x_max":1158,"o":"m 195 567 l -10 672 q 41 833 3 766 q 152 936 79 901 q 345 972 226 972 l 588 972 l 588 767 l 357 767 q 240 719 273 767 q 195 567 207 671 m 382 0 l 382 972 l 818 972 q 1018 926 944 972 q 1126 808 1093 880 q 1158 658 1158 736 q 1139 548 1158 603 q 1080 447 1120 493 q 974 373 1039 401 q 818 344 909 344 l 601 344 l 601 0 l 382 0 m 601 551 l 826 551 q 887 567 864 551 q 920 608 910 583 q 931 658 931 633 q 921 706 931 681 q 889 748 912 731 q 826 765 866 765 l 601 765 l 601 551 z "},"Þ":{"ha":908,"x_min":101,"x_max":878,"o":"m 101 0 l 101 972 l 321 972 l 321 808 l 540 808 q 739 762 665 808 q 845 644 813 716 q 878 494 878 572 q 859 384 878 440 q 800 283 840 329 q 695 209 759 237 q 540 181 631 181 l 321 181 l 321 0 l 101 0 m 321 388 l 546 388 q 606 404 583 388 q 640 445 629 420 q 650 494 650 469 q 641 542 650 517 q 608 584 631 567 q 546 601 585 601 l 321 601 l 321 388 z "},"Q":{"ha":997,"x_min":67,"x_max":931,"o":"m 711 -115 l 632 0 q 570 -12 602 -7 q 500 -17 538 -17 q 299 27 382 -17 q 165 145 217 72 q 90 307 114 218 q 67 486 67 396 q 90 665 67 576 q 165 827 114 754 q 299 945 217 901 q 500 989 382 989 q 700 945 618 989 q 833 827 782 901 q 907 665 884 754 q 931 486 931 576 q 917 345 931 415 q 873 212 903 275 q 796 99 843 149 l 871 -11 l 711 -115 m 499 196 q 501 196 500 196 q 503 196 502 196 l 424 311 l 586 415 l 664 299 q 694 390 685 338 q 703 486 703 442 q 693 588 703 536 q 659 682 683 639 q 597 751 636 725 q 500 778 558 778 q 401 750 441 778 q 338 679 362 723 q 305 584 315 635 q 294 486 294 533 q 305 386 294 438 q 339 292 315 335 q 402 222 363 249 q 499 196 442 196 z "},"R":{"ha":981,"x_min":101,"x_max":925,"o":"m 101 0 l 101 972 l 583 972 q 781 929 708 972 q 885 813 853 885 q 917 656 917 741 q 897 545 917 602 q 838 442 876 489 q 744 371 799 395 l 925 0 l 679 0 l 506 336 l 321 336 l 321 0 l 101 0 m 321 543 l 586 543 q 648 559 625 543 q 680 600 670 574 q 689 656 689 626 q 680 708 689 683 q 648 749 671 733 q 586 765 626 765 l 321 765 l 321 543 z "},"Ŕ":{"ha":981,"x_min":101,"x_max":925,"o":"m 101 0 l 101 972 l 583 972 q 781 929 708 972 q 885 813 853 885 q 917 656 917 741 q 897 545 917 602 q 838 442 876 489 q 744 371 799 395 l 925 0 l 679 0 l 506 336 l 321 336 l 321 0 l 101 0 m 321 543 l 586 543 q 648 559 625 543 q 680 600 670 574 q 689 656 689 626 q 680 708 689 683 q 648 749 671 733 q 586 765 626 765 l 321 765 l 321 543 m 311 1063 l 508 1279 l 754 1279 l 507 1063 l 311 1063 z "},"Ř":{"ha":981,"x_min":101,"x_max":925,"o":"m 101 0 l 101 972 l 583 972 q 781 929 708 972 q 885 813 853 885 q 917 656 917 741 q 897 545 917 602 q 838 442 876 489 q 744 371 799 395 l 925 0 l 679 0 l 506 336 l 321 336 l 321 0 l 101 0 m 321 543 l 586 543 q 648 559 625 543 q 680 600 670 574 q 689 656 689 626 q 680 708 689 683 q 648 749 671 733 q 586 765 626 765 l 321 765 l 321 543 m 383 1063 l 188 1279 l 375 1279 l 482 1194 l 588 1279 l 775 1279 l 578 1063 l 383 1063 z "},"Ŗ":{"ha":981,"x_min":101,"x_max":925,"o":"m 101 0 l 101 972 l 583 972 q 781 929 708 972 q 885 813 853 885 q 917 656 917 741 q 897 545 917 602 q 838 442 876 489 q 744 371 799 395 l 925 0 l 679 0 l 506 336 l 321 336 l 321 0 l 101 0 m 321 543 l 586 543 q 648 559 625 543 q 680 600 670 574 q 689 656 689 626 q 680 708 689 683 q 648 749 671 733 q 586 765 626 765 l 321 765 l 321 543 m 468 -425 l 394 -378 q 440 -323 424 -347 q 464 -271 456 -300 q 402 -241 430 -267 q 374 -167 374 -215 q 406 -88 374 -121 q 492 -56 438 -56 q 573 -87 541 -56 q 604 -179 604 -119 q 567 -308 604 -244 q 468 -425 531 -373 z "},"Ȑ":{"ha":981,"x_min":-19,"x_max":925,"o":"m 101 0 l 101 972 l 583 972 q 781 929 708 972 q 885 813 853 885 q 917 656 917 741 q 897 545 917 602 q 838 442 876 489 q 744 371 799 395 l 925 0 l 679 0 l 506 336 l 321 336 l 321 0 l 101 0 m 321 543 l 586 543 q 648 559 625 543 q 680 600 670 574 q 689 656 689 626 q 680 708 689 683 q 648 749 671 733 q 586 765 626 765 l 321 765 l 321 543 m 228 1063 l -19 1279 l 226 1279 l 424 1063 l 228 1063 m 544 1063 l 297 1279 l 543 1279 l 740 1063 l 544 1063 z "},"Ȓ":{"ha":981,"x_min":101,"x_max":925,"o":"m 101 0 l 101 972 l 583 972 q 781 929 708 972 q 885 813 853 885 q 917 656 917 741 q 897 545 917 602 q 838 442 876 489 q 744 371 799 395 l 925 0 l 679 0 l 506 336 l 321 336 l 321 0 l 101 0 m 321 543 l 586 543 q 648 559 625 543 q 680 600 670 574 q 689 656 689 626 q 680 708 689 683 q 648 749 671 733 q 586 765 626 765 l 321 765 l 321 543 m 226 1053 q 254 1172 226 1117 q 340 1260 283 1226 q 483 1293 397 1293 q 616 1263 563 1293 q 698 1184 669 1233 q 737 1078 727 1135 q 738 1065 738 1072 q 738 1053 738 1059 l 587 1053 q 586 1065 587 1059 q 584 1078 586 1072 q 554 1128 575 1105 q 483 1151 533 1151 q 419 1135 442 1151 q 386 1097 396 1119 q 377 1053 377 1074 l 226 1053 z "},"Ɍ":{"ha":1015,"x_min":6,"x_max":960,"o":"m 6 336 l 6 543 l 424 543 l 424 336 l 6 336 m 136 0 l 136 972 l 618 972 q 815 929 742 972 q 920 813 888 885 q 951 656 951 741 q 931 545 951 602 q 873 442 911 489 q 779 371 834 395 l 960 0 l 714 0 l 540 336 l 356 336 l 356 0 l 136 0 m 356 543 l 621 543 q 682 559 660 543 q 714 600 705 574 q 724 656 724 626 q 715 708 724 683 q 683 749 706 733 q 621 765 660 765 l 356 765 l 356 543 z "},"Ɽ":{"ha":981,"x_min":101,"x_max":925,"o":"m 415 -347 q 183 -238 265 -316 q 101 -7 101 -160 l 101 972 l 583 972 q 781 929 708 972 q 885 813 853 885 q 917 656 917 741 q 897 545 917 602 q 838 442 876 489 q 744 371 799 395 l 925 0 l 679 0 l 506 336 l 321 336 l 321 -6 q 341 -91 321 -60 q 405 -141 360 -122 q 524 -178 449 -160 l 415 -347 m 321 543 l 586 543 q 648 559 625 543 q 680 600 670 574 q 689 656 689 626 q 680 708 689 683 q 648 749 671 733 q 586 765 626 765 l 321 765 l 321 543 z "},"S":{"ha":865,"x_min":46,"x_max":807,"o":"m 440 -17 q 267 18 345 -17 q 132 118 189 53 q 46 274 76 183 l 242 347 q 328 234 274 278 q 446 190 381 190 q 550 214 510 190 q 589 285 589 238 q 566 335 589 315 q 503 371 544 356 q 408 404 463 387 q 297 444 353 422 q 192 498 240 465 q 115 583 144 531 q 86 711 86 634 q 126 850 86 787 q 243 951 167 913 q 429 989 320 989 q 590 956 519 989 q 706 867 660 923 q 771 740 752 810 l 576 676 q 520 752 556 722 q 418 782 484 782 q 334 763 363 782 q 304 707 304 744 q 324 668 304 685 q 381 638 344 652 q 465 608 417 624 q 588 564 527 588 q 698 504 649 540 q 777 415 748 469 q 807 283 807 362 q 758 121 807 188 q 626 19 709 54 q 440 -17 543 -17 z "},"Ś":{"ha":865,"x_min":46,"x_max":807,"o":"m 440 -17 q 267 18 345 -17 q 132 118 189 53 q 46 274 76 183 l 242 347 q 328 234 274 278 q 446 190 381 190 q 550 214 510 190 q 589 285 589 238 q 566 335 589 315 q 503 371 544 356 q 408 404 463 387 q 297 444 353 422 q 192 498 240 465 q 115 583 144 531 q 86 711 86 634 q 126 850 86 787 q 243 951 167 913 q 429 989 320 989 q 590 956 519 989 q 706 867 660 923 q 771 740 752 810 l 576 676 q 520 752 556 722 q 418 782 484 782 q 334 763 363 782 q 304 707 304 744 q 324 668 304 685 q 381 638 344 652 q 465 608 417 624 q 588 564 527 588 q 698 504 649 540 q 777 415 748 469 q 807 283 807 362 q 758 121 807 188 q 626 19 709 54 q 440 -17 543 -17 m 260 1063 l 457 1279 l 703 1279 l 456 1063 l 260 1063 z "},"Ꞌ":{"ha":422,"x_min":101,"x_max":321,"o":"m 146 268 l 101 671 l 101 972 l 321 972 l 321 671 l 276 268 l 146 268 z "},"Š":{"ha":865,"x_min":46,"x_max":807,"o":"m 440 -17 q 267 18 345 -17 q 132 118 189 53 q 46 274 76 183 l 242 347 q 328 234 274 278 q 446 190 381 190 q 550 214 510 190 q 589 285 589 238 q 566 335 589 315 q 503 371 544 356 q 408 404 463 387 q 297 444 353 422 q 192 498 240 465 q 115 583 144 531 q 86 711 86 634 q 126 850 86 787 q 243 951 167 913 q 429 989 320 989 q 590 956 519 989 q 706 867 660 923 q 771 740 752 810 l 576 676 q 520 752 556 722 q 418 782 484 782 q 334 763 363 782 q 304 707 304 744 q 324 668 304 685 q 381 638 344 652 q 465 608 417 624 q 588 564 527 588 q 698 504 649 540 q 777 415 748 469 q 807 283 807 362 q 758 121 807 188 q 626 19 709 54 q 440 -17 543 -17 m 332 1063 l 136 1279 l 324 1279 l 431 1194 l 536 1279 l 724 1279 l 526 1063 l 332 1063 z "},"Ş":{"ha":865,"x_min":46,"x_max":807,"o":"m 440 -17 q 267 18 345 -17 q 132 118 189 53 q 46 274 76 183 l 242 347 q 328 234 274 278 q 446 190 381 190 q 550 214 510 190 q 589 285 589 238 q 566 335 589 315 q 503 371 544 356 q 408 404 463 387 q 297 444 353 422 q 192 498 240 465 q 115 583 144 531 q 86 711 86 634 q 126 850 86 787 q 243 951 167 913 q 429 989 320 989 q 590 956 519 989 q 706 867 660 923 q 771 740 752 810 l 576 676 q 520 752 556 722 q 418 782 484 782 q 334 763 363 782 q 304 707 304 744 q 324 668 304 685 q 381 638 344 652 q 465 608 417 624 q 588 564 527 588 q 698 504 649 540 q 777 415 748 469 q 807 283 807 362 q 758 121 807 188 q 626 19 709 54 q 440 -17 543 -17 m 424 -344 q 320 -323 359 -344 q 260 -269 281 -301 l 343 -206 q 367 -227 351 -218 q 403 -236 383 -236 q 451 -224 435 -236 q 467 -187 467 -211 q 452 -150 467 -163 q 404 -137 437 -137 q 372 -144 388 -137 q 342 -161 356 -151 l 296 -107 l 382 0 l 496 0 l 463 -60 q 583 -95 544 -60 q 622 -189 622 -131 q 572 -300 622 -256 q 424 -344 522 -344 z "},"Ŝ":{"ha":865,"x_min":46,"x_max":807,"o":"m 440 -17 q 267 18 345 -17 q 132 118 189 53 q 46 274 76 183 l 242 347 q 328 234 274 278 q 446 190 381 190 q 550 214 510 190 q 589 285 589 238 q 566 335 589 315 q 503 371 544 356 q 408 404 463 387 q 297 444 353 422 q 192 498 240 465 q 115 583 144 531 q 86 711 86 634 q 126 850 86 787 q 243 951 167 913 q 429 989 320 989 q 590 956 519 989 q 706 867 660 923 q 771 740 752 810 l 576 676 q 520 752 556 722 q 418 782 484 782 q 334 763 363 782 q 304 707 304 744 q 324 668 304 685 q 381 638 344 652 q 465 608 417 624 q 588 564 527 588 q 698 504 649 540 q 777 415 748 469 q 807 283 807 362 q 758 121 807 188 q 626 19 709 54 q 440 -17 543 -17 m 138 1063 l 335 1279 l 530 1279 l 726 1063 l 538 1063 l 433 1149 l 326 1063 l 138 1063 z "},"Ș":{"ha":865,"x_min":46,"x_max":807,"o":"m 440 -17 q 267 18 345 -17 q 132 118 189 53 q 46 274 76 183 l 242 347 q 328 234 274 278 q 446 190 381 190 q 550 214 510 190 q 589 285 589 238 q 566 335 589 315 q 503 371 544 356 q 408 404 463 387 q 297 444 353 422 q 192 498 240 465 q 115 583 144 531 q 86 711 86 634 q 126 850 86 787 q 243 951 167 913 q 429 989 320 989 q 590 956 519 989 q 706 867 660 923 q 771 740 752 810 l 576 676 q 520 752 556 722 q 418 782 484 782 q 334 763 363 782 q 304 707 304 744 q 324 668 304 685 q 381 638 344 652 q 465 608 417 624 q 588 564 527 588 q 698 504 649 540 q 777 415 748 469 q 807 283 807 362 q 758 121 807 188 q 626 19 709 54 q 440 -17 543 -17 m 417 -425 l 343 -378 q 388 -323 372 -347 q 413 -271 404 -300 q 350 -241 378 -267 q 322 -167 322 -215 q 354 -88 322 -121 q 440 -56 386 -56 q 521 -87 490 -56 q 553 -179 553 -119 q 516 -308 553 -244 q 417 -425 479 -373 z "},"Ṣ":{"ha":865,"x_min":46,"x_max":807,"o":"m 440 -17 q 267 18 345 -17 q 132 118 189 53 q 46 274 76 183 l 242 347 q 328 234 274 278 q 446 190 381 190 q 550 214 510 190 q 589 285 589 238 q 566 335 589 315 q 503 371 544 356 q 408 404 463 387 q 297 444 353 422 q 192 498 240 465 q 115 583 144 531 q 86 711 86 634 q 126 850 86 787 q 243 951 167 913 q 429 989 320 989 q 590 956 519 989 q 706 867 660 923 q 771 740 752 810 l 576 676 q 520 752 556 722 q 418 782 484 782 q 334 763 363 782 q 304 707 304 744 q 324 668 304 685 q 381 638 344 652 q 465 608 417 624 q 588 564 527 588 q 698 504 649 540 q 777 415 748 469 q 807 283 807 362 q 758 121 807 188 q 626 19 709 54 q 440 -17 543 -17 m 441 -311 q 360 -279 392 -311 q 328 -199 328 -247 q 360 -118 328 -149 q 441 -87 392 -87 q 520 -118 488 -87 q 552 -199 552 -149 q 520 -279 552 -247 q 441 -311 488 -311 z "},"ẞ":{"ha":1054,"x_min":101,"x_max":996,"o":"m 101 0 l 101 972 l 857 972 l 857 799 l 657 764 l 321 764 l 321 0 l 101 0 m 658 -17 q 502 11 571 -17 q 382 88 434 39 l 514 253 q 582 208 544 225 q 664 190 620 190 q 747 217 715 190 q 778 296 778 244 q 764 345 778 324 q 726 385 750 366 q 669 425 701 403 q 592 484 628 453 q 533 556 556 515 q 510 653 510 597 q 546 753 510 710 q 637 824 582 795 q 751 868 692 852 q 857 889 810 884 l 857 792 q 788 775 817 789 q 743 739 759 760 q 728 693 728 717 q 752 630 728 658 q 821 574 777 603 q 903 511 863 546 q 969 426 943 477 q 996 294 996 374 q 952 126 996 196 q 832 20 908 57 q 658 -17 756 -17 z "},"Ə":{"ha":989,"x_min":67,"x_max":922,"o":"m 493 -17 q 269 41 365 -17 q 120 208 173 99 q 67 468 67 317 q 67 525 67 495 q 71 588 68 556 l 685 588 q 649 685 676 642 q 579 752 622 728 q 482 776 537 776 q 372 752 421 776 q 271 681 323 728 l 139 829 q 294 947 206 906 q 500 989 383 989 q 728 925 633 989 q 872 747 822 860 q 922 485 922 633 q 868 214 922 326 q 718 42 815 101 q 493 -17 622 -17 m 483 196 q 577 218 535 196 q 646 281 619 240 q 683 379 674 322 l 299 379 q 326 284 303 326 q 389 219 349 243 q 483 196 428 196 z "},"T":{"ha":854,"x_min":38,"x_max":817,"o":"m 317 0 l 317 761 l 38 761 l 38 972 l 817 972 l 817 761 l 536 761 l 536 0 l 317 0 z "},"Ŧ":{"ha":854,"x_min":38,"x_max":817,"o":"m 167 342 l 167 547 l 688 547 l 688 342 l 167 342 m 317 0 l 317 761 l 38 761 l 38 972 l 817 972 l 817 761 l 536 761 l 536 0 l 317 0 z "},"Ť":{"ha":854,"x_min":38,"x_max":817,"o":"m 317 0 l 317 761 l 38 761 l 38 972 l 817 972 l 817 761 l 536 761 l 536 0 l 317 0 m 329 1063 l 133 1279 l 321 1279 l 428 1194 l 533 1279 l 721 1279 l 524 1063 l 329 1063 z "},"Ţ":{"ha":854,"x_min":38,"x_max":817,"o":"m 317 0 l 317 761 l 38 761 l 38 972 l 817 972 l 817 761 l 536 761 l 536 0 l 317 0 m 411 -344 q 307 -323 347 -344 q 247 -269 268 -301 l 331 -206 q 355 -227 339 -218 q 390 -236 371 -236 q 439 -224 423 -236 q 454 -187 454 -211 q 439 -150 454 -163 q 392 -137 424 -137 q 359 -144 375 -137 q 329 -161 344 -151 l 283 -107 l 369 0 l 483 0 l 450 -60 q 570 -95 531 -60 q 610 -189 610 -131 q 559 -300 610 -256 q 411 -344 509 -344 z "},"Ṱ":{"ha":854,"x_min":38,"x_max":817,"o":"m 317 0 l 317 761 l 38 761 l 38 972 l 817 972 l 817 761 l 536 761 l 536 0 l 317 0 m 133 -318 l 331 -101 l 525 -101 l 721 -318 l 533 -318 l 428 -232 l 321 -318 l 133 -318 z "},"Ț":{"ha":854,"x_min":38,"x_max":817,"o":"m 317 0 l 317 761 l 38 761 l 38 972 l 817 972 l 817 761 l 536 761 l 536 0 l 317 0 m 404 -425 l 331 -378 q 376 -323 360 -347 q 400 -271 392 -300 q 338 -241 366 -267 q 310 -167 310 -215 q 342 -88 310 -121 q 428 -56 374 -56 q 509 -87 477 -56 q 540 -179 540 -119 q 503 -308 540 -244 q 404 -425 467 -373 z "},"Ṭ":{"ha":854,"x_min":38,"x_max":817,"o":"m 317 0 l 317 761 l 38 761 l 38 972 l 817 972 l 817 761 l 536 761 l 536 0 l 317 0 m 428 -311 q 348 -279 380 -311 q 316 -199 316 -247 q 348 -118 316 -149 q 428 -87 380 -87 q 508 -118 476 -87 q 540 -199 540 -149 q 508 -279 540 -247 q 428 -311 476 -311 z "},"Ƭ":{"ha":1060,"x_min":-10,"x_max":1022,"o":"m 522 0 l 522 761 l 357 761 q 240 715 273 761 q 195 567 207 669 l -10 672 q 41 833 3 766 q 152 936 79 901 q 345 972 226 972 l 1022 972 l 1022 761 l 742 761 l 742 0 l 522 0 z "},"Ṯ":{"ha":854,"x_min":38,"x_max":817,"o":"m 317 0 l 317 761 l 38 761 l 38 972 l 817 972 l 817 761 l 536 761 l 536 0 l 317 0 m 199 -258 l 199 -90 l 657 -90 l 657 -258 l 199 -258 z "},"Ʈ":{"ha":854,"x_min":38,"x_max":817,"o":"m 631 -347 q 398 -238 480 -316 q 317 -7 317 -160 l 317 761 l 38 761 l 38 972 l 817 972 l 817 761 l 536 761 l 536 -6 q 556 -91 536 -60 q 620 -141 576 -122 q 739 -178 665 -160 l 631 -347 z "},"U":{"ha":1010,"x_min":94,"x_max":915,"o":"m 506 -17 q 289 30 381 -17 q 145 163 196 76 q 94 375 94 251 l 94 972 l 314 972 l 314 375 q 360 235 314 274 q 506 196 407 196 q 610 212 568 196 q 674 268 653 228 q 696 375 696 307 l 696 972 l 915 972 l 915 375 q 880 191 915 266 q 785 70 844 116 q 653 4 726 24 q 506 -17 580 -17 z "},"Ú":{"ha":1010,"x_min":94,"x_max":915,"o":"m 506 -17 q 289 30 381 -17 q 145 163 196 76 q 94 375 94 251 l 94 972 l 314 972 l 314 375 q 360 235 314 274 q 506 196 407 196 q 610 212 568 196 q 674 268 653 228 q 696 375 696 307 l 696 972 l 915 972 l 915 375 q 880 191 915 266 q 785 70 844 116 q 653 4 726 24 q 506 -17 580 -17 m 333 1063 l 531 1279 l 776 1279 l 529 1063 l 333 1063 z "},"Ʉ":{"ha":1181,"x_min":28,"x_max":1153,"o":"m 592 -17 q 375 30 468 -17 q 232 163 283 76 q 181 375 181 251 l 181 397 l 28 397 l 28 602 l 181 602 l 181 972 l 401 972 l 401 602 l 783 602 l 783 972 l 1002 972 l 1002 602 l 1153 602 l 1153 397 l 1002 397 l 1002 375 q 967 191 1002 266 q 872 70 931 116 q 740 4 813 24 q 592 -17 667 -17 m 592 196 q 697 212 655 196 q 761 268 740 228 q 783 375 783 307 l 783 397 l 401 397 l 401 375 q 447 235 401 274 q 592 196 494 196 z "},"Ŭ":{"ha":1010,"x_min":94,"x_max":915,"o":"m 506 -17 q 289 30 381 -17 q 145 163 196 76 q 94 375 94 251 l 94 972 l 314 972 l 314 375 q 360 235 314 274 q 506 196 407 196 q 610 212 568 196 q 674 268 653 228 q 696 375 696 307 l 696 972 l 915 972 l 915 375 q 880 191 915 266 q 785 70 844 116 q 653 4 726 24 q 506 -17 580 -17 m 503 1053 q 361 1086 418 1053 q 276 1174 305 1119 q 248 1293 248 1229 l 399 1293 q 407 1249 399 1272 q 437 1210 415 1226 q 503 1194 459 1194 q 570 1210 548 1194 q 601 1249 593 1226 q 609 1293 609 1272 l 760 1293 q 732 1174 760 1229 q 646 1086 703 1119 q 503 1053 589 1053 z "},"Ǔ":{"ha":1010,"x_min":94,"x_max":915,"o":"m 506 -17 q 289 30 381 -17 q 145 163 196 76 q 94 375 94 251 l 94 972 l 314 972 l 314 375 q 360 235 314 274 q 506 196 407 196 q 610 212 568 196 q 674 268 653 228 q 696 375 696 307 l 696 972 l 915 972 l 915 375 q 880 191 915 266 q 785 70 844 116 q 653 4 726 24 q 506 -17 580 -17 m 406 1063 l 210 1279 l 397 1279 l 504 1194 l 610 1279 l 797 1279 l 600 1063 l 406 1063 z "},"Û":{"ha":1010,"x_min":94,"x_max":915,"o":"m 506 -17 q 289 30 381 -17 q 145 163 196 76 q 94 375 94 251 l 94 972 l 314 972 l 314 375 q 360 235 314 274 q 506 196 407 196 q 610 212 568 196 q 674 268 653 228 q 696 375 696 307 l 696 972 l 915 972 l 915 375 q 880 191 915 266 q 785 70 844 116 q 653 4 726 24 q 506 -17 580 -17 m 212 1063 l 409 1279 l 603 1279 l 799 1063 l 612 1063 l 506 1149 l 399 1063 l 212 1063 z "},"Ȕ":{"ha":1010,"x_min":3,"x_max":915,"o":"m 506 -17 q 289 30 381 -17 q 145 163 196 76 q 94 375 94 251 l 94 972 l 314 972 l 314 375 q 360 235 314 274 q 506 196 407 196 q 610 212 568 196 q 674 268 653 228 q 696 375 696 307 l 696 972 l 915 972 l 915 375 q 880 191 915 266 q 785 70 844 116 q 653 4 726 24 q 506 -17 580 -17 m 250 1063 l 3 1279 l 249 1279 l 446 1063 l 250 1063 m 567 1063 l 319 1279 l 565 1279 l 763 1063 l 567 1063 z "},"Ü":{"ha":1010,"x_min":94,"x_max":915,"o":"m 506 -17 q 289 30 381 -17 q 145 163 196 76 q 94 375 94 251 l 94 972 l 314 972 l 314 375 q 360 235 314 274 q 506 196 407 196 q 610 212 568 196 q 674 268 653 228 q 696 375 696 307 l 696 972 l 915 972 l 915 375 q 880 191 915 266 q 785 70 844 116 q 653 4 726 24 q 506 -17 580 -17 m 650 1060 q 569 1091 600 1060 q 538 1171 538 1122 q 569 1250 538 1219 q 650 1282 600 1282 q 729 1250 697 1282 q 761 1171 761 1219 q 729 1091 761 1122 q 650 1060 697 1060 m 357 1060 q 277 1091 308 1060 q 246 1171 246 1122 q 277 1250 246 1219 q 357 1282 308 1282 q 437 1250 405 1282 q 469 1171 469 1219 q 437 1091 469 1122 q 357 1060 405 1060 z "},"Ǘ":{"ha":1010,"x_min":94,"x_max":915,"o":"m 506 -17 q 289 30 381 -17 q 145 163 196 76 q 94 375 94 251 l 94 972 l 314 972 l 314 375 q 360 235 314 274 q 506 196 407 196 q 610 212 568 196 q 674 268 653 228 q 696 375 696 307 l 696 972 l 915 972 l 915 375 q 880 191 915 266 q 785 70 844 116 q 653 4 726 24 q 506 -17 580 -17 m 642 1042 q 560 1073 592 1042 q 529 1153 529 1104 q 560 1233 529 1201 q 642 1265 592 1265 q 721 1233 689 1265 q 753 1153 753 1201 q 721 1073 753 1104 q 642 1042 689 1042 m 367 1042 q 287 1073 318 1042 q 256 1153 256 1104 q 287 1233 256 1201 q 367 1265 318 1265 q 447 1233 415 1265 q 479 1153 479 1201 q 447 1073 479 1104 q 367 1042 415 1042 m 333 1356 l 531 1572 l 776 1572 l 529 1356 l 333 1356 z "},"Ǚ":{"ha":1010,"x_min":94,"x_max":915,"o":"m 506 -17 q 289 30 381 -17 q 145 163 196 76 q 94 375 94 251 l 94 972 l 314 972 l 314 375 q 360 235 314 274 q 506 196 407 196 q 610 212 568 196 q 674 268 653 228 q 696 375 696 307 l 696 972 l 915 972 l 915 375 q 880 191 915 266 q 785 70 844 116 q 653 4 726 24 q 506 -17 580 -17 m 642 1042 q 560 1073 592 1042 q 529 1153 529 1104 q 560 1233 529 1201 q 642 1265 592 1265 q 721 1233 689 1265 q 753 1153 753 1201 q 721 1073 753 1104 q 642 1042 689 1042 m 367 1042 q 287 1073 318 1042 q 256 1153 256 1104 q 287 1233 256 1201 q 367 1265 318 1265 q 447 1233 415 1265 q 479 1153 479 1201 q 447 1073 479 1104 q 367 1042 415 1042 m 406 1356 l 210 1572 l 398 1572 l 505 1488 l 610 1572 l 798 1572 l 601 1356 l 406 1356 z "},"Ǜ":{"ha":1010,"x_min":94,"x_max":915,"o":"m 506 -17 q 289 30 381 -17 q 145 163 196 76 q 94 375 94 251 l 94 972 l 314 972 l 314 375 q 360 235 314 274 q 506 196 407 196 q 610 212 568 196 q 674 268 653 228 q 696 375 696 307 l 696 972 l 915 972 l 915 375 q 880 191 915 266 q 785 70 844 116 q 653 4 726 24 q 506 -17 580 -17 m 642 1042 q 560 1073 592 1042 q 529 1153 529 1104 q 560 1233 529 1201 q 642 1265 592 1265 q 721 1233 689 1265 q 753 1153 753 1201 q 721 1073 753 1104 q 642 1042 689 1042 m 367 1042 q 287 1073 318 1042 q 256 1153 256 1104 q 287 1233 256 1201 q 367 1265 318 1265 q 447 1233 415 1265 q 479 1153 479 1201 q 447 1073 479 1104 q 367 1042 415 1042 m 440 1356 l 193 1572 l 439 1572 l 636 1356 l 440 1356 z "},"Ǖ":{"ha":1010,"x_min":94,"x_max":915,"o":"m 506 -17 q 289 30 381 -17 q 145 163 196 76 q 94 375 94 251 l 94 972 l 314 972 l 314 375 q 360 235 314 274 q 506 196 407 196 q 610 212 568 196 q 674 268 653 228 q 696 375 696 307 l 696 972 l 915 972 l 915 375 q 880 191 915 266 q 785 70 844 116 q 653 4 726 24 q 506 -17 580 -17 m 642 1042 q 560 1073 592 1042 q 529 1153 529 1104 q 560 1233 529 1201 q 642 1265 592 1265 q 721 1233 689 1265 q 753 1153 753 1201 q 721 1073 753 1104 q 642 1042 689 1042 m 367 1042 q 287 1073 318 1042 q 256 1153 256 1104 q 287 1233 256 1201 q 367 1265 318 1265 q 447 1233 415 1265 q 479 1153 479 1201 q 447 1073 479 1104 q 367 1042 415 1042 m 275 1361 l 275 1529 l 733 1529 l 733 1361 l 275 1361 z "},"Ụ":{"ha":1010,"x_min":94,"x_max":915,"o":"m 506 -17 q 289 30 381 -17 q 145 163 196 76 q 94 375 94 251 l 94 972 l 314 972 l 314 375 q 360 235 314 274 q 506 196 407 196 q 610 212 568 196 q 674 268 653 228 q 696 375 696 307 l 696 972 l 915 972 l 915 375 q 880 191 915 266 q 785 70 844 116 q 653 4 726 24 q 506 -17 580 -17 m 505 -311 q 424 -279 456 -311 q 392 -199 392 -247 q 424 -118 392 -149 q 505 -87 456 -87 q 584 -118 552 -87 q 616 -199 616 -149 q 584 -279 616 -247 q 505 -311 552 -311 z "},"Ù":{"ha":1010,"x_min":94,"x_max":915,"o":"m 506 -17 q 289 30 381 -17 q 145 163 196 76 q 94 375 94 251 l 94 972 l 314 972 l 314 375 q 360 235 314 274 q 506 196 407 196 q 610 212 568 196 q 674 268 653 228 q 696 375 696 307 l 696 972 l 915 972 l 915 375 q 880 191 915 266 q 785 70 844 116 q 653 4 726 24 q 506 -17 580 -17 m 440 1063 l 193 1279 l 439 1279 l 636 1063 l 440 1063 z "},"Ủ":{"ha":1010,"x_min":94,"x_max":915,"o":"m 506 -17 q 289 30 381 -17 q 145 163 196 76 q 94 375 94 251 l 94 972 l 314 972 l 314 375 q 360 235 314 274 q 506 196 407 196 q 610 212 568 196 q 674 268 653 228 q 696 375 696 307 l 696 972 l 915 972 l 915 375 q 880 191 915 266 q 785 70 844 116 q 653 4 726 24 q 506 -17 580 -17 m 438 1026 q 449 1088 438 1062 q 490 1138 460 1115 q 510 1155 504 1148 q 517 1168 517 1161 q 500 1183 517 1183 q 453 1147 476 1183 l 367 1201 q 420 1274 381 1247 q 508 1301 460 1301 q 604 1267 566 1301 q 642 1178 642 1232 q 627 1114 642 1136 q 596 1076 612 1092 q 575 1050 581 1062 q 568 1026 568 1039 l 438 1026 z "},"Ư":{"ha":1279,"x_min":94,"x_max":1272,"o":"m 506 -17 q 289 30 381 -17 q 145 163 196 76 q 94 375 94 251 l 94 972 l 314 972 l 314 375 q 360 235 314 274 q 506 196 407 196 q 610 212 568 196 q 674 268 653 228 q 696 375 696 307 l 696 972 l 915 972 l 915 375 q 880 191 915 266 q 785 70 844 116 q 653 4 726 24 q 506 -17 580 -17 m 911 475 l 911 644 q 1025 686 985 660 q 1064 760 1064 711 l 1064 972 l 1272 972 l 1272 801 q 1259 682 1272 741 q 1200 576 1246 624 q 1078 500 1147 523 q 911 475 1009 477 z "},"Ứ":{"ha":1279,"x_min":94,"x_max":1272,"o":"m 506 -17 q 289 30 381 -17 q 145 163 196 76 q 94 375 94 251 l 94 972 l 314 972 l 314 375 q 360 235 314 274 q 506 196 407 196 q 610 212 568 196 q 674 268 653 228 q 696 375 696 307 l 696 972 l 915 972 l 915 375 q 880 191 915 266 q 785 70 844 116 q 653 4 726 24 q 506 -17 580 -17 m 911 475 l 911 644 q 1025 686 985 660 q 1064 760 1064 711 l 1064 972 l 1272 972 l 1272 801 q 1259 682 1272 741 q 1200 576 1246 624 q 1078 500 1147 523 q 911 475 1009 477 m 333 1063 l 531 1279 l 776 1279 l 529 1063 l 333 1063 z "},"Ự":{"ha":1279,"x_min":94,"x_max":1272,"o":"m 506 -17 q 289 30 381 -17 q 145 163 196 76 q 94 375 94 251 l 94 972 l 314 972 l 314 375 q 360 235 314 274 q 506 196 407 196 q 610 212 568 196 q 674 268 653 228 q 696 375 696 307 l 696 972 l 915 972 l 915 375 q 880 191 915 266 q 785 70 844 116 q 653 4 726 24 q 506 -17 580 -17 m 911 475 l 911 644 q 1025 686 985 660 q 1064 760 1064 711 l 1064 972 l 1272 972 l 1272 801 q 1259 682 1272 741 q 1200 576 1246 624 q 1078 500 1147 523 q 911 475 1009 477 m 505 -311 q 424 -279 456 -311 q 392 -199 392 -247 q 424 -118 392 -149 q 505 -87 456 -87 q 584 -118 552 -87 q 616 -199 616 -149 q 584 -279 616 -247 q 505 -311 552 -311 z "},"Ừ":{"ha":1279,"x_min":94,"x_max":1272,"o":"m 506 -17 q 289 30 381 -17 q 145 163 196 76 q 94 375 94 251 l 94 972 l 314 972 l 314 375 q 360 235 314 274 q 506 196 407 196 q 610 212 568 196 q 674 268 653 228 q 696 375 696 307 l 696 972 l 915 972 l 915 375 q 880 191 915 266 q 785 70 844 116 q 653 4 726 24 q 506 -17 580 -17 m 911 475 l 911 644 q 1025 686 985 660 q 1064 760 1064 711 l 1064 972 l 1272 972 l 1272 801 q 1259 682 1272 741 q 1200 576 1246 624 q 1078 500 1147 523 q 911 475 1009 477 m 440 1063 l 193 1279 l 439 1279 l 636 1063 l 440 1063 z "},"Ử":{"ha":1279,"x_min":94,"x_max":1272,"o":"m 506 -17 q 289 30 381 -17 q 145 163 196 76 q 94 375 94 251 l 94 972 l 314 972 l 314 375 q 360 235 314 274 q 506 196 407 196 q 610 212 568 196 q 674 268 653 228 q 696 375 696 307 l 696 972 l 915 972 l 915 375 q 880 191 915 266 q 785 70 844 116 q 653 4 726 24 q 506 -17 580 -17 m 911 475 l 911 644 q 1025 686 985 660 q 1064 760 1064 711 l 1064 972 l 1272 972 l 1272 801 q 1259 682 1272 741 q 1200 576 1246 624 q 1078 500 1147 523 q 911 475 1009 477 m 438 1026 q 449 1088 438 1062 q 490 1138 460 1115 q 510 1155 504 1148 q 517 1168 517 1161 q 500 1183 517 1183 q 453 1147 476 1183 l 367 1201 q 420 1274 381 1247 q 508 1301 460 1301 q 604 1267 566 1301 q 642 1178 642 1232 q 627 1114 642 1136 q 596 1076 612 1092 q 575 1050 581 1062 q 568 1026 568 1039 l 438 1026 z "},"Ữ":{"ha":1279,"x_min":94,"x_max":1272,"o":"m 506 -17 q 289 30 381 -17 q 145 163 196 76 q 94 375 94 251 l 94 972 l 314 972 l 314 375 q 360 235 314 274 q 506 196 407 196 q 610 212 568 196 q 674 268 653 228 q 696 375 696 307 l 696 972 l 915 972 l 915 375 q 880 191 915 266 q 785 70 844 116 q 653 4 726 24 q 506 -17 580 -17 m 911 475 l 911 644 q 1025 686 985 660 q 1064 760 1064 711 l 1064 972 l 1272 972 l 1272 801 q 1259 682 1272 741 q 1200 576 1246 624 q 1078 500 1147 523 q 911 475 1009 477 m 615 1068 q 543 1079 575 1068 q 482 1103 510 1090 q 434 1122 458 1114 q 385 1131 410 1131 q 340 1119 360 1131 q 320 1074 320 1107 l 224 1074 q 240 1175 224 1129 q 294 1247 256 1220 q 395 1274 331 1274 q 466 1264 434 1274 q 525 1241 497 1253 q 574 1221 549 1230 q 624 1213 599 1213 q 670 1224 651 1213 q 690 1268 690 1235 l 784 1268 q 768 1168 784 1214 q 716 1095 753 1123 q 615 1068 678 1068 z "},"Ű":{"ha":1010,"x_min":94,"x_max":957,"o":"m 506 -17 q 289 30 381 -17 q 145 163 196 76 q 94 375 94 251 l 94 972 l 314 972 l 314 375 q 360 235 314 274 q 506 196 407 196 q 610 212 568 196 q 674 268 653 228 q 696 375 696 307 l 696 972 l 915 972 l 915 375 q 880 191 915 266 q 785 70 844 116 q 653 4 726 24 q 506 -17 580 -17 m 514 1063 l 711 1279 l 957 1279 l 710 1063 l 514 1063 m 199 1063 l 396 1279 l 642 1279 l 394 1063 l 199 1063 z "},"Ȗ":{"ha":1010,"x_min":94,"x_max":915,"o":"m 506 -17 q 289 30 381 -17 q 145 163 196 76 q 94 375 94 251 l 94 972 l 314 972 l 314 375 q 360 235 314 274 q 506 196 407 196 q 610 212 568 196 q 674 268 653 228 q 696 375 696 307 l 696 972 l 915 972 l 915 375 q 880 191 915 266 q 785 70 844 116 q 653 4 726 24 q 506 -17 580 -17 m 248 1053 q 276 1172 248 1117 q 362 1260 305 1226 q 505 1293 419 1293 q 638 1263 585 1293 q 720 1184 691 1233 q 759 1078 749 1135 q 760 1065 760 1072 q 760 1053 760 1059 l 609 1053 q 609 1065 609 1059 q 606 1078 608 1072 q 576 1128 597 1105 q 505 1151 555 1151 q 441 1135 464 1151 q 409 1097 418 1119 q 399 1053 399 1074 l 248 1053 z "},"Ū":{"ha":1010,"x_min":94,"x_max":915,"o":"m 506 -17 q 289 30 381 -17 q 145 163 196 76 q 94 375 94 251 l 94 972 l 314 972 l 314 375 q 360 235 314 274 q 506 196 407 196 q 610 212 568 196 q 674 268 653 228 q 696 375 696 307 l 696 972 l 915 972 l 915 375 q 880 191 915 266 q 785 70 844 116 q 653 4 726 24 q 506 -17 580 -17 m 275 1068 l 275 1236 l 733 1236 l 733 1068 l 275 1068 z "},"Ų":{"ha":1010,"x_min":94,"x_max":915,"o":"m 526 -344 q 398 -300 445 -344 q 350 -189 350 -256 q 381 -93 350 -135 q 469 -17 413 -51 q 466 -17 467 -17 q 463 -17 465 -17 q 338 9 402 -12 q 222 72 274 31 q 130 193 166 119 q 94 375 94 267 l 94 972 l 314 972 l 314 375 q 326 288 314 322 q 364 232 339 253 q 424 204 388 213 q 506 196 459 196 q 610 212 568 196 q 674 268 653 228 q 696 375 696 307 l 696 972 l 915 972 l 915 375 q 881 194 915 267 q 789 74 847 121 q 658 1 731 28 q 575 -51 606 -18 q 531 -117 544 -83 q 518 -172 518 -151 q 531 -213 518 -201 q 558 -225 544 -225 q 589 -217 575 -225 q 611 -199 603 -210 l 704 -264 q 669 -298 691 -279 q 613 -331 647 -317 q 526 -344 578 -344 z "},"Ʊ":{"ha":1038,"x_min":86,"x_max":950,"o":"m 518 -17 q 314 23 397 -17 q 181 129 231 63 q 109 274 131 194 q 86 431 86 353 q 125 613 86 528 q 214 760 163 697 l 88 760 l 88 972 l 481 972 l 481 807 q 388 691 425 749 q 332 570 351 633 q 314 433 314 507 q 324 347 314 389 q 357 270 334 304 q 420 215 381 235 q 518 194 459 194 q 617 215 578 194 q 680 270 656 236 q 713 347 703 305 q 722 432 722 390 q 705 569 722 506 q 650 690 687 632 q 557 807 614 747 l 557 972 l 950 972 l 950 760 l 822 760 q 911 613 872 697 q 950 431 950 528 q 927 274 950 353 q 855 129 905 194 q 721 23 804 63 q 518 -17 638 -17 z "},"Ů":{"ha":1010,"x_min":94,"x_max":915,"o":"m 506 -17 q 289 30 381 -17 q 145 163 196 76 q 94 375 94 251 l 94 972 l 314 972 l 314 375 q 360 235 314 274 q 506 196 407 196 q 610 212 568 196 q 674 268 653 228 q 696 375 696 307 l 696 972 l 915 972 l 915 375 q 880 191 915 266 q 785 70 844 116 q 653 4 726 24 q 506 -17 580 -17 m 504 1026 q 409 1051 451 1026 q 342 1119 367 1076 q 317 1213 317 1161 q 342 1307 317 1265 q 409 1373 367 1349 q 504 1397 451 1397 q 599 1373 557 1397 q 667 1307 642 1349 q 692 1213 692 1265 q 667 1119 692 1161 q 599 1051 642 1076 q 504 1026 557 1026 m 504 1164 q 536 1178 521 1164 q 551 1213 551 1192 q 536 1247 551 1233 q 504 1261 521 1261 q 468 1247 481 1261 q 456 1213 456 1233 q 468 1178 456 1192 q 504 1164 481 1164 z "},"Ũ":{"ha":1010,"x_min":94,"x_max":915,"o":"m 506 -17 q 289 30 381 -17 q 145 163 196 76 q 94 375 94 251 l 94 972 l 314 972 l 314 375 q 360 235 314 274 q 506 196 407 196 q 610 212 568 196 q 674 268 653 228 q 696 375 696 307 l 696 972 l 915 972 l 915 375 q 880 191 915 266 q 785 70 844 116 q 653 4 726 24 q 506 -17 580 -17 m 615 1068 q 543 1079 575 1068 q 482 1103 510 1090 q 434 1122 458 1114 q 385 1131 410 1131 q 340 1119 360 1131 q 320 1074 320 1107 l 224 1074 q 240 1175 224 1129 q 294 1247 256 1220 q 395 1274 331 1274 q 466 1264 434 1274 q 525 1241 497 1253 q 574 1221 549 1230 q 624 1213 599 1213 q 670 1224 651 1213 q 690 1268 690 1235 l 784 1268 q 768 1168 784 1214 q 716 1095 753 1123 q 615 1068 678 1068 z "},"V":{"ha":975,"x_min":32,"x_max":943,"o":"m 385 0 l 32 972 l 269 972 l 478 368 q 485 348 482 357 q 489 335 488 339 q 492 346 489 337 q 499 368 494 356 l 708 972 l 943 972 l 592 0 l 385 0 z "},"Ɣ":{"ha":943,"x_min":32,"x_max":911,"o":"m 472 -369 q 300 -310 355 -369 q 246 -167 246 -251 q 277 -8 246 -88 q 352 168 308 72 l 32 972 l 265 972 l 473 449 l 685 972 l 911 972 l 592 168 q 668 -8 638 72 q 699 -167 699 -88 q 643 -310 699 -251 q 472 -369 588 -369 m 472 -194 q 499 -185 487 -194 q 510 -156 510 -176 q 500 -106 510 -134 q 472 -37 490 -77 q 444 -106 455 -77 q 434 -156 434 -134 q 446 -185 434 -176 q 472 -194 458 -194 z "},"Ʋ":{"ha":988,"x_min":94,"x_max":921,"o":"m 403 -17 q 172 71 250 -17 q 94 331 94 159 l 94 972 l 314 972 l 314 331 q 334 224 314 253 q 403 194 354 194 q 513 233 460 194 q 608 333 566 271 q 675 466 651 394 q 700 603 700 537 q 657 737 700 690 q 522 785 613 785 q 469 783 495 785 q 410 773 442 781 l 504 983 q 576 989 537 989 q 764 943 688 989 q 881 814 841 897 q 921 617 921 731 q 894 433 921 524 q 818 261 867 342 q 704 117 769 180 q 562 19 639 55 q 403 -17 485 -17 z "},"Ʌ":{"ha":975,"x_min":32,"x_max":943,"o":"m 32 0 l 383 972 l 590 972 l 943 0 l 706 0 l 497 604 q 490 625 493 616 q 486 638 488 633 q 483 626 486 635 q 476 604 481 617 l 267 0 l 32 0 z "},"W":{"ha":1185,"x_min":39,"x_max":1146,"o":"m 247 0 l 39 972 l 265 972 l 361 482 q 366 455 365 467 q 369 422 367 442 q 374 455 372 440 q 379 483 376 469 l 494 972 l 688 972 l 804 484 q 810 455 808 472 q 814 419 812 438 q 819 451 817 437 q 824 476 822 466 l 919 972 l 1146 972 l 936 0 l 728 0 l 596 529 q 592 548 594 538 q 589 578 591 558 q 585 548 587 557 q 582 531 583 538 l 456 0 l 247 0 z "},"Ẃ":{"ha":1185,"x_min":39,"x_max":1146,"o":"m 247 0 l 39 972 l 265 972 l 361 482 q 366 455 365 467 q 369 422 367 442 q 374 455 372 440 q 379 483 376 469 l 494 972 l 688 972 l 804 484 q 810 455 808 472 q 814 419 812 438 q 819 451 817 437 q 824 476 822 466 l 919 972 l 1146 972 l 936 0 l 728 0 l 596 529 q 592 548 594 538 q 589 578 591 558 q 585 548 587 557 q 582 531 583 538 l 456 0 l 247 0 m 421 1063 l 618 1279 l 864 1279 l 617 1063 l 421 1063 z "},"Ŵ":{"ha":1185,"x_min":39,"x_max":1146,"o":"m 247 0 l 39 972 l 265 972 l 361 482 q 366 455 365 467 q 369 422 367 442 q 374 455 372 440 q 379 483 376 469 l 494 972 l 688 972 l 804 484 q 810 455 808 472 q 814 419 812 438 q 819 451 817 437 q 824 476 822 466 l 919 972 l 1146 972 l 936 0 l 728 0 l 596 529 q 592 548 594 538 q 589 578 591 558 q 585 548 587 557 q 582 531 583 538 l 456 0 l 247 0 m 299 1063 l 497 1279 l 691 1279 l 887 1063 l 699 1063 l 594 1149 l 487 1063 l 299 1063 z "},"Ẅ":{"ha":1185,"x_min":39,"x_max":1146,"o":"m 247 0 l 39 972 l 265 972 l 361 482 q 366 455 365 467 q 369 422 367 442 q 374 455 372 440 q 379 483 376 469 l 494 972 l 688 972 l 804 484 q 810 455 808 472 q 814 419 812 438 q 819 451 817 437 q 824 476 822 466 l 919 972 l 1146 972 l 936 0 l 728 0 l 596 529 q 592 548 594 538 q 589 578 591 558 q 585 548 587 557 q 582 531 583 538 l 456 0 l 247 0 m 738 1060 q 656 1091 688 1060 q 625 1171 625 1122 q 656 1250 625 1219 q 738 1282 688 1282 q 817 1250 785 1282 q 849 1171 849 1219 q 817 1091 849 1122 q 738 1060 785 1060 m 444 1060 q 365 1091 396 1060 q 333 1171 333 1122 q 365 1250 333 1219 q 444 1282 396 1282 q 525 1250 492 1282 q 557 1171 557 1219 q 525 1091 557 1122 q 444 1060 492 1060 z "},"Ẁ":{"ha":1185,"x_min":39,"x_max":1146,"o":"m 247 0 l 39 972 l 265 972 l 361 482 q 366 455 365 467 q 369 422 367 442 q 374 455 372 440 q 379 483 376 469 l 494 972 l 688 972 l 804 484 q 810 455 808 472 q 814 419 812 438 q 819 451 817 437 q 824 476 822 466 l 919 972 l 1146 972 l 936 0 l 728 0 l 596 529 q 592 548 594 538 q 589 578 591 558 q 585 548 587 557 q 582 531 583 538 l 456 0 l 247 0 m 528 1063 l 281 1279 l 526 1279 l 724 1063 l 528 1063 z "},"Ⱳ":{"ha":1351,"x_min":39,"x_max":1344,"o":"m 247 0 l 39 972 l 265 972 l 361 482 q 366 455 365 467 q 369 422 367 442 q 374 455 372 440 q 379 483 376 469 l 494 972 l 688 972 l 804 484 q 810 455 808 472 q 814 419 812 438 q 819 451 817 437 q 824 476 822 466 l 874 739 q 946 891 893 837 q 1073 967 999 945 q 1228 989 1147 988 l 1344 803 q 1203 793 1258 803 q 1121 756 1149 783 q 1082 678 1093 729 l 936 0 l 728 0 l 596 529 q 592 548 594 538 q 589 578 591 558 q 585 548 587 557 q 582 531 583 538 l 456 0 l 247 0 z "},"X":{"ha":1011,"x_min":49,"x_max":963,"o":"m 49 0 l 376 500 l 67 972 l 325 972 l 506 699 l 685 972 l 944 972 l 635 500 l 963 0 l 704 0 l 506 300 l 307 0 l 49 0 z "},"Y":{"ha":989,"x_min":13,"x_max":976,"o":"m 386 0 l 386 378 l 13 972 l 260 972 l 494 611 l 728 972 l 976 972 l 603 378 l 603 0 l 386 0 z "},"Ý":{"ha":989,"x_min":13,"x_max":976,"o":"m 386 0 l 386 378 l 13 972 l 260 972 l 494 611 l 728 972 l 976 972 l 603 378 l 603 0 l 386 0 m 324 1063 l 521 1279 l 767 1279 l 519 1063 l 324 1063 z "},"Ŷ":{"ha":989,"x_min":13,"x_max":976,"o":"m 386 0 l 386 378 l 13 972 l 260 972 l 494 611 l 728 972 l 976 972 l 603 378 l 603 0 l 386 0 m 202 1063 l 399 1279 l 594 1279 l 790 1063 l 602 1063 l 497 1149 l 390 1063 l 202 1063 z "},"Ÿ":{"ha":989,"x_min":13,"x_max":976,"o":"m 386 0 l 386 378 l 13 972 l 260 972 l 494 611 l 728 972 l 976 972 l 603 378 l 603 0 l 386 0 m 640 1060 q 559 1091 590 1060 q 528 1171 528 1122 q 559 1250 528 1219 q 640 1282 590 1282 q 719 1250 688 1282 q 751 1171 751 1219 q 719 1091 751 1122 q 640 1060 688 1060 m 347 1060 q 267 1091 299 1060 q 236 1171 236 1122 q 267 1250 236 1219 q 347 1282 299 1282 q 427 1250 395 1282 q 460 1171 460 1219 q 427 1091 460 1122 q 347 1060 395 1060 z "},"Ỵ":{"ha":989,"x_min":13,"x_max":976,"o":"m 386 0 l 386 378 l 13 972 l 260 972 l 494 611 l 728 972 l 976 972 l 603 378 l 603 0 l 386 0 m 495 -311 q 415 -279 447 -311 q 383 -199 383 -247 q 415 -118 383 -149 q 495 -87 447 -87 q 574 -118 542 -87 q 606 -199 606 -149 q 574 -279 606 -247 q 495 -311 542 -311 z "},"Ỳ":{"ha":989,"x_min":13,"x_max":976,"o":"m 386 0 l 386 378 l 13 972 l 260 972 l 494 611 l 728 972 l 976 972 l 603 378 l 603 0 l 386 0 m 431 1063 l 183 1279 l 429 1279 l 626 1063 l 431 1063 z "},"Ƴ":{"ha":1102,"x_min":13,"x_max":1096,"o":"m 386 0 l 386 378 l 13 972 l 260 972 l 494 611 l 627 816 q 724 924 673 887 q 839 974 776 960 q 980 989 901 988 l 1096 803 q 956 798 1009 803 q 872 774 903 792 q 814 714 840 755 l 603 378 l 603 0 l 386 0 z "},"Ỷ":{"ha":989,"x_min":13,"x_max":976,"o":"m 386 0 l 386 378 l 13 972 l 260 972 l 494 611 l 728 972 l 976 972 l 603 378 l 603 0 l 386 0 m 428 1026 q 439 1088 428 1062 q 481 1138 451 1115 q 501 1155 494 1148 q 507 1168 507 1161 q 490 1183 507 1183 q 443 1147 467 1183 l 357 1201 q 411 1274 372 1247 q 499 1301 450 1301 q 594 1267 556 1301 q 632 1178 632 1232 q 617 1114 632 1136 q 586 1076 602 1092 q 565 1050 572 1062 q 558 1026 558 1039 l 428 1026 z "},"Ȳ":{"ha":989,"x_min":13,"x_max":976,"o":"m 386 0 l 386 378 l 13 972 l 260 972 l 494 611 l 728 972 l 976 972 l 603 378 l 603 0 l 386 0 m 265 1068 l 265 1236 l 724 1236 l 724 1068 l 265 1068 z "},"Ỹ":{"ha":989,"x_min":13,"x_max":976,"o":"m 386 0 l 386 378 l 13 972 l 260 972 l 494 611 l 728 972 l 976 972 l 603 378 l 603 0 l 386 0 m 605 1068 q 533 1079 565 1068 q 472 1103 501 1090 q 424 1122 448 1114 q 376 1131 401 1131 q 330 1119 350 1131 q 310 1074 310 1107 l 215 1074 q 231 1175 215 1129 q 284 1247 247 1220 q 385 1274 322 1274 q 456 1264 424 1274 q 515 1241 488 1253 q 564 1221 540 1230 q 615 1213 589 1213 q 660 1224 641 1213 q 680 1268 680 1235 l 774 1268 q 759 1168 774 1214 q 706 1095 743 1123 q 605 1068 669 1068 z "},"Z":{"ha":878,"x_min":53,"x_max":813,"o":"m 53 0 l 53 163 l 521 765 l 82 765 l 82 972 l 813 972 l 813 810 l 338 207 l 813 207 l 813 0 l 53 0 z "},"Ź":{"ha":878,"x_min":53,"x_max":813,"o":"m 53 0 l 53 163 l 521 765 l 82 765 l 82 972 l 813 972 l 813 810 l 338 207 l 813 207 l 813 0 l 53 0 m 293 1063 l 490 1279 l 736 1279 l 489 1063 l 293 1063 z "},"Ž":{"ha":878,"x_min":53,"x_max":813,"o":"m 53 0 l 53 163 l 521 765 l 82 765 l 82 972 l 813 972 l 813 810 l 338 207 l 813 207 l 813 0 l 53 0 m 365 1063 l 169 1279 l 357 1279 l 464 1194 l 569 1279 l 757 1279 l 560 1063 l 365 1063 z "},"Ż":{"ha":878,"x_min":53,"x_max":813,"o":"m 53 0 l 53 163 l 521 765 l 82 765 l 82 972 l 813 972 l 813 810 l 338 207 l 813 207 l 813 0 l 53 0 m 465 1047 q 381 1083 416 1047 q 345 1167 345 1118 q 381 1250 345 1216 q 465 1283 416 1283 q 550 1250 516 1283 q 584 1167 584 1216 q 550 1083 584 1118 q 465 1047 516 1047 z "},"Ẓ":{"ha":878,"x_min":53,"x_max":813,"o":"m 53 0 l 53 163 l 521 765 l 82 765 l 82 972 l 813 972 l 813 810 l 338 207 l 813 207 l 813 0 l 53 0 m 434 -311 q 353 -279 385 -311 q 322 -199 322 -247 q 353 -118 322 -149 q 434 -87 385 -87 q 513 -118 481 -87 q 545 -199 545 -149 q 513 -279 545 -247 q 434 -311 481 -311 z "},"a":{"ha":803,"x_min":63,"x_max":713,"o":"m 317 -17 q 131 45 199 -17 q 63 213 63 108 q 99 333 63 281 q 200 414 135 385 q 351 443 265 443 q 436 436 394 443 q 506 418 478 430 l 506 458 q 475 528 506 503 q 388 553 444 553 q 280 534 335 553 q 163 476 224 515 l 99 636 q 244 703 165 680 q 407 726 324 726 q 636 657 560 726 q 713 447 713 587 l 713 0 l 506 0 l 506 51 q 425 1 474 18 q 317 -17 377 -17 m 371 157 q 444 169 410 157 q 506 204 478 181 l 506 263 q 449 277 480 272 q 386 282 419 282 q 298 264 330 282 q 267 214 267 247 q 294 172 267 187 q 371 157 321 157 z "},"á":{"ha":803,"x_min":63,"x_max":713,"o":"m 317 -17 q 131 45 199 -17 q 63 213 63 108 q 99 333 63 281 q 200 414 135 385 q 351 443 265 443 q 436 436 394 443 q 506 418 478 430 l 506 458 q 475 528 506 503 q 388 553 444 553 q 280 534 335 553 q 163 476 224 515 l 99 636 q 244 703 165 680 q 407 726 324 726 q 636 657 560 726 q 713 447 713 587 l 713 0 l 506 0 l 506 51 q 425 1 474 18 q 317 -17 377 -17 m 371 157 q 444 169 410 157 q 506 204 478 181 l 506 263 q 449 277 480 272 q 386 282 419 282 q 298 264 330 282 q 267 214 267 247 q 294 172 267 187 q 371 157 321 157 m 239 800 l 436 1017 l 682 1017 l 435 800 l 239 800 z "},"ă":{"ha":803,"x_min":63,"x_max":713,"o":"m 317 -17 q 131 45 199 -17 q 63 213 63 108 q 99 333 63 281 q 200 414 135 385 q 351 443 265 443 q 436 436 394 443 q 506 418 478 430 l 506 458 q 475 528 506 503 q 388 553 444 553 q 280 534 335 553 q 163 476 224 515 l 99 636 q 244 703 165 680 q 407 726 324 726 q 636 657 560 726 q 713 447 713 587 l 713 0 l 506 0 l 506 51 q 425 1 474 18 q 317 -17 377 -17 m 371 157 q 444 169 410 157 q 506 204 478 181 l 506 263 q 449 277 480 272 q 386 282 419 282 q 298 264 330 282 q 267 214 267 247 q 294 172 267 187 q 371 157 321 157 m 409 790 q 267 824 324 790 q 182 912 210 857 q 153 1031 153 967 l 305 1031 q 313 987 305 1010 q 342 948 320 964 q 409 932 365 932 q 476 948 453 932 q 507 987 499 964 q 515 1031 515 1010 l 666 1031 q 637 912 666 967 q 551 824 608 857 q 409 790 494 790 z "},"ắ":{"ha":803,"x_min":63,"x_max":752,"o":"m 317 -17 q 131 45 199 -17 q 63 213 63 108 q 99 333 63 281 q 200 414 135 385 q 351 443 265 443 q 436 436 394 443 q 506 418 478 430 l 506 458 q 475 528 506 503 q 388 553 444 553 q 280 534 335 553 q 163 476 224 515 l 99 636 q 244 703 165 680 q 407 726 324 726 q 636 657 560 726 q 713 447 713 587 l 713 0 l 506 0 l 506 51 q 425 1 474 18 q 317 -17 377 -17 m 371 157 q 444 169 410 157 q 506 204 478 181 l 506 263 q 449 277 480 272 q 386 282 419 282 q 298 264 330 282 q 267 214 267 247 q 294 172 267 187 q 371 157 321 157 m 409 790 q 267 824 324 790 q 182 912 210 857 q 153 1031 153 967 l 305 1031 q 313 987 305 1010 q 342 948 320 964 q 409 932 365 932 q 476 948 453 932 q 507 987 499 964 q 515 1031 515 1010 l 666 1031 q 637 912 666 967 q 551 824 608 857 q 409 790 494 790 m 309 1057 l 506 1274 l 752 1274 l 505 1057 l 309 1057 z "},"ặ":{"ha":803,"x_min":63,"x_max":713,"o":"m 317 -17 q 131 45 199 -17 q 63 213 63 108 q 99 333 63 281 q 200 414 135 385 q 351 443 265 443 q 436 436 394 443 q 506 418 478 430 l 506 458 q 475 528 506 503 q 388 553 444 553 q 280 534 335 553 q 163 476 224 515 l 99 636 q 244 703 165 680 q 407 726 324 726 q 636 657 560 726 q 713 447 713 587 l 713 0 l 506 0 l 506 51 q 425 1 474 18 q 317 -17 377 -17 m 371 157 q 444 169 410 157 q 506 204 478 181 l 506 263 q 449 277 480 272 q 386 282 419 282 q 298 264 330 282 q 267 214 267 247 q 294 172 267 187 q 371 157 321 157 m 333 -311 q 252 -279 284 -311 q 220 -199 220 -247 q 252 -118 220 -149 q 333 -87 284 -87 q 412 -118 380 -87 q 444 -199 444 -149 q 412 -279 444 -247 q 333 -311 380 -311 m 409 790 q 267 824 324 790 q 182 912 210 857 q 153 1031 153 967 l 305 1031 q 313 987 305 1010 q 342 948 320 964 q 409 932 365 932 q 476 948 453 932 q 507 987 499 964 q 515 1031 515 1010 l 666 1031 q 637 912 666 967 q 551 824 608 857 q 409 790 494 790 z "},"ằ":{"ha":803,"x_min":63,"x_max":713,"o":"m 317 -17 q 131 45 199 -17 q 63 213 63 108 q 99 333 63 281 q 200 414 135 385 q 351 443 265 443 q 436 436 394 443 q 506 418 478 430 l 506 458 q 475 528 506 503 q 388 553 444 553 q 280 534 335 553 q 163 476 224 515 l 99 636 q 244 703 165 680 q 407 726 324 726 q 636 657 560 726 q 713 447 713 587 l 713 0 l 506 0 l 506 51 q 425 1 474 18 q 317 -17 377 -17 m 371 157 q 444 169 410 157 q 506 204 478 181 l 506 263 q 449 277 480 272 q 386 282 419 282 q 298 264 330 282 q 267 214 267 247 q 294 172 267 187 q 371 157 321 157 m 409 790 q 267 824 324 790 q 182 912 210 857 q 153 1031 153 967 l 305 1031 q 313 987 305 1010 q 342 948 320 964 q 409 932 365 932 q 476 948 453 932 q 507 987 499 964 q 515 1031 515 1010 l 666 1031 q 637 912 666 967 q 551 824 608 857 q 409 790 494 790 m 316 1057 l 69 1274 l 315 1274 l 512 1057 l 316 1057 z "},"ẳ":{"ha":803,"x_min":63,"x_max":713,"o":"m 317 -17 q 131 45 199 -17 q 63 213 63 108 q 99 333 63 281 q 200 414 135 385 q 351 443 265 443 q 436 436 394 443 q 506 418 478 430 l 506 458 q 475 528 506 503 q 388 553 444 553 q 280 534 335 553 q 163 476 224 515 l 99 636 q 244 703 165 680 q 407 726 324 726 q 636 657 560 726 q 713 447 713 587 l 713 0 l 506 0 l 506 51 q 425 1 474 18 q 317 -17 377 -17 m 371 157 q 444 169 410 157 q 506 204 478 181 l 506 263 q 449 277 480 272 q 386 282 419 282 q 298 264 330 282 q 267 214 267 247 q 294 172 267 187 q 371 157 321 157 m 409 790 q 267 824 324 790 q 182 912 210 857 q 153 1031 153 967 l 305 1031 q 313 987 305 1010 q 342 948 320 964 q 409 932 365 932 q 476 948 453 932 q 507 987 499 964 q 515 1031 515 1010 l 666 1031 q 637 912 666 967 q 551 824 608 857 q 409 790 494 790 m 344 1029 q 355 1091 344 1065 q 397 1140 367 1117 q 417 1157 410 1151 q 423 1171 423 1164 q 406 1186 423 1186 q 359 1150 383 1186 l 273 1204 q 327 1277 288 1249 q 415 1304 366 1304 q 510 1269 472 1304 q 548 1181 548 1235 q 533 1117 548 1139 q 502 1079 518 1095 q 481 1053 488 1065 q 474 1029 474 1042 l 344 1029 z "},"ẵ":{"ha":803,"x_min":63,"x_max":713,"o":"m 317 -17 q 131 45 199 -17 q 63 213 63 108 q 99 333 63 281 q 200 414 135 385 q 351 443 265 443 q 436 436 394 443 q 506 418 478 430 l 506 458 q 475 528 506 503 q 388 553 444 553 q 280 534 335 553 q 163 476 224 515 l 99 636 q 244 703 165 680 q 407 726 324 726 q 636 657 560 726 q 713 447 713 587 l 713 0 l 506 0 l 506 51 q 425 1 474 18 q 317 -17 377 -17 m 371 157 q 444 169 410 157 q 506 204 478 181 l 506 263 q 449 277 480 272 q 386 282 419 282 q 298 264 330 282 q 267 214 267 247 q 294 172 267 187 q 371 157 321 157 m 409 790 q 267 824 324 790 q 182 912 210 857 q 153 1031 153 967 l 305 1031 q 313 987 305 1010 q 342 948 320 964 q 409 932 365 932 q 476 948 453 932 q 507 987 499 964 q 515 1031 515 1010 l 666 1031 q 637 912 666 967 q 551 824 608 857 q 409 790 494 790 m 520 1099 q 448 1110 481 1099 q 388 1133 416 1121 q 340 1153 363 1144 q 291 1161 316 1161 q 245 1149 265 1161 q 226 1104 226 1138 l 130 1104 q 146 1205 130 1160 q 199 1277 162 1251 q 301 1304 237 1304 q 371 1294 340 1304 q 431 1272 403 1284 q 480 1252 455 1260 q 530 1243 504 1243 q 576 1254 556 1243 q 595 1299 595 1265 l 690 1299 q 674 1199 690 1244 q 621 1126 658 1153 q 520 1099 584 1099 z "},"ǎ":{"ha":803,"x_min":63,"x_max":713,"o":"m 317 -17 q 131 45 199 -17 q 63 213 63 108 q 99 333 63 281 q 200 414 135 385 q 351 443 265 443 q 436 436 394 443 q 506 418 478 430 l 506 458 q 475 528 506 503 q 388 553 444 553 q 280 534 335 553 q 163 476 224 515 l 99 636 q 244 703 165 680 q 407 726 324 726 q 636 657 560 726 q 713 447 713 587 l 713 0 l 506 0 l 506 51 q 425 1 474 18 q 317 -17 377 -17 m 371 157 q 444 169 410 157 q 506 204 478 181 l 506 263 q 449 277 480 272 q 386 282 419 282 q 298 264 330 282 q 267 214 267 247 q 294 172 267 187 q 371 157 321 157 m 312 800 l 116 1017 l 303 1017 l 410 932 l 516 1017 l 703 1017 l 506 800 l 312 800 z "},"â":{"ha":803,"x_min":63,"x_max":713,"o":"m 317 -17 q 131 45 199 -17 q 63 213 63 108 q 99 333 63 281 q 200 414 135 385 q 351 443 265 443 q 436 436 394 443 q 506 418 478 430 l 506 458 q 475 528 506 503 q 388 553 444 553 q 280 534 335 553 q 163 476 224 515 l 99 636 q 244 703 165 680 q 407 726 324 726 q 636 657 560 726 q 713 447 713 587 l 713 0 l 506 0 l 506 51 q 425 1 474 18 q 317 -17 377 -17 m 371 157 q 444 169 410 157 q 506 204 478 181 l 506 263 q 449 277 480 272 q 386 282 419 282 q 298 264 330 282 q 267 214 267 247 q 294 172 267 187 q 371 157 321 157 m 117 800 l 315 1017 l 509 1017 l 705 800 l 517 800 l 412 886 l 305 800 l 117 800 z "},"ấ":{"ha":803,"x_min":63,"x_max":1023,"o":"m 317 -17 q 131 45 199 -17 q 63 213 63 108 q 99 333 63 281 q 200 414 135 385 q 351 443 265 443 q 436 436 394 443 q 506 418 478 430 l 506 458 q 475 528 506 503 q 388 553 444 553 q 280 534 335 553 q 163 476 224 515 l 99 636 q 244 703 165 680 q 407 726 324 726 q 636 657 560 726 q 713 447 713 587 l 713 0 l 506 0 l 506 51 q 425 1 474 18 q 317 -17 377 -17 m 371 157 q 444 169 410 157 q 506 204 478 181 l 506 263 q 449 277 480 272 q 386 282 419 282 q 298 264 330 282 q 267 214 267 247 q 294 172 267 187 q 371 157 321 157 m 117 800 l 315 1017 l 509 1017 l 705 800 l 517 800 l 412 886 l 305 800 l 117 800 m 580 994 l 777 1211 l 1023 1211 l 776 994 l 580 994 z "},"ậ":{"ha":803,"x_min":63,"x_max":713,"o":"m 317 -17 q 131 45 199 -17 q 63 213 63 108 q 99 333 63 281 q 200 414 135 385 q 351 443 265 443 q 436 436 394 443 q 506 418 478 430 l 506 458 q 475 528 506 503 q 388 553 444 553 q 280 534 335 553 q 163 476 224 515 l 99 636 q 244 703 165 680 q 407 726 324 726 q 636 657 560 726 q 713 447 713 587 l 713 0 l 506 0 l 506 51 q 425 1 474 18 q 317 -17 377 -17 m 371 157 q 444 169 410 157 q 506 204 478 181 l 506 263 q 449 277 480 272 q 386 282 419 282 q 298 264 330 282 q 267 214 267 247 q 294 172 267 187 q 371 157 321 157 m 333 -311 q 252 -279 284 -311 q 220 -199 220 -247 q 252 -118 220 -149 q 333 -87 284 -87 q 412 -118 380 -87 q 444 -199 444 -149 q 412 -279 444 -247 q 333 -311 380 -311 m 117 800 l 315 1017 l 509 1017 l 705 800 l 517 800 l 412 886 l 305 800 l 117 800 z "},"ầ":{"ha":803,"x_min":63,"x_max":831,"o":"m 317 -17 q 131 45 199 -17 q 63 213 63 108 q 99 333 63 281 q 200 414 135 385 q 351 443 265 443 q 436 436 394 443 q 506 418 478 430 l 506 458 q 475 528 506 503 q 388 553 444 553 q 280 534 335 553 q 163 476 224 515 l 99 636 q 244 703 165 680 q 407 726 324 726 q 636 657 560 726 q 713 447 713 587 l 713 0 l 506 0 l 506 51 q 425 1 474 18 q 317 -17 377 -17 m 371 157 q 444 169 410 157 q 506 204 478 181 l 506 263 q 449 277 480 272 q 386 282 419 282 q 298 264 330 282 q 267 214 267 247 q 294 172 267 187 q 371 157 321 157 m 117 800 l 315 1017 l 509 1017 l 705 800 l 517 800 l 412 886 l 305 800 l 117 800 m 635 994 l 388 1211 l 634 1211 l 831 994 l 635 994 z "},"ẩ":{"ha":803,"x_min":63,"x_max":713,"o":"m 317 -17 q 131 45 199 -17 q 63 213 63 108 q 99 333 63 281 q 200 414 135 385 q 351 443 265 443 q 436 436 394 443 q 506 418 478 430 l 506 458 q 475 528 506 503 q 388 553 444 553 q 280 534 335 553 q 163 476 224 515 l 99 636 q 244 703 165 680 q 407 726 324 726 q 636 657 560 726 q 713 447 713 587 l 713 0 l 506 0 l 506 51 q 425 1 474 18 q 317 -17 377 -17 m 371 157 q 444 169 410 157 q 506 204 478 181 l 506 263 q 449 277 480 272 q 386 282 419 282 q 298 264 330 282 q 267 214 267 247 q 294 172 267 187 q 371 157 321 157 m 117 800 l 315 1017 l 509 1017 l 705 800 l 517 800 l 412 886 l 305 800 l 117 800 m 343 1071 q 355 1133 343 1106 q 396 1182 366 1159 q 416 1199 410 1192 q 422 1213 422 1206 q 406 1228 422 1228 q 358 1192 382 1228 l 272 1246 q 326 1318 287 1291 q 414 1346 365 1346 q 509 1311 472 1346 q 547 1222 547 1276 q 532 1159 547 1181 q 501 1121 517 1137 q 480 1095 487 1106 q 474 1071 474 1083 l 343 1071 z "},"ẫ":{"ha":803,"x_min":63,"x_max":713,"o":"m 317 -17 q 131 45 199 -17 q 63 213 63 108 q 99 333 63 281 q 200 414 135 385 q 351 443 265 443 q 436 436 394 443 q 506 418 478 430 l 506 458 q 475 528 506 503 q 388 553 444 553 q 280 534 335 553 q 163 476 224 515 l 99 636 q 244 703 165 680 q 407 726 324 726 q 636 657 560 726 q 713 447 713 587 l 713 0 l 506 0 l 506 51 q 425 1 474 18 q 317 -17 377 -17 m 371 157 q 444 169 410 157 q 506 204 478 181 l 506 263 q 449 277 480 272 q 386 282 419 282 q 298 264 330 282 q 267 214 267 247 q 294 172 267 187 q 371 157 321 157 m 117 800 l 315 1017 l 509 1017 l 705 800 l 517 800 l 412 886 l 305 800 l 117 800 m 520 1085 q 448 1096 481 1085 q 388 1119 416 1107 q 340 1139 363 1131 q 291 1147 316 1147 q 245 1135 265 1147 q 226 1090 226 1124 l 130 1090 q 146 1191 130 1146 q 199 1264 162 1237 q 301 1290 237 1290 q 371 1280 340 1290 q 431 1258 403 1270 q 480 1238 455 1247 q 530 1229 504 1229 q 576 1240 556 1229 q 595 1285 595 1251 l 690 1285 q 674 1185 690 1231 q 621 1112 658 1140 q 520 1085 584 1085 z "},"ȁ":{"ha":803,"x_min":-92,"x_max":713,"o":"m 317 -17 q 131 45 199 -17 q 63 213 63 108 q 99 333 63 281 q 200 414 135 385 q 351 443 265 443 q 436 436 394 443 q 506 418 478 430 l 506 458 q 475 528 506 503 q 388 553 444 553 q 280 534 335 553 q 163 476 224 515 l 99 636 q 244 703 165 680 q 407 726 324 726 q 636 657 560 726 q 713 447 713 587 l 713 0 l 506 0 l 506 51 q 425 1 474 18 q 317 -17 377 -17 m 371 157 q 444 169 410 157 q 506 204 478 181 l 506 263 q 449 277 480 272 q 386 282 419 282 q 298 264 330 282 q 267 214 267 247 q 294 172 267 187 q 371 157 321 157 m 156 800 l -92 1017 l 154 1017 l 351 800 l 156 800 m 472 800 l 225 1017 l 471 1017 l 668 800 l 472 800 z "},"ä":{"ha":803,"x_min":63,"x_max":713,"o":"m 317 -17 q 131 45 199 -17 q 63 213 63 108 q 99 333 63 281 q 200 414 135 385 q 351 443 265 443 q 436 436 394 443 q 506 418 478 430 l 506 458 q 475 528 506 503 q 388 553 444 553 q 280 534 335 553 q 163 476 224 515 l 99 636 q 244 703 165 680 q 407 726 324 726 q 636 657 560 726 q 713 447 713 587 l 713 0 l 506 0 l 506 51 q 425 1 474 18 q 317 -17 377 -17 m 371 157 q 444 169 410 157 q 506 204 478 181 l 506 263 q 449 277 480 272 q 386 282 419 282 q 298 264 330 282 q 267 214 267 247 q 294 172 267 187 q 371 157 321 157 m 547 779 q 466 810 497 779 q 435 890 435 842 q 466 970 435 938 q 547 1003 497 1003 q 626 970 594 1003 q 658 890 658 938 q 626 810 658 842 q 547 779 594 779 m 272 779 q 192 810 224 779 q 161 890 161 842 q 192 970 161 938 q 272 1003 224 1003 q 352 970 320 1003 q 385 890 385 938 q 352 810 385 842 q 272 779 320 779 z "},"ǟ":{"ha":803,"x_min":63,"x_max":713,"o":"m 317 -17 q 131 45 199 -17 q 63 213 63 108 q 99 333 63 281 q 200 414 135 385 q 351 443 265 443 q 436 436 394 443 q 506 418 478 430 l 506 458 q 475 528 506 503 q 388 553 444 553 q 280 534 335 553 q 163 476 224 515 l 99 636 q 244 703 165 680 q 407 726 324 726 q 636 657 560 726 q 713 447 713 587 l 713 0 l 506 0 l 506 51 q 425 1 474 18 q 317 -17 377 -17 m 371 157 q 444 169 410 157 q 506 204 478 181 l 506 263 q 449 277 480 272 q 386 282 419 282 q 298 264 330 282 q 267 214 267 247 q 294 172 267 187 q 371 157 321 157 m 547 779 q 466 810 497 779 q 435 890 435 842 q 466 970 435 938 q 547 1003 497 1003 q 626 970 594 1003 q 658 890 658 938 q 626 810 658 842 q 547 779 594 779 m 272 779 q 192 810 224 779 q 161 890 161 842 q 192 970 161 938 q 272 1003 224 1003 q 352 970 320 1003 q 385 890 385 938 q 352 810 385 842 q 272 779 320 779 m 181 1099 l 181 1267 l 639 1267 l 639 1099 l 181 1099 z "},"ȧ":{"ha":803,"x_min":63,"x_max":713,"o":"m 317 -17 q 131 45 199 -17 q 63 213 63 108 q 99 333 63 281 q 200 414 135 385 q 351 443 265 443 q 436 436 394 443 q 506 418 478 430 l 506 458 q 475 528 506 503 q 388 553 444 553 q 280 534 335 553 q 163 476 224 515 l 99 636 q 244 703 165 680 q 407 726 324 726 q 636 657 560 726 q 713 447 713 587 l 713 0 l 506 0 l 506 51 q 425 1 474 18 q 317 -17 377 -17 m 371 157 q 444 169 410 157 q 506 204 478 181 l 506 263 q 449 277 480 272 q 386 282 419 282 q 298 264 330 282 q 267 214 267 247 q 294 172 267 187 q 371 157 321 157 m 410 785 q 326 820 362 785 q 291 904 291 856 q 326 987 291 953 q 410 1021 362 1021 q 496 987 462 1021 q 530 904 530 953 q 496 820 530 856 q 410 785 462 785 z "},"ạ":{"ha":803,"x_min":63,"x_max":713,"o":"m 317 -17 q 131 45 199 -17 q 63 213 63 108 q 99 333 63 281 q 200 414 135 385 q 351 443 265 443 q 436 436 394 443 q 506 418 478 430 l 506 458 q 475 528 506 503 q 388 553 444 553 q 280 534 335 553 q 163 476 224 515 l 99 636 q 244 703 165 680 q 407 726 324 726 q 636 657 560 726 q 713 447 713 587 l 713 0 l 506 0 l 506 51 q 425 1 474 18 q 317 -17 377 -17 m 371 157 q 444 169 410 157 q 506 204 478 181 l 506 263 q 449 277 480 272 q 386 282 419 282 q 298 264 330 282 q 267 214 267 247 q 294 172 267 187 q 371 157 321 157 m 333 -311 q 252 -279 284 -311 q 220 -199 220 -247 q 252 -118 220 -149 q 333 -87 284 -87 q 412 -118 380 -87 q 444 -199 444 -149 q 412 -279 444 -247 q 333 -311 380 -311 z "},"ǡ":{"ha":803,"x_min":63,"x_max":713,"o":"m 317 -17 q 131 45 199 -17 q 63 213 63 108 q 99 333 63 281 q 200 414 135 385 q 351 443 265 443 q 436 436 394 443 q 506 418 478 430 l 506 458 q 475 528 506 503 q 388 553 444 553 q 280 534 335 553 q 163 476 224 515 l 99 636 q 244 703 165 680 q 407 726 324 726 q 636 657 560 726 q 713 447 713 587 l 713 0 l 506 0 l 506 51 q 425 1 474 18 q 317 -17 377 -17 m 371 157 q 444 169 410 157 q 506 204 478 181 l 506 263 q 449 277 480 272 q 386 282 419 282 q 298 264 330 282 q 267 214 267 247 q 294 172 267 187 q 371 157 321 157 m 410 785 q 326 820 362 785 q 291 904 291 856 q 326 987 291 953 q 410 1021 362 1021 q 496 987 462 1021 q 530 904 530 953 q 496 820 530 856 q 410 785 462 785 m 181 1117 l 181 1285 l 640 1285 l 640 1117 l 181 1117 z "},"à":{"ha":803,"x_min":63,"x_max":713,"o":"m 317 -17 q 131 45 199 -17 q 63 213 63 108 q 99 333 63 281 q 200 414 135 385 q 351 443 265 443 q 436 436 394 443 q 506 418 478 430 l 506 458 q 475 528 506 503 q 388 553 444 553 q 280 534 335 553 q 163 476 224 515 l 99 636 q 244 703 165 680 q 407 726 324 726 q 636 657 560 726 q 713 447 713 587 l 713 0 l 506 0 l 506 51 q 425 1 474 18 q 317 -17 377 -17 m 371 157 q 444 169 410 157 q 506 204 478 181 l 506 263 q 449 277 480 272 q 386 282 419 282 q 298 264 330 282 q 267 214 267 247 q 294 172 267 187 q 371 157 321 157 m 346 800 l 99 1017 l 344 1017 l 542 800 l 346 800 z "},"ả":{"ha":803,"x_min":63,"x_max":713,"o":"m 317 -17 q 131 45 199 -17 q 63 213 63 108 q 99 333 63 281 q 200 414 135 385 q 351 443 265 443 q 436 436 394 443 q 506 418 478 430 l 506 458 q 475 528 506 503 q 388 553 444 553 q 280 534 335 553 q 163 476 224 515 l 99 636 q 244 703 165 680 q 407 726 324 726 q 636 657 560 726 q 713 447 713 587 l 713 0 l 506 0 l 506 51 q 425 1 474 18 q 317 -17 377 -17 m 371 157 q 444 169 410 157 q 506 204 478 181 l 506 263 q 449 277 480 272 q 386 282 419 282 q 298 264 330 282 q 267 214 267 247 q 294 172 267 187 q 371 157 321 157 m 343 764 q 355 826 343 799 q 396 875 366 852 q 416 892 410 885 q 422 906 422 899 q 406 921 422 921 q 358 885 382 921 l 272 939 q 326 1011 287 984 q 414 1039 365 1039 q 509 1004 472 1039 q 547 915 547 969 q 532 852 547 874 q 501 814 517 830 q 480 788 487 799 q 474 764 474 776 l 343 764 z "},"ȃ":{"ha":803,"x_min":63,"x_max":713,"o":"m 317 -17 q 131 45 199 -17 q 63 213 63 108 q 99 333 63 281 q 200 414 135 385 q 351 443 265 443 q 436 436 394 443 q 506 418 478 430 l 506 458 q 475 528 506 503 q 388 553 444 553 q 280 534 335 553 q 163 476 224 515 l 99 636 q 244 703 165 680 q 407 726 324 726 q 636 657 560 726 q 713 447 713 587 l 713 0 l 506 0 l 506 51 q 425 1 474 18 q 317 -17 377 -17 m 371 157 q 444 169 410 157 q 506 204 478 181 l 506 263 q 449 277 480 272 q 386 282 419 282 q 298 264 330 282 q 267 214 267 247 q 294 172 267 187 q 371 157 321 157 m 153 790 q 182 909 153 854 q 268 997 210 964 q 410 1031 325 1031 q 544 1001 491 1031 q 626 922 597 971 q 665 815 655 873 q 666 803 666 809 q 666 790 666 797 l 515 790 q 514 803 515 797 q 512 815 514 809 q 482 866 503 842 q 410 889 460 889 q 347 873 369 889 q 314 834 324 857 q 305 790 305 811 l 153 790 z "},"ɑ":{"ha":815,"x_min":69,"x_max":711,"o":"m 361 -17 q 146 81 223 -17 q 69 356 69 178 q 107 548 69 465 q 211 679 144 632 q 364 726 277 726 q 503 656 453 726 l 503 710 l 711 710 l 711 0 l 503 0 l 503 60 q 361 -17 465 -17 m 397 185 q 462 194 438 185 q 503 225 485 203 l 503 481 q 457 513 485 501 q 397 525 428 525 q 309 482 340 525 q 278 356 278 438 q 291 260 278 298 q 331 203 304 222 q 397 185 357 185 z "},"ɒ":{"ha":815,"x_min":104,"x_max":746,"o":"m 451 -17 q 313 54 363 -17 l 313 0 l 104 0 l 104 710 l 313 710 l 313 650 q 454 726 351 726 q 669 629 593 726 q 746 354 746 531 q 708 161 746 245 q 605 31 671 78 q 451 -17 538 -17 m 418 185 q 507 228 476 185 q 538 354 538 272 q 524 450 538 412 q 485 506 511 488 q 418 525 458 525 q 354 516 378 525 q 313 485 331 507 l 313 229 q 359 197 331 208 q 418 185 387 185 z "},"ā":{"ha":803,"x_min":63,"x_max":713,"o":"m 317 -17 q 131 45 199 -17 q 63 213 63 108 q 99 333 63 281 q 200 414 135 385 q 351 443 265 443 q 436 436 394 443 q 506 418 478 430 l 506 458 q 475 528 506 503 q 388 553 444 553 q 280 534 335 553 q 163 476 224 515 l 99 636 q 244 703 165 680 q 407 726 324 726 q 636 657 560 726 q 713 447 713 587 l 713 0 l 506 0 l 506 51 q 425 1 474 18 q 317 -17 377 -17 m 371 157 q 444 169 410 157 q 506 204 478 181 l 506 263 q 449 277 480 272 q 386 282 419 282 q 298 264 330 282 q 267 214 267 247 q 294 172 267 187 q 371 157 321 157 m 181 806 l 181 974 l 639 974 l 639 806 l 181 806 z "},"ą":{"ha":803,"x_min":63,"x_max":713,"o":"m 511 -344 q 385 -301 433 -344 q 336 -189 336 -258 q 379 -78 336 -126 q 506 3 422 -31 l 506 51 q 425 1 474 18 q 317 -17 377 -17 q 131 45 199 -17 q 63 213 63 108 q 99 333 63 281 q 200 414 135 385 q 351 443 265 443 q 436 436 394 443 q 506 418 478 430 l 506 458 q 475 528 506 503 q 388 553 444 553 q 280 534 335 553 q 163 476 224 515 l 99 636 q 244 703 165 680 q 407 726 324 726 q 636 657 560 726 q 713 447 713 587 l 713 0 q 559 -70 615 -25 q 504 -172 504 -116 q 515 -211 504 -197 q 544 -225 525 -225 q 596 -199 576 -225 l 689 -264 q 511 -344 617 -344 m 371 157 q 444 169 410 157 q 506 204 478 181 l 506 263 q 449 277 480 272 q 386 282 419 282 q 298 264 330 282 q 267 214 267 247 q 294 172 267 187 q 371 157 321 157 z "},"å":{"ha":803,"x_min":63,"x_max":713,"o":"m 317 -17 q 131 45 199 -17 q 63 213 63 108 q 99 333 63 281 q 200 414 135 385 q 351 443 265 443 q 436 436 394 443 q 506 418 478 430 l 506 458 q 475 528 506 503 q 388 553 444 553 q 280 534 335 553 q 163 476 224 515 l 99 636 q 244 703 165 680 q 407 726 324 726 q 636 657 560 726 q 713 447 713 587 l 713 0 l 506 0 l 506 51 q 425 1 474 18 q 317 -17 377 -17 m 371 157 q 444 169 410 157 q 506 204 478 181 l 506 263 q 449 277 480 272 q 386 282 419 282 q 298 264 330 282 q 267 214 267 247 q 294 172 267 187 q 371 157 321 157 m 410 764 q 315 789 357 764 q 247 856 272 814 q 222 950 222 899 q 247 1044 222 1003 q 315 1110 272 1086 q 410 1135 357 1135 q 505 1110 463 1135 q 572 1044 547 1086 q 597 950 597 1003 q 572 856 597 899 q 505 789 547 814 q 410 764 463 764 m 410 901 q 442 915 426 901 q 457 950 457 929 q 442 985 457 971 q 410 999 426 999 q 374 985 387 999 q 361 950 361 971 q 374 915 361 929 q 410 901 387 901 z "},"ǻ":{"ha":803,"x_min":63,"x_max":738,"o":"m 317 -17 q 131 45 199 -17 q 63 213 63 108 q 99 333 63 281 q 200 414 135 385 q 351 443 265 443 q 436 436 394 443 q 506 418 478 430 l 506 458 q 475 528 506 503 q 388 553 444 553 q 280 534 335 553 q 163 476 224 515 l 99 636 q 244 703 165 680 q 407 726 324 726 q 636 657 560 726 q 713 447 713 587 l 713 0 l 506 0 l 506 51 q 425 1 474 18 q 317 -17 377 -17 m 371 157 q 444 169 410 157 q 506 204 478 181 l 506 263 q 449 277 480 272 q 386 282 419 282 q 298 264 330 282 q 267 214 267 247 q 294 172 267 187 q 371 157 321 157 m 410 797 q 315 822 357 797 q 247 890 272 847 q 222 983 222 932 q 247 1078 222 1036 q 315 1144 272 1119 q 410 1168 357 1168 q 505 1144 463 1168 q 572 1078 547 1119 q 597 983 597 1036 q 572 890 597 932 q 505 822 547 847 q 410 797 463 797 m 410 935 q 442 949 426 935 q 457 983 457 963 q 442 1018 457 1004 q 410 1032 426 1032 q 374 1018 387 1032 q 361 983 361 1004 q 374 949 361 963 q 410 935 387 935 m 294 1153 l 492 1369 l 738 1369 l 490 1153 l 294 1153 z "},"ã":{"ha":803,"x_min":63,"x_max":713,"o":"m 317 -17 q 131 45 199 -17 q 63 213 63 108 q 99 333 63 281 q 200 414 135 385 q 351 443 265 443 q 436 436 394 443 q 506 418 478 430 l 506 458 q 475 528 506 503 q 388 553 444 553 q 280 534 335 553 q 163 476 224 515 l 99 636 q 244 703 165 680 q 407 726 324 726 q 636 657 560 726 q 713 447 713 587 l 713 0 l 506 0 l 506 51 q 425 1 474 18 q 317 -17 377 -17 m 371 157 q 444 169 410 157 q 506 204 478 181 l 506 263 q 449 277 480 272 q 386 282 419 282 q 298 264 330 282 q 267 214 267 247 q 294 172 267 187 q 371 157 321 157 m 520 806 q 448 817 481 806 q 388 840 416 828 q 340 860 363 851 q 291 868 316 868 q 245 856 265 868 q 226 811 226 844 l 130 811 q 146 912 130 867 q 199 984 162 958 q 301 1011 237 1011 q 371 1001 340 1011 q 431 978 403 991 q 480 959 455 967 q 530 950 504 950 q 576 961 556 950 q 595 1006 595 972 l 690 1006 q 674 906 690 951 q 621 833 658 860 q 520 806 584 806 z "},"ɐ":{"ha":803,"x_min":90,"x_max":740,"o":"m 396 -17 q 167 53 243 -17 q 90 263 90 123 l 90 710 l 297 710 l 297 658 q 378 709 330 692 q 486 726 426 726 q 672 665 604 726 q 740 497 740 603 q 704 377 740 428 q 602 296 667 325 q 451 267 538 267 q 367 274 409 267 q 297 292 324 281 l 297 251 q 328 182 297 207 q 415 157 359 157 q 524 176 469 157 q 640 233 579 195 l 704 74 q 559 7 639 30 q 396 -17 479 -17 m 417 428 q 505 446 473 428 q 536 496 536 464 q 509 538 536 523 q 432 553 482 553 q 359 541 394 553 q 297 506 324 528 l 297 447 q 354 433 324 438 q 417 428 385 428 z "},"æ":{"ha":1188,"x_min":63,"x_max":1125,"o":"m 301 -17 q 182 9 236 -17 q 95 86 128 35 q 63 214 63 138 q 102 344 63 293 q 201 419 142 394 q 317 443 260 443 q 401 435 365 443 q 457 419 438 427 l 457 458 q 429 528 457 503 q 364 553 401 553 q 261 531 312 553 q 163 476 210 510 l 99 636 q 224 699 153 672 q 383 726 296 726 q 497 713 440 726 q 593 661 555 699 q 684 709 631 692 q 804 726 737 726 q 967 690 894 726 q 1082 579 1040 653 q 1125 390 1125 504 q 1124 342 1125 371 q 1119 285 1124 313 l 668 285 q 685 218 668 247 q 732 175 701 190 q 804 160 763 160 q 895 177 858 160 q 965 235 931 194 l 1085 115 q 966 19 1035 55 q 804 -17 897 -17 q 652 13 718 -17 q 544 94 585 42 q 437 11 496 40 q 301 -17 378 -17 m 346 157 q 414 172 383 157 q 465 213 446 187 q 461 237 463 221 q 457 263 458 253 q 413 276 438 271 q 363 282 388 282 q 314 274 336 282 q 280 250 292 265 q 267 214 267 235 q 287 173 267 189 q 346 157 308 157 m 671 440 l 926 440 q 905 501 921 477 q 862 538 888 526 q 799 550 835 550 q 713 521 748 550 q 671 440 678 492 z "},"ǽ":{"ha":1188,"x_min":63,"x_max":1125,"o":"m 301 -17 q 182 9 236 -17 q 95 86 128 35 q 63 214 63 138 q 102 344 63 293 q 201 419 142 394 q 317 443 260 443 q 401 435 365 443 q 457 419 438 427 l 457 458 q 429 528 457 503 q 364 553 401 553 q 261 531 312 553 q 163 476 210 510 l 99 636 q 224 699 153 672 q 383 726 296 726 q 497 713 440 726 q 593 661 555 699 q 684 709 631 692 q 804 726 737 726 q 967 690 894 726 q 1082 579 1040 653 q 1125 390 1125 504 q 1124 342 1125 371 q 1119 285 1124 313 l 668 285 q 685 218 668 247 q 732 175 701 190 q 804 160 763 160 q 895 177 858 160 q 965 235 931 194 l 1085 115 q 966 19 1035 55 q 804 -17 897 -17 q 652 13 718 -17 q 544 94 585 42 q 437 11 496 40 q 301 -17 378 -17 m 346 157 q 414 172 383 157 q 465 213 446 187 q 461 237 463 221 q 457 263 458 253 q 413 276 438 271 q 363 282 388 282 q 314 274 336 282 q 280 250 292 265 q 267 214 267 235 q 287 173 267 189 q 346 157 308 157 m 671 440 l 926 440 q 905 501 921 477 q 862 538 888 526 q 799 550 835 550 q 713 521 748 550 q 671 440 678 492 m 424 800 l 621 1017 l 867 1017 l 619 800 l 424 800 z "},"ǣ":{"ha":1188,"x_min":63,"x_max":1125,"o":"m 301 -17 q 182 9 236 -17 q 95 86 128 35 q 63 214 63 138 q 102 344 63 293 q 201 419 142 394 q 317 443 260 443 q 401 435 365 443 q 457 419 438 427 l 457 458 q 429 528 457 503 q 364 553 401 553 q 261 531 312 553 q 163 476 210 510 l 99 636 q 224 699 153 672 q 383 726 296 726 q 497 713 440 726 q 593 661 555 699 q 684 709 631 692 q 804 726 737 726 q 967 690 894 726 q 1082 579 1040 653 q 1125 390 1125 504 q 1124 342 1125 371 q 1119 285 1124 313 l 668 285 q 685 218 668 247 q 732 175 701 190 q 804 160 763 160 q 895 177 858 160 q 965 235 931 194 l 1085 115 q 966 19 1035 55 q 804 -17 897 -17 q 652 13 718 -17 q 544 94 585 42 q 437 11 496 40 q 301 -17 378 -17 m 346 157 q 414 172 383 157 q 465 213 446 187 q 461 237 463 221 q 457 263 458 253 q 413 276 438 271 q 363 282 388 282 q 314 274 336 282 q 280 250 292 265 q 267 214 267 235 q 287 173 267 189 q 346 157 308 157 m 671 440 l 926 440 q 905 501 921 477 q 862 538 888 526 q 799 550 835 550 q 713 521 748 550 q 671 440 678 492 m 365 806 l 365 974 l 824 974 l 824 806 l 365 806 z "},"b":{"ha":815,"x_min":104,"x_max":746,"o":"m 439 -17 q 363 0 393 -17 q 313 54 333 17 l 313 0 l 104 0 l 104 910 l 313 1003 l 313 658 q 370 709 335 692 q 451 726 406 726 q 604 679 538 726 q 708 548 670 631 q 746 356 746 464 q 664 82 746 181 q 439 -17 583 -17 m 415 185 q 506 229 474 185 q 538 356 538 274 q 506 481 538 437 q 415 525 474 525 q 355 514 382 525 q 313 483 328 503 l 313 225 q 353 194 331 203 q 415 185 376 185 z "},"ḅ":{"ha":815,"x_min":104,"x_max":746,"o":"m 439 -17 q 363 0 393 -17 q 313 54 333 17 l 313 0 l 104 0 l 104 910 l 313 1003 l 313 658 q 370 709 335 692 q 451 726 406 726 q 604 679 538 726 q 708 548 670 631 q 746 356 746 464 q 664 82 746 181 q 439 -17 583 -17 m 415 185 q 506 229 474 185 q 538 356 538 274 q 506 481 538 437 q 415 525 474 525 q 355 514 382 525 q 313 483 328 503 l 313 225 q 353 194 331 203 q 415 185 376 185 m 426 -311 q 345 -279 377 -311 q 313 -199 313 -247 q 345 -118 313 -149 q 426 -87 377 -87 q 505 -118 473 -87 q 537 -199 537 -149 q 505 -279 537 -247 q 426 -311 473 -311 z "},"ɓ":{"ha":815,"x_min":104,"x_max":746,"o":"m 439 -17 q 363 0 393 -17 q 313 54 333 17 l 313 0 l 104 0 l 104 701 q 183 933 104 855 q 407 1042 263 1012 l 515 872 q 397 836 441 855 q 332 785 352 817 q 313 700 313 754 l 313 658 q 370 709 335 692 q 451 726 406 726 q 604 679 538 726 q 708 548 670 631 q 746 356 746 464 q 664 82 746 181 q 439 -17 583 -17 m 415 185 q 506 229 474 185 q 538 356 538 274 q 506 481 538 437 q 415 525 474 525 q 355 514 382 525 q 313 483 328 503 l 313 225 q 353 194 331 203 q 415 185 376 185 z "},"ʬ":{"ha":818,"x_min":88,"x_max":731,"o":"m 217 522 l 88 972 l 245 972 l 287 811 q 293 781 290 800 q 296 797 294 789 q 299 811 298 805 l 340 972 l 476 972 l 516 812 q 519 797 517 805 q 522 781 521 789 q 528 811 526 800 l 572 972 l 731 972 l 599 522 l 456 522 l 416 704 q 412 724 414 714 q 409 744 410 734 q 405 724 407 733 q 401 705 403 715 l 360 522 l 217 522 m 217 0 l 88 450 l 245 450 l 287 289 q 293 258 290 278 q 296 275 294 267 q 299 289 298 283 l 340 450 l 476 450 l 516 290 q 519 275 517 283 q 522 258 521 267 q 528 289 526 278 l 572 450 l 731 450 l 599 0 l 456 0 l 416 182 q 412 202 414 192 q 409 222 410 212 q 405 202 407 211 q 401 183 403 192 l 360 0 l 217 0 z "},"c":{"ha":790,"x_min":69,"x_max":721,"o":"m 404 -17 q 226 28 301 -17 q 110 157 151 74 q 69 354 69 240 q 111 551 69 467 q 227 681 152 635 q 404 726 303 726 q 606 669 526 726 q 721 500 685 613 l 522 435 q 476 502 506 478 q 407 526 446 526 q 316 478 352 526 q 281 354 281 429 q 315 231 281 279 q 404 183 350 183 q 476 209 446 183 q 522 285 506 234 l 721 228 q 606 44 685 105 q 404 -17 527 -17 z "},"ć":{"ha":790,"x_min":69,"x_max":721,"o":"m 404 -17 q 226 28 301 -17 q 110 157 151 74 q 69 354 69 240 q 111 551 69 467 q 227 681 152 635 q 404 726 303 726 q 606 669 526 726 q 721 500 685 613 l 522 435 q 476 502 506 478 q 407 526 446 526 q 316 478 352 526 q 281 354 281 429 q 315 231 281 279 q 404 183 350 183 q 476 209 446 183 q 522 285 506 234 l 721 228 q 606 44 685 105 q 404 -17 527 -17 m 236 800 l 433 1017 l 679 1017 l 432 800 l 236 800 z "},"č":{"ha":790,"x_min":69,"x_max":721,"o":"m 404 -17 q 226 28 301 -17 q 110 157 151 74 q 69 354 69 240 q 111 551 69 467 q 227 681 152 635 q 404 726 303 726 q 606 669 526 726 q 721 500 685 613 l 522 435 q 476 502 506 478 q 407 526 446 526 q 316 478 352 526 q 281 354 281 429 q 315 231 281 279 q 404 183 350 183 q 476 209 446 183 q 522 285 506 234 l 721 228 q 606 44 685 105 q 404 -17 527 -17 m 309 800 l 113 1017 l 301 1017 l 408 932 l 513 1017 l 701 1017 l 503 800 l 309 800 z "},"ç":{"ha":790,"x_min":69,"x_max":721,"o":"m 404 -17 q 226 28 301 -17 q 110 157 151 74 q 69 354 69 240 q 111 551 69 467 q 227 681 152 635 q 404 726 303 726 q 606 669 526 726 q 721 500 685 613 l 522 435 q 476 502 506 478 q 407 526 446 526 q 316 478 352 526 q 281 354 281 429 q 315 231 281 279 q 404 183 350 183 q 476 209 446 183 q 522 285 506 234 l 721 228 q 606 44 685 105 q 404 -17 527 -17 m 382 -344 q 278 -323 317 -344 q 218 -269 239 -301 l 301 -206 q 326 -227 310 -218 q 361 -236 342 -236 q 409 -224 394 -236 q 425 -187 425 -211 q 410 -150 425 -163 q 363 -137 395 -137 q 330 -144 346 -137 q 300 -161 315 -151 l 254 -107 l 340 0 l 454 0 l 421 -60 q 541 -95 502 -60 q 581 -189 581 -131 q 530 -300 581 -256 q 382 -344 480 -344 z "},"ĉ":{"ha":790,"x_min":69,"x_max":721,"o":"m 404 -17 q 226 28 301 -17 q 110 157 151 74 q 69 354 69 240 q 111 551 69 467 q 227 681 152 635 q 404 726 303 726 q 606 669 526 726 q 721 500 685 613 l 522 435 q 476 502 506 478 q 407 526 446 526 q 316 478 352 526 q 281 354 281 429 q 315 231 281 279 q 404 183 350 183 q 476 209 446 183 q 522 285 506 234 l 721 228 q 606 44 685 105 q 404 -17 527 -17 m 115 800 l 312 1017 l 506 1017 l 702 800 l 515 800 l 409 886 l 302 800 l 115 800 z "},"ċ":{"ha":790,"x_min":69,"x_max":721,"o":"m 404 -17 q 226 28 301 -17 q 110 157 151 74 q 69 354 69 240 q 111 551 69 467 q 227 681 152 635 q 404 726 303 726 q 606 669 526 726 q 721 500 685 613 l 522 435 q 476 502 506 478 q 407 526 446 526 q 316 478 352 526 q 281 354 281 429 q 315 231 281 279 q 404 183 350 183 q 476 209 446 183 q 522 285 506 234 l 721 228 q 606 44 685 105 q 404 -17 527 -17 m 408 785 q 324 820 359 785 q 288 904 288 856 q 324 987 288 953 q 408 1021 359 1021 q 493 987 459 1021 q 527 904 527 953 q 493 820 527 856 q 408 785 459 785 z "},"ƈ":{"ha":924,"x_min":69,"x_max":924,"o":"m 404 -17 q 226 28 301 -17 q 110 157 151 74 q 69 354 69 240 q 111 551 69 467 q 227 681 152 635 q 404 726 303 726 q 513 713 465 726 l 513 720 q 595 936 513 860 q 815 1042 677 1013 l 924 872 q 805 836 849 855 q 741 785 760 817 q 721 700 721 754 l 721 500 l 522 435 q 476 502 506 478 q 407 526 446 526 q 316 478 352 526 q 281 354 281 429 q 315 231 281 279 q 404 183 350 183 q 476 209 446 183 q 522 285 506 234 l 721 228 q 606 44 685 105 q 404 -17 527 -17 z "},"d":{"ha":815,"x_min":69,"x_max":711,"o":"m 361 -17 q 146 81 223 -17 q 69 356 69 178 q 107 548 69 465 q 211 679 144 632 q 364 726 277 726 q 503 656 453 726 l 503 910 l 711 1003 l 711 0 l 503 0 l 503 60 q 361 -17 465 -17 m 397 185 q 462 194 438 185 q 503 225 485 203 l 503 481 q 457 513 485 501 q 397 525 428 525 q 309 482 340 525 q 278 356 278 438 q 291 260 278 298 q 331 203 304 222 q 397 185 357 185 z "},"ð":{"ha":794,"x_min":69,"x_max":725,"o":"m 399 -17 q 228 25 302 -17 q 111 140 153 67 q 69 307 69 213 q 105 465 69 392 q 207 582 140 538 q 371 626 274 626 q 444 617 413 626 q 494 592 476 608 q 467 668 484 633 q 418 732 449 704 l 347 657 l 239 756 l 276 794 q 225 802 253 799 q 167 806 198 805 l 167 989 q 304 975 242 987 q 418 943 366 963 l 499 1026 l 604 926 l 547 867 q 686 658 647 783 q 725 385 725 532 q 688 177 725 267 q 577 35 650 86 q 399 -17 505 -17 m 399 185 q 460 200 433 185 q 503 243 488 216 q 518 306 518 271 q 502 374 518 345 q 459 417 486 402 q 397 432 431 432 q 337 417 364 432 q 294 374 310 402 q 278 307 278 346 q 294 244 278 272 q 338 201 310 217 q 399 185 365 185 z "},"ď":{"ha":1064,"x_min":69,"x_max":1043,"o":"m 361 -17 q 146 81 223 -17 q 69 356 69 178 q 107 548 69 465 q 211 679 144 632 q 364 726 277 726 q 503 656 453 726 l 503 910 l 711 1003 l 711 0 l 503 0 l 503 60 q 361 -17 465 -17 m 397 185 q 462 194 438 185 q 503 225 485 203 l 503 481 q 457 513 485 501 q 397 525 428 525 q 309 482 340 525 q 278 356 278 438 q 291 260 278 298 q 331 203 304 222 q 397 185 357 185 m 878 615 l 810 668 q 832 741 822 692 q 848 854 842 790 q 854 989 854 918 l 1043 989 l 1043 978 q 995 765 1043 851 q 878 615 948 680 z "},"ḓ":{"ha":815,"x_min":69,"x_max":711,"o":"m 361 -17 q 146 81 223 -17 q 69 356 69 178 q 107 548 69 465 q 211 679 144 632 q 364 726 277 726 q 503 656 453 726 l 503 910 l 711 1003 l 711 0 l 503 0 l 503 60 q 361 -17 465 -17 m 397 185 q 462 194 438 185 q 503 225 485 203 l 503 481 q 457 513 485 501 q 397 525 428 525 q 309 482 340 525 q 278 356 278 438 q 291 260 278 298 q 331 203 304 222 q 397 185 357 185 m 113 -318 l 310 -101 l 504 -101 l 700 -318 l 513 -318 l 407 -232 l 300 -318 l 113 -318 z "},"đ":{"ha":815,"x_min":69,"x_max":806,"o":"m 361 -17 q 207 24 273 -17 q 106 142 142 65 q 69 332 69 220 q 108 514 69 435 q 214 636 147 592 q 364 681 281 681 q 447 662 413 681 q 503 611 481 644 l 503 740 l 353 740 l 353 892 l 503 892 l 503 910 l 711 1003 l 711 892 l 806 892 l 806 740 l 711 740 l 711 0 l 503 0 l 503 53 q 449 1 486 19 q 361 -17 413 -17 m 397 185 q 463 194 440 185 q 503 225 486 204 l 503 435 q 481 457 495 447 q 445 473 466 467 q 397 479 424 479 q 309 437 341 479 q 278 332 278 394 q 290 255 278 288 q 329 203 303 222 q 397 185 356 185 z "},"ḍ":{"ha":815,"x_min":69,"x_max":711,"o":"m 361 -17 q 146 81 223 -17 q 69 356 69 178 q 107 548 69 465 q 211 679 144 632 q 364 726 277 726 q 503 656 453 726 l 503 910 l 711 1003 l 711 0 l 503 0 l 503 60 q 361 -17 465 -17 m 397 185 q 462 194 438 185 q 503 225 485 203 l 503 481 q 457 513 485 501 q 397 525 428 525 q 309 482 340 525 q 278 356 278 438 q 291 260 278 298 q 331 203 304 222 q 397 185 357 185 m 408 -311 q 327 -279 359 -311 q 295 -199 295 -247 q 327 -118 295 -149 q 408 -87 359 -87 q 487 -118 455 -87 q 519 -199 519 -149 q 487 -279 519 -247 q 408 -311 455 -311 z "},"ʤ":{"ha":1444,"x_min":69,"x_max":1364,"o":"m 1046 -296 q 830 -230 919 -296 q 710 -49 740 -164 l 897 28 q 955 -64 919 -33 q 1039 -96 991 -96 q 1124 -66 1092 -96 q 1156 14 1156 -36 q 1112 108 1156 72 q 992 151 1068 145 l 882 263 l 1085 524 l 711 524 l 711 0 l 503 0 l 503 60 q 361 -17 465 -17 q 146 81 223 -17 q 69 356 69 178 q 107 548 69 465 q 211 679 144 632 q 364 726 277 726 q 503 656 453 726 l 503 910 l 711 1003 l 711 710 l 1329 710 l 1329 554 l 1124 289 q 1301 193 1238 265 q 1364 13 1364 121 q 1323 -147 1364 -78 q 1211 -256 1283 -217 q 1046 -296 1139 -296 m 397 185 q 462 194 438 185 q 503 225 485 203 l 503 481 q 457 513 485 501 q 397 525 428 525 q 309 482 340 525 q 278 356 278 438 q 291 260 278 298 q 331 203 304 222 q 397 185 357 185 z "},"ɗ":{"ha":914,"x_min":69,"x_max":914,"o":"m 361 -17 q 146 81 223 -17 q 69 356 69 178 q 107 548 69 465 q 211 679 144 632 q 364 726 277 726 q 503 656 453 726 l 503 701 q 582 933 503 855 q 806 1042 661 1012 l 914 872 q 795 836 840 855 q 731 785 751 817 q 711 700 711 754 l 711 0 l 503 0 l 503 60 q 361 -17 465 -17 m 397 185 q 462 194 438 185 q 503 225 485 203 l 503 481 q 457 513 485 501 q 397 525 428 525 q 309 482 340 525 q 278 356 278 438 q 291 260 278 298 q 331 203 304 222 q 397 185 357 185 z "},"ḏ":{"ha":815,"x_min":69,"x_max":711,"o":"m 361 -17 q 146 81 223 -17 q 69 356 69 178 q 107 548 69 465 q 211 679 144 632 q 364 726 277 726 q 503 656 453 726 l 503 910 l 711 1003 l 711 0 l 503 0 l 503 60 q 361 -17 465 -17 m 397 185 q 462 194 438 185 q 503 225 485 203 l 503 481 q 457 513 485 501 q 397 525 428 525 q 309 482 340 525 q 278 356 278 438 q 291 260 278 298 q 331 203 304 222 q 397 185 357 185 m 178 -258 l 178 -90 l 636 -90 l 636 -258 l 178 -258 z "},"ɖ":{"ha":893,"x_min":69,"x_max":914,"o":"m 806 -347 q 582 -238 661 -317 q 503 -7 503 -160 l 503 60 q 361 -17 465 -17 q 146 81 223 -17 q 69 356 69 178 q 107 548 69 465 q 211 679 144 632 q 364 726 277 726 q 503 656 453 726 l 503 910 l 711 1003 l 711 -6 q 731 -91 711 -60 q 795 -141 751 -122 q 914 -178 840 -160 l 806 -347 m 397 185 q 462 194 438 185 q 503 225 485 203 l 503 481 q 457 513 485 501 q 397 525 428 525 q 309 482 340 525 q 278 356 278 438 q 291 260 278 298 q 331 203 304 222 q 397 185 357 185 z "},"ǳ":{"ha":1606,"x_min":69,"x_max":1522,"o":"m 361 -17 q 146 81 223 -17 q 69 356 69 178 q 107 548 69 465 q 211 679 144 632 q 364 726 277 726 q 503 656 453 726 l 503 910 l 711 1003 l 711 0 l 503 0 l 503 60 q 361 -17 465 -17 m 397 185 q 462 194 438 185 q 503 225 485 203 l 503 481 q 457 513 485 501 q 397 525 428 525 q 309 482 340 525 q 278 356 278 438 q 291 260 278 298 q 331 203 304 222 q 397 185 357 185 m 892 0 l 892 160 l 1251 524 l 917 524 l 917 710 l 1522 710 l 1522 554 l 1165 186 l 1521 186 l 1521 0 l 892 0 z "},"ʣ":{"ha":1476,"x_min":69,"x_max":1393,"o":"m 361 -17 q 146 81 223 -17 q 69 356 69 178 q 107 548 69 465 q 211 679 144 632 q 364 726 277 726 q 503 656 453 726 l 503 910 l 711 1003 l 711 710 l 1393 710 l 1393 554 l 1074 186 l 1392 186 l 1392 0 l 801 0 l 801 160 l 1122 524 l 711 524 l 711 0 l 503 0 l 503 60 q 361 -17 465 -17 m 397 185 q 462 194 438 185 q 503 225 485 203 l 503 481 q 457 513 485 501 q 397 525 428 525 q 309 482 340 525 q 278 356 278 438 q 291 260 278 298 q 331 203 304 222 q 397 185 357 185 z "},"ǆ":{"ha":1606,"x_min":69,"x_max":1523,"o":"m 361 -17 q 146 81 223 -17 q 69 356 69 178 q 107 548 69 465 q 211 679 144 632 q 364 726 277 726 q 503 656 453 726 l 503 910 l 711 1003 l 711 0 l 503 0 l 503 60 q 361 -17 465 -17 m 397 185 q 462 194 438 185 q 503 225 485 203 l 503 481 q 457 513 485 501 q 397 525 428 525 q 309 482 340 525 q 278 356 278 438 q 291 260 278 298 q 331 203 304 222 q 397 185 357 185 m 892 0 l 892 160 l 1251 524 l 917 524 l 917 710 l 1522 710 l 1522 554 l 1165 186 l 1521 186 l 1521 0 l 892 0 m 1131 800 l 935 1017 l 1123 1017 l 1230 932 l 1335 1017 l 1523 1017 l 1326 800 l 1131 800 z "},"e":{"ha":792,"x_min":69,"x_max":729,"o":"m 408 -17 q 227 28 303 -17 q 110 156 151 72 q 69 356 69 239 q 111 552 69 469 q 228 681 152 635 q 408 726 304 726 q 571 690 499 726 q 686 579 644 653 q 729 390 729 504 q 728 342 729 371 q 724 285 728 313 l 272 285 q 289 218 272 247 q 336 175 306 190 q 408 160 367 160 q 499 177 463 160 q 569 235 535 194 l 689 115 q 570 19 639 55 q 408 -17 501 -17 m 275 440 l 531 440 q 509 501 525 477 q 467 538 493 526 q 403 550 440 550 q 317 521 352 550 q 275 440 283 492 z "},"é":{"ha":792,"x_min":69,"x_max":729,"o":"m 408 -17 q 227 28 303 -17 q 110 156 151 72 q 69 356 69 239 q 111 552 69 469 q 228 681 152 635 q 408 726 304 726 q 571 690 499 726 q 686 579 644 653 q 729 390 729 504 q 728 342 729 371 q 724 285 728 313 l 272 285 q 289 218 272 247 q 336 175 306 190 q 408 160 367 160 q 499 177 463 160 q 569 235 535 194 l 689 115 q 570 19 639 55 q 408 -17 501 -17 m 275 440 l 531 440 q 509 501 525 477 q 467 538 493 526 q 403 550 440 550 q 317 521 352 550 q 275 440 283 492 m 238 800 l 435 1017 l 681 1017 l 433 800 l 238 800 z "},"ĕ":{"ha":792,"x_min":69,"x_max":729,"o":"m 408 -17 q 227 28 303 -17 q 110 156 151 72 q 69 356 69 239 q 111 552 69 469 q 228 681 152 635 q 408 726 304 726 q 571 690 499 726 q 686 579 644 653 q 729 390 729 504 q 728 342 729 371 q 724 285 728 313 l 272 285 q 289 218 272 247 q 336 175 306 190 q 408 160 367 160 q 499 177 463 160 q 569 235 535 194 l 689 115 q 570 19 639 55 q 408 -17 501 -17 m 275 440 l 531 440 q 509 501 525 477 q 467 538 493 526 q 403 550 440 550 q 317 521 352 550 q 275 440 283 492 m 408 790 q 266 824 322 790 q 181 912 209 857 q 152 1031 152 967 l 303 1031 q 311 987 303 1010 q 341 948 319 964 q 408 932 363 932 q 475 948 452 932 q 505 987 497 964 q 513 1031 513 1010 l 665 1031 q 636 912 665 967 q 550 824 607 857 q 408 790 493 790 z "},"ě":{"ha":792,"x_min":69,"x_max":729,"o":"m 408 -17 q 227 28 303 -17 q 110 156 151 72 q 69 356 69 239 q 111 552 69 469 q 228 681 152 635 q 408 726 304 726 q 571 690 499 726 q 686 579 644 653 q 729 390 729 504 q 728 342 729 371 q 724 285 728 313 l 272 285 q 289 218 272 247 q 336 175 306 190 q 408 160 367 160 q 499 177 463 160 q 569 235 535 194 l 689 115 q 570 19 639 55 q 408 -17 501 -17 m 275 440 l 531 440 q 509 501 525 477 q 467 538 493 526 q 403 550 440 550 q 317 521 352 550 q 275 440 283 492 m 310 800 l 115 1017 l 302 1017 l 409 932 l 515 1017 l 702 1017 l 505 800 l 310 800 z "},"ȩ":{"ha":792,"x_min":69,"x_max":729,"o":"m 408 -17 q 227 28 303 -17 q 110 156 151 72 q 69 356 69 239 q 111 552 69 469 q 228 681 152 635 q 408 726 304 726 q 571 690 499 726 q 686 579 644 653 q 729 390 729 504 q 728 342 729 371 q 724 285 728 313 l 272 285 q 289 218 272 247 q 336 175 306 190 q 408 160 367 160 q 499 177 463 160 q 569 235 535 194 l 689 115 q 570 19 639 55 q 408 -17 501 -17 m 275 440 l 531 440 q 509 501 525 477 q 467 538 493 526 q 403 550 440 550 q 317 521 352 550 q 275 440 283 492 m 392 -344 q 288 -323 327 -344 q 228 -269 249 -301 l 311 -206 q 335 -227 319 -218 q 371 -236 351 -236 q 419 -224 403 -236 q 435 -187 435 -211 q 420 -150 435 -163 q 372 -137 405 -137 q 340 -144 356 -137 q 310 -161 324 -151 l 264 -107 l 350 0 l 464 0 l 431 -60 q 551 -95 512 -60 q 590 -189 590 -131 q 540 -300 590 -256 q 392 -344 490 -344 z "},"ê":{"ha":792,"x_min":69,"x_max":729,"o":"m 408 -17 q 227 28 303 -17 q 110 156 151 72 q 69 356 69 239 q 111 552 69 469 q 228 681 152 635 q 408 726 304 726 q 571 690 499 726 q 686 579 644 653 q 729 390 729 504 q 728 342 729 371 q 724 285 728 313 l 272 285 q 289 218 272 247 q 336 175 306 190 q 408 160 367 160 q 499 177 463 160 q 569 235 535 194 l 689 115 q 570 19 639 55 q 408 -17 501 -17 m 275 440 l 531 440 q 509 501 525 477 q 467 538 493 526 q 403 550 440 550 q 317 521 352 550 q 275 440 283 492 m 116 800 l 313 1017 l 508 1017 l 703 800 l 516 800 l 410 886 l 303 800 l 116 800 z "},"ế":{"ha":792,"x_min":69,"x_max":1022,"o":"m 408 -17 q 227 28 303 -17 q 110 156 151 72 q 69 356 69 239 q 111 552 69 469 q 228 681 152 635 q 408 726 304 726 q 571 690 499 726 q 686 579 644 653 q 729 390 729 504 q 728 342 729 371 q 724 285 728 313 l 272 285 q 289 218 272 247 q 336 175 306 190 q 408 160 367 160 q 499 177 463 160 q 569 235 535 194 l 689 115 q 570 19 639 55 q 408 -17 501 -17 m 275 440 l 531 440 q 509 501 525 477 q 467 538 493 526 q 403 550 440 550 q 317 521 352 550 q 275 440 283 492 m 116 800 l 313 1017 l 508 1017 l 703 800 l 516 800 l 410 886 l 303 800 l 116 800 m 578 994 l 776 1211 l 1022 1211 l 774 994 l 578 994 z "},"ệ":{"ha":792,"x_min":69,"x_max":729,"o":"m 408 -17 q 227 28 303 -17 q 110 156 151 72 q 69 356 69 239 q 111 552 69 469 q 228 681 152 635 q 408 726 304 726 q 571 690 499 726 q 686 579 644 653 q 729 390 729 504 q 728 342 729 371 q 724 285 728 313 l 272 285 q 289 218 272 247 q 336 175 306 190 q 408 160 367 160 q 499 177 463 160 q 569 235 535 194 l 689 115 q 570 19 639 55 q 408 -17 501 -17 m 275 440 l 531 440 q 509 501 525 477 q 467 538 493 526 q 403 550 440 550 q 317 521 352 550 q 275 440 283 492 m 409 -311 q 328 -279 360 -311 q 297 -199 297 -247 q 328 -118 297 -149 q 409 -87 360 -87 q 488 -118 456 -87 q 520 -199 520 -149 q 488 -279 520 -247 q 409 -311 456 -311 m 116 800 l 313 1017 l 508 1017 l 703 800 l 516 800 l 410 886 l 303 800 l 116 800 z "},"ề":{"ha":792,"x_min":69,"x_max":830,"o":"m 408 -17 q 227 28 303 -17 q 110 156 151 72 q 69 356 69 239 q 111 552 69 469 q 228 681 152 635 q 408 726 304 726 q 571 690 499 726 q 686 579 644 653 q 729 390 729 504 q 728 342 729 371 q 724 285 728 313 l 272 285 q 289 218 272 247 q 336 175 306 190 q 408 160 367 160 q 499 177 463 160 q 569 235 535 194 l 689 115 q 570 19 639 55 q 408 -17 501 -17 m 275 440 l 531 440 q 509 501 525 477 q 467 538 493 526 q 403 550 440 550 q 317 521 352 550 q 275 440 283 492 m 116 800 l 313 1017 l 508 1017 l 703 800 l 516 800 l 410 886 l 303 800 l 116 800 m 634 994 l 387 1211 l 633 1211 l 830 994 l 634 994 z "},"ể":{"ha":792,"x_min":69,"x_max":729,"o":"m 408 -17 q 227 28 303 -17 q 110 156 151 72 q 69 356 69 239 q 111 552 69 469 q 228 681 152 635 q 408 726 304 726 q 571 690 499 726 q 686 579 644 653 q 729 390 729 504 q 728 342 729 371 q 724 285 728 313 l 272 285 q 289 218 272 247 q 336 175 306 190 q 408 160 367 160 q 499 177 463 160 q 569 235 535 194 l 689 115 q 570 19 639 55 q 408 -17 501 -17 m 275 440 l 531 440 q 509 501 525 477 q 467 538 493 526 q 403 550 440 550 q 317 521 352 550 q 275 440 283 492 m 116 800 l 313 1017 l 508 1017 l 703 800 l 516 800 l 410 886 l 303 800 l 116 800 m 342 1071 q 353 1133 342 1106 q 394 1182 365 1159 q 415 1199 408 1192 q 421 1213 421 1206 q 404 1228 421 1228 q 357 1192 381 1228 l 271 1246 q 325 1318 285 1291 q 413 1346 364 1346 q 508 1311 470 1346 q 546 1222 546 1276 q 531 1159 546 1181 q 500 1121 516 1137 q 479 1095 485 1106 q 472 1071 472 1083 l 342 1071 z "},"ễ":{"ha":792,"x_min":69,"x_max":729,"o":"m 408 -17 q 227 28 303 -17 q 110 156 151 72 q 69 356 69 239 q 111 552 69 469 q 228 681 152 635 q 408 726 304 726 q 571 690 499 726 q 686 579 644 653 q 729 390 729 504 q 728 342 729 371 q 724 285 728 313 l 272 285 q 289 218 272 247 q 336 175 306 190 q 408 160 367 160 q 499 177 463 160 q 569 235 535 194 l 689 115 q 570 19 639 55 q 408 -17 501 -17 m 275 440 l 531 440 q 509 501 525 477 q 467 538 493 526 q 403 550 440 550 q 317 521 352 550 q 275 440 283 492 m 116 800 l 313 1017 l 508 1017 l 703 800 l 516 800 l 410 886 l 303 800 l 116 800 m 519 1085 q 447 1096 479 1085 q 386 1119 415 1107 q 338 1139 362 1131 q 290 1147 315 1147 q 244 1135 264 1147 q 224 1090 224 1124 l 128 1090 q 144 1191 128 1146 q 198 1264 160 1237 q 299 1290 235 1290 q 370 1280 338 1290 q 429 1258 401 1270 q 478 1238 453 1247 q 528 1229 503 1229 q 574 1240 555 1229 q 594 1285 594 1251 l 688 1285 q 673 1185 688 1231 q 620 1112 657 1140 q 519 1085 583 1085 z "},"ȅ":{"ha":792,"x_min":-93,"x_max":729,"o":"m 408 -17 q 227 28 303 -17 q 110 156 151 72 q 69 356 69 239 q 111 552 69 469 q 228 681 152 635 q 408 726 304 726 q 571 690 499 726 q 686 579 644 653 q 729 390 729 504 q 728 342 729 371 q 724 285 728 313 l 272 285 q 289 218 272 247 q 336 175 306 190 q 408 160 367 160 q 499 177 463 160 q 569 235 535 194 l 689 115 q 570 19 639 55 q 408 -17 501 -17 m 275 440 l 531 440 q 509 501 525 477 q 467 538 493 526 q 403 550 440 550 q 317 521 352 550 q 275 440 283 492 m 154 800 l -93 1017 l 153 1017 l 350 800 l 154 800 m 471 800 l 224 1017 l 469 1017 l 667 800 l 471 800 z "},"ë":{"ha":792,"x_min":69,"x_max":729,"o":"m 408 -17 q 227 28 303 -17 q 110 156 151 72 q 69 356 69 239 q 111 552 69 469 q 228 681 152 635 q 408 726 304 726 q 571 690 499 726 q 686 579 644 653 q 729 390 729 504 q 728 342 729 371 q 724 285 728 313 l 272 285 q 289 218 272 247 q 336 175 306 190 q 408 160 367 160 q 499 177 463 160 q 569 235 535 194 l 689 115 q 570 19 639 55 q 408 -17 501 -17 m 275 440 l 531 440 q 509 501 525 477 q 467 538 493 526 q 403 550 440 550 q 317 521 352 550 q 275 440 283 492 m 546 779 q 465 810 496 779 q 433 890 433 842 q 465 970 433 938 q 546 1003 496 1003 q 625 970 593 1003 q 657 890 657 938 q 625 810 657 842 q 546 779 593 779 m 271 779 q 191 810 222 779 q 160 890 160 842 q 191 970 160 938 q 271 1003 222 1003 q 351 970 319 1003 q 383 890 383 938 q 351 810 383 842 q 271 779 319 779 z "},"ė":{"ha":792,"x_min":69,"x_max":729,"o":"m 408 -17 q 227 28 303 -17 q 110 156 151 72 q 69 356 69 239 q 111 552 69 469 q 228 681 152 635 q 408 726 304 726 q 571 690 499 726 q 686 579 644 653 q 729 390 729 504 q 728 342 729 371 q 724 285 728 313 l 272 285 q 289 218 272 247 q 336 175 306 190 q 408 160 367 160 q 499 177 463 160 q 569 235 535 194 l 689 115 q 570 19 639 55 q 408 -17 501 -17 m 275 440 l 531 440 q 509 501 525 477 q 467 538 493 526 q 403 550 440 550 q 317 521 352 550 q 275 440 283 492 m 409 785 q 325 820 360 785 q 290 904 290 856 q 325 987 290 953 q 409 1021 360 1021 q 494 987 460 1021 q 528 904 528 953 q 494 820 528 856 q 409 785 460 785 z "},"ẹ":{"ha":792,"x_min":69,"x_max":729,"o":"m 408 -17 q 227 28 303 -17 q 110 156 151 72 q 69 356 69 239 q 111 552 69 469 q 228 681 152 635 q 408 726 304 726 q 571 690 499 726 q 686 579 644 653 q 729 390 729 504 q 728 342 729 371 q 724 285 728 313 l 272 285 q 289 218 272 247 q 336 175 306 190 q 408 160 367 160 q 499 177 463 160 q 569 235 535 194 l 689 115 q 570 19 639 55 q 408 -17 501 -17 m 275 440 l 531 440 q 509 501 525 477 q 467 538 493 526 q 403 550 440 550 q 317 521 352 550 q 275 440 283 492 m 409 -311 q 328 -279 360 -311 q 297 -199 297 -247 q 328 -118 297 -149 q 409 -87 360 -87 q 488 -118 456 -87 q 520 -199 520 -149 q 488 -279 520 -247 q 409 -311 456 -311 z "},"è":{"ha":792,"x_min":69,"x_max":729,"o":"m 408 -17 q 227 28 303 -17 q 110 156 151 72 q 69 356 69 239 q 111 552 69 469 q 228 681 152 635 q 408 726 304 726 q 571 690 499 726 q 686 579 644 653 q 729 390 729 504 q 728 342 729 371 q 724 285 728 313 l 272 285 q 289 218 272 247 q 336 175 306 190 q 408 160 367 160 q 499 177 463 160 q 569 235 535 194 l 689 115 q 570 19 639 55 q 408 -17 501 -17 m 275 440 l 531 440 q 509 501 525 477 q 467 538 493 526 q 403 550 440 550 q 317 521 352 550 q 275 440 283 492 m 344 800 l 97 1017 l 343 1017 l 540 800 l 344 800 z "},"ẻ":{"ha":792,"x_min":69,"x_max":729,"o":"m 408 -17 q 227 28 303 -17 q 110 156 151 72 q 69 356 69 239 q 111 552 69 469 q 228 681 152 635 q 408 726 304 726 q 571 690 499 726 q 686 579 644 653 q 729 390 729 504 q 728 342 729 371 q 724 285 728 313 l 272 285 q 289 218 272 247 q 336 175 306 190 q 408 160 367 160 q 499 177 463 160 q 569 235 535 194 l 689 115 q 570 19 639 55 q 408 -17 501 -17 m 275 440 l 531 440 q 509 501 525 477 q 467 538 493 526 q 403 550 440 550 q 317 521 352 550 q 275 440 283 492 m 342 764 q 353 826 342 799 q 394 875 365 852 q 415 892 408 885 q 421 906 421 899 q 404 921 421 921 q 357 885 381 921 l 271 939 q 325 1011 285 984 q 413 1039 364 1039 q 508 1004 470 1039 q 546 915 546 969 q 531 852 546 874 q 500 814 516 830 q 479 788 485 799 q 472 764 472 776 l 342 764 z "},"ȇ":{"ha":792,"x_min":69,"x_max":729,"o":"m 408 -17 q 227 28 303 -17 q 110 156 151 72 q 69 356 69 239 q 111 552 69 469 q 228 681 152 635 q 408 726 304 726 q 571 690 499 726 q 686 579 644 653 q 729 390 729 504 q 728 342 729 371 q 724 285 728 313 l 272 285 q 289 218 272 247 q 336 175 306 190 q 408 160 367 160 q 499 177 463 160 q 569 235 535 194 l 689 115 q 570 19 639 55 q 408 -17 501 -17 m 275 440 l 531 440 q 509 501 525 477 q 467 538 493 526 q 403 550 440 550 q 317 521 352 550 q 275 440 283 492 m 152 790 q 181 909 152 854 q 266 997 209 964 q 409 1031 324 1031 q 542 1001 490 1031 q 624 922 595 971 q 663 815 653 873 q 665 803 665 809 q 665 790 665 797 l 513 790 q 513 803 513 797 q 510 815 513 809 q 480 866 501 842 q 409 889 459 889 q 345 873 368 889 q 313 834 322 857 q 303 790 303 811 l 152 790 z "},"ē":{"ha":792,"x_min":69,"x_max":729,"o":"m 408 -17 q 227 28 303 -17 q 110 156 151 72 q 69 356 69 239 q 111 552 69 469 q 228 681 152 635 q 408 726 304 726 q 571 690 499 726 q 686 579 644 653 q 729 390 729 504 q 728 342 729 371 q 724 285 728 313 l 272 285 q 289 218 272 247 q 336 175 306 190 q 408 160 367 160 q 499 177 463 160 q 569 235 535 194 l 689 115 q 570 19 639 55 q 408 -17 501 -17 m 275 440 l 531 440 q 509 501 525 477 q 467 538 493 526 q 403 550 440 550 q 317 521 352 550 q 275 440 283 492 m 179 806 l 179 974 l 638 974 l 638 806 l 179 806 z "}}}
